<svg id="cancel" xmlns="http://www.w3.org/2000/svg" width="46" height="46" viewBox="0 0 46 46">
  <circle id="Ellipse_6" data-name="Ellipse 6" cx="23" cy="23" r="23" transform="translate(0)" fill="#f15249"/>
  <path id="Path_78" data-name="Path 78" d="M147.2,167.953l12.407,12.407a22.881,22.881,0,0,0,20.025-19.88L167.153,148Z" transform="translate(-133.85 -134.577)" fill="#ad0e0e"/>
  <path id="Path_79" data-name="Path 79" d="M147.728,141.2a2.717,2.717,0,0,1,0,3.773L145.7,147a2.717,2.717,0,0,1-3.773,0l-15.962-15.962a2.716,2.716,0,0,1,0-3.773l2.1-2.1a2.717,2.717,0,0,1,3.773,0Z" transform="translate(-113.845 -113.118)" fill="#fff"/>
  <path id="Path_80" data-name="Path 80" d="M221.877,216,216,221.877l8.489,8.416a2.716,2.716,0,0,0,3.773,0l2.1-2.1a2.716,2.716,0,0,0,0-3.773Z" transform="translate(-196.41 -196.41)" fill="#d6d6d6"/>
  <path id="Path_81" data-name="Path 81" d="M141.924,125.962a2.716,2.716,0,0,1,3.773,0l2.1,2.1a2.716,2.716,0,0,1,0,3.773l-16.035,15.89a2.717,2.717,0,0,1-3.773,0l-2.032-2.032a2.716,2.716,0,0,1,0-3.773Z" transform="translate(-113.845 -113.845)" fill="#fff"/>
</svg>
