<svg id="cube" xmlns="http://www.w3.org/2000/svg" width="33.524" height="33.524" viewBox="0 0 33.524 33.524">
  <path id="Path_98" data-name="Path 98" d="M167.481,131.509l0,0-5.635-3.888a.982.982,0,0,0-1.113,0l-5.676,3.888,0,0a.982.982,0,0,0-.424.807v7.108a.982.982,0,0,0,.427.81l5.655,3.874a.975.975,0,0,0,1.108,0h0l5.655-3.874a.982.982,0,0,0,.427-.81v-7.108A.982.982,0,0,0,167.481,131.509Zm-6.2-1.891,3.9,2.693-.782.536L161.265,135l-3.918-2.684Zm-4.692,4.56,3.691,2.529v4.727l-3.691-2.528Zm5.655,7.256v-4.727l3.691-2.529v4.727Z" transform="translate(-144.502 -119.1)" fill="#007e4e"/>
  <path id="Path_99" data-name="Path 99" d="M32.542,15.78H30.6A13.892,13.892,0,0,0,17.744,2.927V.982a.982.982,0,0,0-1.964,0V2.927A13.892,13.892,0,0,0,2.927,15.78H.982a.982.982,0,0,0,0,1.964H2.927A13.892,13.892,0,0,0,15.78,30.6v1.944a.982.982,0,0,0,1.964,0V30.6A13.892,13.892,0,0,0,30.6,17.744h1.944a.982.982,0,0,0,0-1.964ZM16.762,28.669A11.907,11.907,0,1,1,28.669,16.762,11.92,11.92,0,0,1,16.762,28.669Z" fill="#007e4e"/>
</svg>
