<?xml version="1.0" encoding="utf-8"?>
<!-- Generator: Adobe Illustrator 24.2.1, SVG Export Plug-In . SVG Version: 6.00 Build 0)  -->
<svg version="1.1" id="Layer_1" xmlns="http://www.w3.org/2000/svg" xmlns:xlink="http://www.w3.org/1999/xlink" x="0px" y="0px"
	 viewBox="0 0 300 50" style="enable-background:new 0 0 300 50;" xml:space="preserve">
<style type="text/css">
	.st0{fill:#06754B;}
	.st1{fill:#FFFFFF;}
	.st2{font-family:'ArialMT';}
	.st3{font-size:18px;}
</style>
<path class="st0" d="M287,50H13C5.8,50,0,44.2,0,37V13C0,5.8,5.8,0,13,0h274c7.2,0,13,5.8,13,13v24C300,44.2,294.2,50,287,50z"/>
<g>
	<text transform="matrix(1 0 0 1 145.5926 29.8013)" class="st1 st2 st3">Test</text>
	<path class="st1" d="M131.7,21.4c0.2,0.2,0.2,0.5,0,0.7l-3.7,3.5c-0.2,0.2-0.6,0.2-0.8,0l-1.8-1.7c-0.2-0.2-0.2-0.5,0-0.7
		c0.2-0.2,0.6-0.2,0.8,0l1.4,1.3l3.3-3.1C131.1,21.2,131.5,21.2,131.7,21.4z M135.7,23.6c0,3.7-3.2,6.7-7.1,6.7
		c-3.9,0-7.1-3-7.1-6.7s3.2-6.7,7.1-6.7C132.5,16.9,135.7,19.9,135.7,23.6z M134.5,23.6c0-3.1-2.7-5.7-6-5.7c-3.3,0-6,2.5-6,5.7
		c0,3.1,2.7,5.7,6,5.7C131.9,29.2,134.5,26.7,134.5,23.6z"/>
</g>
</svg>
