<svg xmlns="http://www.w3.org/2000/svg" xmlns:xlink="http://www.w3.org/1999/xlink" width="154" height="153" viewBox="0 0 154 153">
  <defs>
    <clipPath id="clip-path">
      <rect id="Rectangle_102" data-name="Rectangle 102" width="148" height="146" rx="57" transform="translate(26 53.124)" fill="#fff" stroke="#007e4e" stroke-width="11"/>
    </clipPath>
  </defs>
  <g id="Group_112" data-name="Group 112" transform="translate(-3982 -1373)" style="mix-blend-mode: luminosity;isolation: isolate">
    <path id="Path_138" data-name="Path 138" d="M57,0H89a57,57,0,0,1,57,57V87a57,57,0,0,1-57,57H57A57,57,0,0,1,0,87V57A57,57,0,0,1,57,0Z" transform="translate(3990 1382)" fill="#fff"/>
    <g id="Mask_Group_5" data-name="Mask Group 5" transform="translate(3956 1319.876)" opacity="0.66" clip-path="url(#clip-path)">
      <g id="money_1_" data-name="money (1)" transform="translate(74.434 113.053)">
        <path id="Path_139" data-name="Path 139" d="M0,396.649V378.308L48.461,367.93l48.461,10.377v18.342l-48.461,9.17Zm0,0" transform="translate(0 -329.008)" fill="#59c230"/>
        <path id="Path_140" data-name="Path 140" d="M0,396.649V378.308L48.461,367.93l48.461,10.377v18.342l-48.461,9.17Zm0,0" transform="translate(0 -311.643)" fill="#59c230"/>
        <path id="Path_141" data-name="Path 141" d="M0,319.879H96.922v21.588H0Zm0,0" transform="translate(0 -289.447)" fill="#9bd981"/>
        <path id="Path_142" data-name="Path 142" d="M0,319.879H96.922v15.436H0Zm0,0" transform="translate(0 -260.891)" fill="#9bd981"/>
        <path id="Path_143" data-name="Path 143" d="M0,455.852v13.595c0,4.62,1.943,8.364,4.34,8.364H92.583c2.4,0,4.34-3.744,4.34-8.364V455.852Zm0,0" transform="translate(0 -374.498)" fill="#9bd981"/>
        <path id="Path_144" data-name="Path 144" d="M14.761,392.441,0,394.159V407.45l14.761,1.518Zm0,0" transform="translate(0 -342.21)" fill="#489f24"/>
        <path id="Path_145" data-name="Path 145" d="M14.761,392.441,0,394.159V407.45l14.761,1.518Zm0,0" transform="translate(0 -324.845)" fill="#489f24"/>
        <path id="Path_146" data-name="Path 146" d="M0,319.879H14.761v21.588H0Zm0,0" transform="translate(0 -289.447)" fill="#59c230"/>
        <path id="Path_147" data-name="Path 147" d="M0,319.879H14.761v15.436H0Zm0,0" transform="translate(0 -260.891)" fill="#59c230"/>
        <path id="Path_148" data-name="Path 148" d="M92.119,0H4.8C2.151,0,0,1.058,0,2.363V31.928c0,1.3,2.15,2.363,4.8,2.363H92.12c2.652,0,4.8-1.058,4.8-2.363V2.363c0-1.3-2.151-2.363-4.8-2.363Zm0,0" transform="translate(0)" fill="#59c230"/>
        <path id="Path_149" data-name="Path 149" d="M8.359,31.928V2.363c0-1.3,2.866-2.363,6.4-2.363H6.4C2.866,0,0,1.058,0,2.363V31.928c0,1.3,2.866,2.363,6.4,2.363h8.359C11.225,34.291,8.359,33.233,8.359,31.928Zm0,0" transform="translate(0 0)" fill="#489f24"/>
        <path id="Path_150" data-name="Path 150" d="M14.761,455.852H0v13.595c0,4.62,2.589,8.364,5.784,8.364h8.977Zm0,0" transform="translate(0 -374.498)" fill="#59c230"/>
      </g>
    </g>
    <g id="Rectangle_11" data-name="Rectangle 11" transform="translate(3990 1382)" fill="none" stroke="#007e4e" stroke-width="11">
      <rect width="146" height="144" rx="57" stroke="none"/>
      <rect x="5.5" y="5.5" width="135" height="133" rx="51.5" fill="none"/>
    </g>
    <text id="capture" transform="translate(4063 1486)" fill="#333" font-size="18" font-family="ArialRoundedMTBold, Arial Rounded MT"><tspan x="-44.077" y="0">CAPTURE</tspan></text>
    <circle id="Ellipse_20" data-name="Ellipse 20" cx="23" cy="23" r="23" transform="translate(3989 1374)" fill="#007e4e"/>
    <text id="_2" data-name="2" transform="translate(4005 1406)" fill="#fff" font-size="24" font-family="ArialRoundedMTBold, Arial Rounded MT"><tspan x="0" y="0">2</tspan></text>
    <g id="photograph" transform="translate(4040.083 1370.067)">
      <g id="Group_37" data-name="Group 37" transform="translate(23.708 63.225)">
        <g id="Group_36" data-name="Group 36">
          <path id="Path_90" data-name="Path 90" d="M262.512,204.8a5.936,5.936,0,0,0-3.039.868,1.719,1.719,0,0,1,1.085,1.737,2.051,2.051,0,0,1-2.171,2.171,2.214,2.214,0,0,1-1.737-1.085,6.009,6.009,0,0,0-.651,2.822,6.512,6.512,0,1,0,13.025,0A6.531,6.531,0,0,0,262.512,204.8Z" transform="translate(-256 -204.8)" fill="#003722"/>
        </g>
      </g>
      <g id="Group_39" data-name="Group 39" transform="translate(-3.084 45.933)">
        <g id="Group_38" data-name="Group 38">
          <path id="Path_91" data-name="Path 91" d="M49,56.358H46.425L44.1,51.974c0-.516-.516-.774-1.032-.774H29.145c-.516,0-1.032.258-1.032.774l-2.321,4.385H12.9v-1.29a1.218,1.218,0,0,0-1.29-1.29H6.448a1.218,1.218,0,0,0-1.29,1.29v1.29H2.579A2.437,2.437,0,0,0,0,58.938v30.95a2.437,2.437,0,0,0,2.579,2.579H49a2.437,2.437,0,0,0,2.579-2.579V58.938A2.437,2.437,0,0,0,49,56.358ZM7.738,66.675A2.585,2.585,0,0,1,5.158,64.1a2.437,2.437,0,0,1,2.579-2.579,2.579,2.579,0,0,1,0,5.158ZM33.529,87.309a12.9,12.9,0,1,1,12.9-12.9A12.771,12.771,0,0,1,33.529,87.309Z" transform="translate(0 -51.2)" fill="#003722"/>
        </g>
      </g>
    </g>
  </g>
</svg>
