<svg id="Layer_1" data-name="Layer 1" xmlns="http://www.w3.org/2000/svg" viewBox="0 0 83.32 83.43"><g id="Group_57" data-name="Group 57"><path id="Path_94" data-name="Path 94" d="M74.23,75.61C61.46,86,21.6,86,9.09,75.61c-12.76-10.42-11.46-55,0-66.7s53.67-11.72,65.14,0S87,65.19,74.23,75.61Z" style="fill:#cececd"/><path id="Path_95" data-name="Path 95" d="M41.92,57.37C30.46,66.49,17.69,71.18,5.71,71.44c-8.86-15.11-7-51.84,3.38-62.52C18.47-.72,47.91-2.55,64.85,3.44,69,20.64,60.42,42.52,41.92,57.37Z" style="fill:#ddd"/></g><g id="internet"><path id="Path_75" data-name="Path 75" d="M46,27.83H43.6V21.51a1.94,1.94,0,1,0-3.88,0h0v6.32H37.28a1.46,1.46,0,0,0-1,2.49l4.38,4.37a1.46,1.46,0,0,0,2.06,0h0l4.38-4.37a1.47,1.47,0,0,0,0-2.07A1.45,1.45,0,0,0,46,27.83Z" style="fill:#329fc2"/><path id="Path_76" data-name="Path 76" d="M47.49,42.9H35.83A3.9,3.9,0,0,1,31.94,39V37.06a1.95,1.95,0,0,1,3.89,0V39H47.49V37.06A1.95,1.95,0,0,1,51.38,37v2A3.9,3.9,0,0,1,47.49,42.9Z" style="fill:#329fc2"/></g><g style="isolation:isolate"><path d="M23.05,61.32l1.52-.13a3.41,3.41,0,0,0,.5,1.5,2.72,2.72,0,0,0,1.22.94,4.69,4.69,0,0,0,1.87.36,4.53,4.53,0,0,0,1.63-.27A2.23,2.23,0,0,0,30.84,63a1.75,1.75,0,0,0,.34-1,1.56,1.56,0,0,0-.33-1,2.41,2.41,0,0,0-1.09-.72,20.78,20.78,0,0,0-2.17-.6,10.49,10.49,0,0,1-2.35-.76,3.31,3.31,0,0,1-1.3-1.13,2.8,2.8,0,0,1-.43-1.51A3.11,3.11,0,0,1,24,54.48a3.15,3.15,0,0,1,1.52-1.21,5.77,5.77,0,0,1,2.24-.42,6.09,6.09,0,0,1,2.38.44,3.45,3.45,0,0,1,1.59,1.28,3.72,3.72,0,0,1,.6,1.92l-1.54.11A2.52,2.52,0,0,0,30,54.86a3.29,3.29,0,0,0-2.12-.59,3.4,3.4,0,0,0-2.13.54,1.59,1.59,0,0,0-.66,1.29,1.36,1.36,0,0,0,.47,1.08A6.38,6.38,0,0,0,28,58a16.48,16.48,0,0,1,2.69.78,3.73,3.73,0,0,1,1.57,1.24,3,3,0,0,1,.5,1.73,3.3,3.3,0,0,1-.55,1.83A3.6,3.6,0,0,1,30.58,65a5.5,5.5,0,0,1-2.34.48A7,7,0,0,1,25.47,65a3.92,3.92,0,0,1-1.75-1.45A4.07,4.07,0,0,1,23.05,61.32Z" style="fill:#333"/><path d="M40.5,64.14a5.87,5.87,0,0,1-1.6,1,4.69,4.69,0,0,1-1.65.29A3.21,3.21,0,0,1,35,64.72a2.34,2.34,0,0,1-.78-1.81,2.49,2.49,0,0,1,.29-1.19,2.66,2.66,0,0,1,.77-.86,3.8,3.8,0,0,1,1.08-.49,11.64,11.64,0,0,1,1.33-.22,13.27,13.27,0,0,0,2.66-.52c0-.2,0-.33,0-.38A1.67,1.67,0,0,0,40,58a2.5,2.5,0,0,0-1.7-.51,2.67,2.67,0,0,0-1.56.37A2.23,2.23,0,0,0,36,59.13l-1.47-.2a3.8,3.8,0,0,1,.66-1.52,2.85,2.85,0,0,1,1.32-.88,5.83,5.83,0,0,1,2-.32,5.26,5.26,0,0,1,1.84.27,2.39,2.39,0,0,1,1,.67,2.42,2.42,0,0,1,.47,1,8.66,8.66,0,0,1,.07,1.38v2a19.59,19.59,0,0,0,.1,2.63,3.21,3.21,0,0,0,.38,1.06H40.8A3,3,0,0,1,40.5,64.14Zm-.13-3.33a11.26,11.26,0,0,1-2.44.56,5.7,5.7,0,0,0-1.3.3,1.31,1.31,0,0,0-.35,2.19,2,2,0,0,0,1.33.4,3.1,3.1,0,0,0,1.53-.38,2.34,2.34,0,0,0,1-1,3.65,3.65,0,0,0,.24-1.5Z" style="fill:#333"/><path d="M46.65,65.23l-3.36-8.82h1.58l1.89,5.28c.21.57.4,1.17.57,1.78.13-.47.32-1,.55-1.68l2-5.38h1.54L48,65.23Z" style="fill:#333"/><path d="M58.73,62.39l1.55.19a3.82,3.82,0,0,1-1.36,2.1,4.58,4.58,0,0,1-5.59-.44A4.69,4.69,0,0,1,52.2,60.9a4.85,4.85,0,0,1,1.15-3.46,3.86,3.86,0,0,1,3-1.23,3.79,3.79,0,0,1,2.89,1.21,4.81,4.81,0,0,1,1.12,3.39c0,.08,0,.22,0,.39H53.74a3.4,3.4,0,0,0,.83,2.23,2.44,2.44,0,0,0,1.84.77,2.26,2.26,0,0,0,1.4-.43A2.82,2.82,0,0,0,58.73,62.39ZM53.83,60h4.92a3,3,0,0,0-.56-1.67,2.3,2.3,0,0,0-1.86-.87,2.38,2.38,0,0,0-1.73.69A2.78,2.78,0,0,0,53.83,60Z" style="fill:#333"/></g></svg>