<?xml version="1.0" encoding="utf-8"?>
<!-- Generator: Adobe Illustrator 24.2.1, SVG Export Plug-In . SVG Version: 6.00 Build 0)  -->
<svg version="1.1" id="Layer_1" xmlns="http://www.w3.org/2000/svg" xmlns:xlink="http://www.w3.org/1999/xlink" x="0px" y="0px"
	 viewBox="0 0 300 50" style="enable-background:new 0 0 300 50;" xml:space="preserve">
<style type="text/css">
	.st0{fill:#06754B;}
	.st1{fill:#FFFFFF;}
	.st2{font-family:'ArialMT';}
	.st3{font-size:18px;}
</style>
<path class="st0" d="M287,50H13C5.8,50,0,44.2,0,37V13C0,5.8,5.8,0,13,0h274c7.2,0,13,5.8,13,13v24C300,44.2,294.2,50,287,50z"/>
<g>
	<text transform="matrix(1 0 0 1 141.4575 29.8013)" class="st1 st2 st3">Train</text>
	<g>
		<g>
			<path class="st1" d="M128.3,22.5C128.4,22.5,128.4,22.5,128.3,22.5c0.2,0,0.2-0.1,0.2-0.2c-0.1-0.3-0.2-0.7-0.4-1
				c-0.1-0.1-0.2-0.1-0.3-0.1c-0.1,0.1-0.1,0.2-0.1,0.3c0.2,0.3,0.3,0.6,0.4,0.9C128.2,22.5,128.3,22.5,128.3,22.5L128.3,22.5z"/>
			<path class="st1" d="M124.8,24.8c0.1,0,0.2-0.1,0.2-0.2V22c0-0.1-0.1-0.2-0.2-0.2h-1.1c-0.1,0-0.2,0.1-0.2,0.2v2.7
				c0,0.1,0.1,0.2,0.2,0.2s0.2-0.1,0.2-0.2v-1.1h0.8v1.1C124.7,24.7,124.7,24.8,124.8,24.8L124.8,24.8z M123.9,23.1v-0.9h0.8v0.9
				H123.9z"/>
			<path class="st1" d="M125.8,22v2.7c0,0.1,0.1,0.2,0.2,0.2c0.1,0,0.2-0.1,0.2-0.2V22c0-0.1-0.1-0.2-0.2-0.2
				C125.9,21.8,125.8,21.9,125.8,22z"/>
			<path class="st1" d="M122,22.6c-0.3,0-0.5,0.2-0.6,0.4h-3.1c-0.1,0-0.2,0.1-0.2,0.2s0.1,0.2,0.2,0.2h3.1c0.1,0.2,0.3,0.4,0.6,0.4
				c0.3,0,0.6-0.3,0.6-0.6S122.3,22.6,122,22.6z M122,23.4c-0.1,0-0.2-0.1-0.2-0.2s0.1-0.2,0.2-0.2c0.1,0,0.2,0.1,0.2,0.2
				S122.1,23.4,122,23.4z"/>
			<path class="st1" d="M127.1,23.2c0,0.3,0.3,0.6,0.6,0.6c0.3,0,0.5-0.2,0.6-0.4h3.1c0.1,0,0.2-0.1,0.2-0.2s-0.1-0.2-0.2-0.2h-3.1
				c-0.1-0.2-0.3-0.4-0.6-0.4C127.4,22.6,127.1,22.9,127.1,23.2L127.1,23.2z M127.9,23.2c0,0.1-0.1,0.2-0.2,0.2
				c-0.1,0-0.2-0.1-0.2-0.2s0.1-0.2,0.2-0.2C127.8,23,127.9,23.1,127.9,23.2z"/>
			<path class="st1" d="M130.9,27.1c-0.3,0-0.5,0.2-0.5,0.4h-2.7l-1-0.8c0.2-0.1,0.4-0.2,0.6-0.4c0.7-0.5,1.1-1.3,1.3-2.1
				c0-0.1,0-0.2-0.1-0.2c-0.1,0-0.2,0-0.2,0.1c-0.2,0.7-0.6,1.4-1.2,1.9c-0.6,0.5-1.3,0.7-2.1,0.7c-0.8,0-1.5-0.3-2.1-0.7
				c-0.6-0.5-1-1.1-1.2-1.9c0-0.1-0.1-0.2-0.2-0.1c-0.1,0-0.2,0.1-0.1,0.2c0.2,0.8,0.7,1.6,1.3,2.1c0.2,0.2,0.4,0.3,0.6,0.4l-1,0.8
				h-2.7c-0.1-0.2-0.3-0.4-0.5-0.4c-0.3,0-0.6,0.3-0.6,0.6s0.3,0.6,0.6,0.6c0.3,0,0.5-0.2,0.5-0.4h2.8c0,0,0.1,0,0.1,0l1.2-1
				c0.2,0.1,0.5,0.2,0.8,0.2l0,0.5c0,0.1,0.1,0.2,0.2,0.2c0,0,0,0,0,0c0.1,0,0.2-0.1,0.2-0.2l0-0.5c0.1,0,0.1,0,0.2,0
				c0.1,0,0.2,0,0.2,0l0.1,1.9h-0.7l0-0.4c0-0.1-0.1-0.2-0.2-0.2c-0.1,0-0.2,0.1-0.2,0.2l-0.1,1c0,0.2,0.1,0.4,0.2,0.6
				c0.1,0.2,0.4,0.2,0.6,0.2c0.2,0,0.4-0.1,0.6-0.2c0.1-0.2,0.2-0.4,0.2-0.6l-0.2-2.5c0.3,0,0.5-0.1,0.7-0.2l1.2,1c0,0,0.1,0,0.1,0
				h2.8c0.1,0.2,0.3,0.4,0.5,0.4c0.3,0,0.6-0.3,0.6-0.6C131.5,27.3,131.2,27.1,130.9,27.1L130.9,27.1z M118.8,27.8
				c-0.1,0-0.2-0.1-0.2-0.2s0.1-0.2,0.2-0.2c0.1,0,0.2,0.1,0.2,0.2S118.9,27.8,118.8,27.8z M125.1,29.7c-0.1,0.1-0.2,0.1-0.3,0.1
				s-0.2,0-0.3-0.1c-0.1-0.1-0.1-0.2-0.1-0.3l0-0.2h0.8l0,0.2C125.3,29.6,125.2,29.7,125.1,29.7L125.1,29.7z M130.9,27.8
				c-0.1,0-0.2-0.1-0.2-0.2s0.1-0.2,0.2-0.2c0.1,0,0.2,0.1,0.2,0.2S131,27.8,130.9,27.8z"/>
			<path class="st1" d="M118.8,19.4c0.3,0,0.5-0.2,0.5-0.4h2.7l1,0.8c-0.9,0.5-1.7,1.4-1.9,2.4c0,0.1,0,0.2,0.1,0.2c0,0,0,0,0,0
				c0.1,0,0.2-0.1,0.2-0.1c0.4-1.5,1.7-2.6,3.3-2.6c0.9,0,1.8,0.4,2.4,1c0.1,0.1,0.2,0.1,0.3,0c0.1-0.1,0.1-0.2,0-0.3
				c-0.3-0.3-0.6-0.5-1-0.7l1-0.8h2.7c0.1,0.2,0.3,0.4,0.5,0.4c0.3,0,0.6-0.3,0.6-0.6s-0.3-0.6-0.6-0.6c-0.3,0-0.5,0.2-0.5,0.4h-2.8
				c0,0-0.1,0-0.1,0l-1.2,1c-0.4-0.1-0.8-0.2-1.2-0.2v-1.3c0.2-0.1,0.4-0.3,0.4-0.5c0-0.3-0.3-0.6-0.6-0.6s-0.6,0.3-0.6,0.6
				c0,0.3,0.2,0.5,0.4,0.5v1.3c-0.4,0-0.8,0.1-1.2,0.2l-1.2-1c0,0-0.1,0-0.1,0h-2.8c-0.1-0.2-0.3-0.4-0.5-0.4
				c-0.3,0-0.6,0.3-0.6,0.6C118.2,19.1,118.5,19.4,118.8,19.4L118.8,19.4z M130.9,18.6c0.1,0,0.2,0.1,0.2,0.2S131,19,130.9,19
				c-0.1,0-0.2-0.1-0.2-0.2C130.7,18.7,130.8,18.6,130.9,18.6z M124.9,17.4c0.1,0,0.2,0.1,0.2,0.2s-0.1,0.2-0.2,0.2
				c-0.1,0-0.2-0.1-0.2-0.2S124.8,17.4,124.9,17.4z M118.8,18.6c0.1,0,0.2,0.1,0.2,0.2s-0.1,0.2-0.2,0.2c-0.1,0-0.2-0.1-0.2-0.2
				C118.6,18.7,118.7,18.6,118.8,18.6z"/>
		</g>
	</g>
</g>
</svg>
