<svg id="Layer_1" data-name="Layer 1" xmlns="http://www.w3.org/2000/svg" viewBox="0 0 83.32 83.43"><g id="Group_58" data-name="Group 58"><g id="Group_40" data-name="Group 40"><path id="Path_96" data-name="Path 96" d="M74.23,75.61C61.46,86,21.6,86,9.09,75.61c-12.76-10.42-11.46-55,0-66.7s53.67-11.72,65.14,0S87,65.19,74.23,75.61Z" style="fill:#cececd"/></g><path id="Path_97" data-name="Path 97" d="M41.92,57.37C30.46,66.49,17.69,71.18,5.71,71.44c-8.86-15.11-7-51.84,3.38-62.52C18.47-.72,47.91-2.55,64.85,3.44,69,20.64,60.42,42.52,41.92,57.37Z" style="fill:#ddd"/></g><g style="isolation:isolate"><path d="M19.16,65.23V53.06h1.61V65.23Z" style="fill:#333"/><path d="M23.41,65.23V56.41h1.34v1.24a3.12,3.12,0,0,1,2.67-1.44,2.91,2.91,0,0,1,1.61.41,2.14,2.14,0,0,1,.88,1.14,3.18,3.18,0,0,1,2.73-1.55,2.69,2.69,0,0,1,2,.73,3.12,3.12,0,0,1,.71,2.24v6.05H33.87V59.68a4.31,4.31,0,0,0-.14-1.29,1.27,1.27,0,0,0-.53-.64,1.63,1.63,0,0,0-.9-.24,2.09,2.09,0,0,0-1.54.62,2.71,2.71,0,0,0-.61,2v5.12h-1.5V59.5A2.54,2.54,0,0,0,28.29,58a1.41,1.41,0,0,0-1.2-.5,2.2,2.2,0,0,0-1.17.33,1.92,1.92,0,0,0-.77,1,5.51,5.51,0,0,0-.24,1.85v4.57Z" style="fill:#333"/><path d="M37.58,68.61V56.41h1.36v1.15a3.42,3.42,0,0,1,1.08-1,3.07,3.07,0,0,1,1.47-.34,3.46,3.46,0,0,1,3.3,2.23,6,6,0,0,1,.44,2.31,5.78,5.78,0,0,1-.49,2.44,3.7,3.7,0,0,1-3.36,2.24A2.85,2.85,0,0,1,40,65.11a3,3,0,0,1-1-.79v4.29Zm1.35-7.74a3.85,3.85,0,0,0,.69,2.52,2.11,2.11,0,0,0,1.67.81,2.15,2.15,0,0,0,1.7-.84,4,4,0,0,0,.71-2.61A3.92,3.92,0,0,0,43,58.22a2.08,2.08,0,0,0-1.66-.83,2.14,2.14,0,0,0-1.69.89A4,4,0,0,0,38.93,60.87Z" style="fill:#333"/><path d="M46.47,60.82a4.58,4.58,0,0,1,1.36-3.63,4.14,4.14,0,0,1,2.78-1,3.94,3.94,0,0,1,3,1.2,4.52,4.52,0,0,1,1.15,3.29,5.82,5.82,0,0,1-.51,2.67,3.61,3.61,0,0,1-1.48,1.52,4.32,4.32,0,0,1-2.13.54,4,4,0,0,1-3-1.19A4.7,4.7,0,0,1,46.47,60.82Zm1.54,0a3.72,3.72,0,0,0,.74,2.54,2.36,2.36,0,0,0,1.86.84,2.34,2.34,0,0,0,1.85-.85,3.84,3.84,0,0,0,.74-2.58,3.64,3.64,0,0,0-.75-2.48,2.46,2.46,0,0,0-3.7,0A3.69,3.69,0,0,0,48,60.82Z" style="fill:#333"/><path d="M56.47,65.23V56.41h1.34v1.34a3.72,3.72,0,0,1,.95-1.24,1.65,1.65,0,0,1,1-.3,2.87,2.87,0,0,1,1.54.49l-.52,1.38a2.17,2.17,0,0,0-1.09-.32,1.45,1.45,0,0,0-.88.29,1.61,1.61,0,0,0-.56.82A5.67,5.67,0,0,0,58,60.61v4.62Z" style="fill:#333"/><path d="M65.41,63.89l.21,1.32a5.43,5.43,0,0,1-1.13.14,2.57,2.57,0,0,1-1.26-.26,1.42,1.42,0,0,1-.63-.68,5.42,5.42,0,0,1-.18-1.76V57.58h-1.1V56.41h1.1V54.23l1.49-.9v3.08h1.5v1.17h-1.5v5.15a2.75,2.75,0,0,0,.07.82.66.66,0,0,0,.26.29,1,1,0,0,0,.51.11A4.7,4.7,0,0,0,65.41,63.89Z" style="fill:#333"/></g><path d="M47.59,44.17a7,7,0,1,1,7-7A7,7,0,0,1,47.59,44.17Zm0-12.94a5.93,5.93,0,1,0,5.93,5.93A5.94,5.94,0,0,0,47.59,31.23Z" style="fill:#329fc2;stroke:#329fc2;stroke-miterlimit:10;stroke-width:0.75px"/><path d="M47.59,40.93a.54.54,0,0,1-.38-.15L44,37.54a.54.54,0,0,1,0-.76.55.55,0,0,1,.77,0l2.85,2.85,2.85-2.85a.54.54,0,1,1,.76.76L48,40.78a.54.54,0,0,1-.38.15Z" style="fill:#329fc2;stroke:#329fc2;stroke-miterlimit:10;stroke-width:0.75px"/><path d="M47.59,40.66a.54.54,0,0,1-.54-.53v-6.2a.54.54,0,1,1,1.08,0v6.2A.54.54,0,0,1,47.59,40.66Z" style="fill:#329fc2;stroke:#329fc2;stroke-miterlimit:10;stroke-width:0.75px"/><path d="M39.5,26.92a.58.58,0,0,1-.18,0L29.07,23.11a.54.54,0,0,1,0-1l10.25-3.78a.59.59,0,0,1,.37,0L49.93,22.1a.53.53,0,0,1,0,1L39.69,26.88A.58.58,0,0,1,39.5,26.92ZM30.82,22.6l8.68,3.2,8.69-3.2L39.5,19.4Z" style="fill:#329fc2;stroke:#329fc2;stroke-miterlimit:10;stroke-width:0.75px"/><path d="M38,39.31a.39.39,0,0,1-.18,0l-8.76-3.22a.54.54,0,0,1-.35-.51V22.6a.54.54,0,0,1,1.08,0V35.17l8.4,3.09a.54.54,0,0,1,.32.69.55.55,0,0,1-.51.36Z" style="fill:#329fc2;stroke:#329fc2;stroke-miterlimit:10;stroke-width:0.75px"/><path d="M49.75,28a.54.54,0,0,1-.54-.53V22.6a.54.54,0,0,1,.54-.54.54.54,0,0,1,.54.54v4.86A.54.54,0,0,1,49.75,28Z" style="fill:#329fc2;stroke:#329fc2;stroke-miterlimit:10;stroke-width:0.75px"/><path d="M39.5,32.34A.54.54,0,0,1,39,31.8V26.38a.54.54,0,1,1,1.08,0V31.8A.54.54,0,0,1,39.5,32.34Z" style="fill:#329fc2;stroke:#329fc2;stroke-miterlimit:10;stroke-width:0.75px"/></svg>