<svg id="Layer_1" data-name="Layer 1" xmlns="http://www.w3.org/2000/svg" viewBox="0 0 330 60"><path d="M315.7,60H14.3C6.38,60,0,53,0,44.4V15.6C0,7,6.38,0,14.3,0H315.7C323.62,0,330,7,330,15.6V44.4C330,53,323.62,60,315.7,60Z" style="fill:#0b754c"/><path d="M141.75,28.4h0c.2,0,.3-.2.3-.4a4.71,4.71,0,0,0-.6-1.5c-.1-.1-.3-.2-.4-.1s-.2.3-.1.4a6.94,6.94,0,0,1,.5,1.3.27.27,0,0,0,.3.3Z" style="fill:#fff"/><path d="M136.35,31.8a.27.27,0,0,0,.3-.3V27.4a.27.27,0,0,0-.3-.3h-1.7a.27.27,0,0,0-.3.3v4.1a.3.3,0,1,0,.6,0V29.8h1.1v1.7a.32.32,0,0,0,.3.3ZM135,29.2V27.8h1.1v1.4Z" style="fill:#fff"/><path d="M137.85,27.5v4.1a.3.3,0,0,0,.6,0V27.5a.3.3,0,1,0-.6,0Z" style="fill:#fff"/><path d="M132.05,28.5a.76.76,0,0,0-.8.6h-4.7a.3.3,0,1,0,0,.6h4.7a1,1,0,0,0,.8.6.9.9,0,1,0,0-1.8Zm0,1.2a.3.3,0,1,1,.3-.3A.27.27,0,0,1,132.05,29.7Z" style="fill:#fff"/><path d="M139.85,29.4a.9.9,0,0,0,.9.9.76.76,0,0,0,.8-.6h4.7a.3.3,0,0,0,0-.6h-4.7a1,1,0,0,0-.8-.6.9.9,0,0,0-.9.9Zm1.2,0a.3.3,0,1,1-.3-.3A.32.32,0,0,1,141.05,29.4Z" style="fill:#fff"/><path d="M145.65,35.3a.76.76,0,0,0-.8.6h-4.2l-1.5-1.3.9-.6a5.69,5.69,0,0,0,2-3.2.32.32,0,1,0-.6-.2,5.94,5.94,0,0,1-1.8,2.9,5.46,5.46,0,0,1-3.3,1.1,5.68,5.68,0,0,1-3.3-1.1,4.68,4.68,0,0,1-1.8-2.9c0-.2-.2-.3-.4-.2s-.3.2-.2.4a6,6,0,0,0,2,3.2l.9.6-1.5,1.3h-4.2a1,1,0,0,0-.8-.6.9.9,0,1,0,0,1.8.76.76,0,0,0,.8-.6h4.3c.1,0,.1,0,.2-.1l1.8-1.5a5.27,5.27,0,0,0,1.2.3l.1.8a.27.27,0,0,0,.3.3h0a.27.27,0,0,0,.3-.3l.1-.8h.7l.2,2.9H136v-.7a.3.3,0,0,0-.6,0l-.1,1.5a1.4,1.4,0,0,0,.3.9,1.27,1.27,0,0,0,.9.4,1.22,1.22,0,0,0,.9-.4,1.4,1.4,0,0,0,.3-.9l-.2-3.8c.4-.1.8-.2,1.1-.3l1.8,1.5c.1,0,.1.1.2.1h4.3a1,1,0,0,0,.8.6.9.9,0,0,0,.9-.9.82.82,0,0,0-.9-.8Zm-18.6,1.2a.3.3,0,1,1,.3-.3A.27.27,0,0,1,127.05,36.5Zm9.8,2.9a.76.76,0,0,1-.4.2.52.52,0,0,1-.4-.2.76.76,0,0,1-.2-.4v-.2h1.2V39c-.1.1-.1.3-.2.4Zm8.8-2.9a.3.3,0,1,1,.3-.3A.27.27,0,0,1,145.65,36.5Z" style="fill:#fff"/><path d="M127.05,23.5a.76.76,0,0,0,.8-.6h4.2l1.5,1.3a6,6,0,0,0-2.9,3.7.52.52,0,0,0,.2.4h.1c.1,0,.3-.1.3-.2a5.34,5.34,0,0,1,5.1-4,5.06,5.06,0,0,1,3.7,1.6.28.28,0,0,0,.4-.4,4.18,4.18,0,0,0-1.5-1.1l1.5-1.3h4.2a1,1,0,0,0,.8.6.9.9,0,0,0,0-1.8.76.76,0,0,0-.8.6h-4.3c-.1,0-.1,0-.2.1l-1.8,1.5a11.63,11.63,0,0,0-1.8-.4v-2a1,1,0,0,0,.6-.8.9.9,0,0,0-1.8,0,.76.76,0,0,0,.6.8v2a5.84,5.84,0,0,0-1.8.4l-1.8-1.5c-.1,0-.1-.1-.2-.1h-4.3a1,1,0,0,0-.8-.6.9.9,0,0,0-.9.9,1,1,0,0,0,.9.9Zm18.6-1.2a.3.3,0,1,1-.3.3A.32.32,0,0,1,145.65,22.3Zm-9.3-1.9a.3.3,0,1,1-.3.3A.32.32,0,0,1,136.35,20.4Zm-9.3,1.9a.3.3,0,1,1-.3.3A.45.45,0,0,1,127.05,22.3Z" style="fill:#fff"/><path d="M174.13,35.28V25.81h-3.54V24.54h8.51v1.27h-3.55v9.47Z" style="fill:#fff"/><path d="M179.82,35.28V27.5H181v1.18a3.46,3.46,0,0,1,.84-1.09,1.45,1.45,0,0,1,.85-.26,2.59,2.59,0,0,1,1.35.42L183.59,29a2,2,0,0,0-1-.28,1.26,1.26,0,0,0-.77.26,1.41,1.41,0,0,0-.5.72,5.36,5.36,0,0,0-.21,1.54v4.07Z" style="fill:#fff"/><path d="M189.9,34.32a4.83,4.83,0,0,1-1.41.88,4.1,4.1,0,0,1-1.45.26,2.81,2.81,0,0,1-2-.63,2.07,2.07,0,0,1-.69-1.6,2.14,2.14,0,0,1,.26-1,2.09,2.09,0,0,1,.68-.76,3,3,0,0,1,1-.43,8.54,8.54,0,0,1,1.17-.2,11.73,11.73,0,0,0,2.35-.46c0-.18,0-.29,0-.34a1.42,1.42,0,0,0-.38-1.13,2.17,2.17,0,0,0-1.5-.45,2.39,2.39,0,0,0-1.37.32,2,2,0,0,0-.65,1.16l-1.29-.18a3.13,3.13,0,0,1,.57-1.33,2.61,2.61,0,0,1,1.17-.79,5.29,5.29,0,0,1,1.76-.27,4.8,4.8,0,0,1,1.62.23,2.15,2.15,0,0,1,.92.59,2.2,2.2,0,0,1,.41.9,8.06,8.06,0,0,1,.06,1.21V32a17.57,17.57,0,0,0,.09,2.33,3,3,0,0,0,.33.93h-1.37A2.7,2.7,0,0,1,189.9,34.32Zm-.11-2.94a9.75,9.75,0,0,1-2.15.49,4.85,4.85,0,0,0-1.15.27,1.12,1.12,0,0,0-.7,1,1.13,1.13,0,0,0,.39.88,1.71,1.71,0,0,0,1.17.35,2.77,2.77,0,0,0,1.36-.33,2.07,2.07,0,0,0,.87-.91,3.24,3.24,0,0,0,.21-1.32Z" style="fill:#fff"/><path d="M193.18,26.06V24.54h1.31v1.52Zm0,9.22V27.5h1.31v7.78Z" style="fill:#fff"/><path d="M196.5,35.28V27.5h1.19v1.11a2.77,2.77,0,0,1,2.47-1.28,3.27,3.27,0,0,1,1.3.25,2.11,2.11,0,0,1,.88.66,2.71,2.71,0,0,1,.41,1,7.47,7.47,0,0,1,.07,1.28v4.78H201.5V30.55a3.67,3.67,0,0,0-.15-1.21,1.24,1.24,0,0,0-.55-.63,1.69,1.69,0,0,0-.91-.24,2.17,2.17,0,0,0-1.46.53,2.65,2.65,0,0,0-.61,2v4.25Z" style="fill:#fff"/></svg>