<svg xmlns="http://www.w3.org/2000/svg" width="182.033" height="182.273" viewBox="0 0 182.033 182.273">
  <g id="Group_116" data-name="Group 116" transform="translate(-1653.324 -767.364)">
    <path id="Path_82" data-name="Path 82" d="M162.468,165.6c-27.891,22.768-114.98,22.768-142.3,0-27.891-22.768-25.045-120.1,0-145.716s117.257-25.614,142.3,0S190.36,142.833,162.468,165.6Z" transform="translate(1653.023 766.959)" fill="#06754b"/>
    <path id="Path_83" data-name="Path 83" d="M92.012,125.353c-25.045,19.922-52.936,30.168-79.12,30.737C-6.461,123.076-2.476,42.819,20.292,19.481,40.783-1.579,105.1-5.564,142.1,7.528,151.209,45.1,132.426,92.908,92.012,125.353Z" transform="translate(1652.898 767.363)" fill="#007e4e"/>
    <g id="photograph" transform="translate(1697.898 820.85)">
      <g id="Group_37" data-name="Group 37" transform="translate(47.428 28.456)">
        <g id="Group_36" data-name="Group 36">
          <path id="Path_90" data-name="Path 90" d="M270.228,204.8a12.969,12.969,0,0,0-6.64,1.9,3.755,3.755,0,0,1,2.371,3.794,4.481,4.481,0,0,1-4.743,4.743,4.836,4.836,0,0,1-3.794-2.371A13.128,13.128,0,0,0,256,219.028a14.228,14.228,0,0,0,28.457,0A14.269,14.269,0,0,0,270.228,204.8Z" transform="translate(-256 -204.8)" fill="#fff"/>
        </g>
      </g>
      <g id="Group_39" data-name="Group 39" transform="translate(0 0)">
        <g id="Group_38" data-name="Group 38">
          <path id="Path_91" data-name="Path 91" d="M90.113,60.685H85.37L81.1,52.623c0-.949-.949-1.423-1.9-1.423H53.593c-.949,0-1.9.474-1.9,1.423l-4.269,8.063H23.714V58.314a2.24,2.24,0,0,0-2.371-2.371H11.857a2.24,2.24,0,0,0-2.371,2.371v2.371H4.743A4.481,4.481,0,0,0,0,65.428v56.913a4.481,4.481,0,0,0,4.743,4.743h85.37a4.481,4.481,0,0,0,4.743-4.743V65.428A4.481,4.481,0,0,0,90.113,60.685ZM14.228,79.656a4.753,4.753,0,0,1-4.743-4.743,4.481,4.481,0,0,1,4.743-4.743,4.743,4.743,0,1,1,0,9.485ZM61.656,117.6A23.714,23.714,0,1,1,85.37,93.885,23.483,23.483,0,0,1,61.656,117.6Z" transform="translate(0 -51.2)" fill="#fff"/>
        </g>
      </g>
    </g>
  </g>
</svg>
