<svg xmlns="http://www.w3.org/2000/svg" xmlns:xlink="http://www.w3.org/1999/xlink" width="154" height="152" viewBox="0 0 154 152">
  <defs>
    <clipPath id="clip-path">
      <rect id="Rectangle_104" data-name="Rectangle 104" width="148" height="146" rx="57" transform="translate(26 53.124)" fill="#fff" stroke="#007e4e" stroke-width="11"/>
    </clipPath>
  </defs>
  <g id="Group_109" data-name="Group 109" transform="translate(-3982 -1374)" style="mix-blend-mode: luminosity;isolation: isolate">
    <rect id="Rectangle_18" data-name="Rectangle 18" width="146" height="144" rx="57" transform="translate(3990 1382)" fill="#fff"/>
    <g id="Mask_Group_7" data-name="Mask Group 7" transform="translate(3956 1320.876)" opacity="0.66" clip-path="url(#clip-path)">
      <g id="money_1_" data-name="money (1)" transform="translate(74.434 113.053)">
        <path id="Path_163" data-name="Path 163" d="M0,396.649V378.308L48.461,367.93l48.461,10.377v18.342l-48.461,9.17Zm0,0" transform="translate(0 -329.008)" fill="#59c230"/>
        <path id="Path_164" data-name="Path 164" d="M0,396.649V378.308L48.461,367.93l48.461,10.377v18.342l-48.461,9.17Zm0,0" transform="translate(0 -311.643)" fill="#59c230"/>
        <path id="Path_165" data-name="Path 165" d="M0,319.879H96.922v21.588H0Zm0,0" transform="translate(0 -289.447)" fill="#9bd981"/>
        <path id="Path_166" data-name="Path 166" d="M0,319.879H96.922v15.436H0Zm0,0" transform="translate(0 -260.891)" fill="#9bd981"/>
        <path id="Path_167" data-name="Path 167" d="M0,455.852v13.595c0,4.62,1.943,8.364,4.34,8.364H92.583c2.4,0,4.34-3.744,4.34-8.364V455.852Zm0,0" transform="translate(0 -374.498)" fill="#9bd981"/>
        <path id="Path_168" data-name="Path 168" d="M14.761,392.441,0,394.159V407.45l14.761,1.518Zm0,0" transform="translate(0 -342.21)" fill="#489f24"/>
        <path id="Path_169" data-name="Path 169" d="M14.761,392.441,0,394.159V407.45l14.761,1.518Zm0,0" transform="translate(0 -324.845)" fill="#489f24"/>
        <path id="Path_170" data-name="Path 170" d="M0,319.879H14.761v21.588H0Zm0,0" transform="translate(0 -289.447)" fill="#59c230"/>
        <path id="Path_171" data-name="Path 171" d="M0,319.879H14.761v15.436H0Zm0,0" transform="translate(0 -260.891)" fill="#59c230"/>
        <path id="Path_172" data-name="Path 172" d="M92.119,0H4.8C2.151,0,0,1.058,0,2.363V31.928c0,1.3,2.15,2.363,4.8,2.363H92.12c2.652,0,4.8-1.058,4.8-2.363V2.363c0-1.3-2.151-2.363-4.8-2.363Zm0,0" transform="translate(0)" fill="#59c230"/>
        <path id="Path_173" data-name="Path 173" d="M8.359,31.928V2.363c0-1.3,2.866-2.363,6.4-2.363H6.4C2.866,0,0,1.058,0,2.363V31.928c0,1.3,2.866,2.363,6.4,2.363h8.359C11.225,34.291,8.359,33.233,8.359,31.928Zm0,0" transform="translate(0 0)" fill="#489f24"/>
        <path id="Path_174" data-name="Path 174" d="M14.761,455.852H0v13.595c0,4.62,2.589,8.364,5.784,8.364h8.977Zm0,0" transform="translate(0 -374.498)" fill="#59c230"/>
      </g>
    </g>
    <g id="Rectangle_11" data-name="Rectangle 11" transform="translate(3990 1382)" fill="none" stroke="#007e4e" stroke-width="11">
      <rect width="146" height="144" rx="57" stroke="none"/>
      <rect x="5.5" y="5.5" width="135" height="133" rx="51.5" fill="none"/>
    </g>
    <text id="training" transform="translate(4063 1486)" fill="#333" font-size="18" font-family="ArialRoundedMTBold, Arial Rounded MT"><tspan x="-45.009" y="0">TRAINING</tspan></text>
    <circle id="Ellipse_20" data-name="Ellipse 20" cx="23" cy="23" r="23" transform="translate(3989 1374)" fill="#007e4e"/>
    <text id="_4" data-name="4" transform="translate(4005 1406)" fill="#fff" font-size="24" font-family="ArialRoundedMTBold, Arial Rounded MT"><tspan x="0" y="0">4</tspan></text>
    <g id="gym" transform="translate(4034.545 1448.248) rotate(-45)">
      <path id="Path_120" data-name="Path 120" d="M140.172,70.086h20.5v10.1h-20.5Zm0,0" transform="translate(-121.948 -60.539)" fill="#003722"/>
      <path id="Path_121" data-name="Path 121" d="M405.586,48.953h-1.422v14.9h1.422a2.98,2.98,0,0,0,2.977-2.978V51.93a2.98,2.98,0,0,0-2.977-2.977Zm0,0" transform="translate(-351.619 -42.154)" fill="#003722"/>
      <path id="Path_122" data-name="Path 122" d="M323.476.5h-5.647V28.7h5.647a2.98,2.98,0,0,0,2.977-2.977V3.477A2.98,2.98,0,0,0,323.476.5Zm0,0" transform="translate(-276.507 0)" fill="#003722"/>
      <path id="Path_123" data-name="Path 123" d="M53.836,3.477V25.719A2.98,2.98,0,0,0,56.813,28.7H62.46V.5H56.813a2.98,2.98,0,0,0-2.977,2.977Zm0,0" transform="translate(-46.837)" fill="#003722"/>
      <path id="Path_124" data-name="Path 124" d="M0,51.93v8.943a2.98,2.98,0,0,0,2.977,2.978H4.4v-14.9H2.977A2.98,2.98,0,0,0,0,51.93Zm0,0" transform="translate(0 -42.154)" fill="#003722"/>
    </g>
  </g>
</svg>
