<svg id="Layer_1" data-name="Layer 1" xmlns="http://www.w3.org/2000/svg" viewBox="0 0 83.3 83.4"><g id="Group_56" data-name="Group 56"><path id="Path_92" data-name="Path 92" d="M74.2,75.6C61.4,86,21.6,86,9.1,75.6c-12.8-10.4-11.5-55,0-66.7s53.7-11.7,65.1,0S87,65.2,74.2,75.6Z" style="fill:#cececd"/><path id="Path_93" data-name="Path 93" d="M41.9,57.4C30.4,66.5,17.7,71.2,5.7,71.5-3.2,56.4-1.3,19.7,9.1,9,18.5-.6,47.9-2.5,64.9,3.5,69,20.6,60.4,42.5,41.9,57.4Z" style="fill:#ddd"/></g><g style="isolation:isolate"><path d="M21.69,59.29a6.66,6.66,0,0,1,1.62-4.75,5.55,5.55,0,0,1,4.2-1.71,5.87,5.87,0,0,1,3,.8,5.36,5.36,0,0,1,2.07,2.25,7.34,7.34,0,0,1,.7,3.27,7.14,7.14,0,0,1-.74,3.31,5.15,5.15,0,0,1-2.12,2.21,6,6,0,0,1-2.95.75,5.73,5.73,0,0,1-3.08-.83,5.39,5.39,0,0,1-2.05-2.26A6.94,6.94,0,0,1,21.69,59.29Zm1.66,0a4.88,4.88,0,0,0,1.18,3.47,4.14,4.14,0,0,0,6,0,5.19,5.19,0,0,0,1.17-3.63,6.19,6.19,0,0,0-.5-2.6,3.79,3.79,0,0,0-1.47-1.71,4,4,0,0,0-2.17-.61,4.12,4.12,0,0,0-2.94,1.17A5.25,5.25,0,0,0,23.35,59.31Z" style="fill:#333"/><path d="M35.21,68.59V56.4h1.36v1.14a3.31,3.31,0,0,1,1.09-1,2.91,2.91,0,0,1,1.47-.34,3.47,3.47,0,0,1,2,.58,3.57,3.57,0,0,1,1.3,1.64,5.88,5.88,0,0,1,.44,2.32,6,6,0,0,1-.48,2.44A3.74,3.74,0,0,1,41,64.84a3.62,3.62,0,0,1-1.94.57,2.79,2.79,0,0,1-1.34-.31,3.1,3.1,0,0,1-1-.8v4.29Zm1.35-7.73a3.82,3.82,0,0,0,.69,2.51,2.13,2.13,0,0,0,1.67.82,2.2,2.2,0,0,0,1.71-.85,4,4,0,0,0,.7-2.61,3.91,3.91,0,0,0-.69-2.52A2.07,2.07,0,0,0,39,57.37a2.16,2.16,0,0,0-1.69.89A4,4,0,0,0,36.56,60.86Z" style="fill:#333"/><path d="M50.7,62.38l1.54.19a3.75,3.75,0,0,1-1.35,2.1,4.05,4.05,0,0,1-2.52.74,4,4,0,0,1-3.07-1.19,4.61,4.61,0,0,1-1.13-3.34,4.88,4.88,0,0,1,1.14-3.45,3.88,3.88,0,0,1,3-1.23,3.78,3.78,0,0,1,2.89,1.2,4.8,4.8,0,0,1,1.12,3.39c0,.09,0,.22,0,.4H45.71a3.35,3.35,0,0,0,.82,2.22,2.43,2.43,0,0,0,1.84.78,2.3,2.3,0,0,0,1.41-.44A2.88,2.88,0,0,0,50.7,62.38ZM45.79,60h4.92a3,3,0,0,0-.56-1.67,2.3,2.3,0,0,0-1.85-.86,2.37,2.37,0,0,0-1.73.69A2.71,2.71,0,0,0,45.79,60Z" style="fill:#333"/><path d="M54.12,65.21V56.4h1.34v1.25a3.17,3.17,0,0,1,2.81-1.45,3.66,3.66,0,0,1,1.46.29,2.26,2.26,0,0,1,1,.75,2.8,2.8,0,0,1,.47,1.1,9.28,9.28,0,0,1,.08,1.45v5.42H59.79V59.85a3.86,3.86,0,0,0-.18-1.36,1.42,1.42,0,0,0-.62-.73,2,2,0,0,0-1-.26,2.47,2.47,0,0,0-1.65.6,3,3,0,0,0-.69,2.3v4.81Z" style="fill:#333"/></g><path d="M49.49,26.3H38.93l-2.3-1.88H28.48V41a2.52,2.52,0,0,0,2.4,2.51H49.07a2.35,2.35,0,0,0,2.3-1.78l3.35-12.12H49.49ZM31.09,42H31a.93.93,0,0,1-.94-.94V26h6.16l2.3,1.78H48v1.88H35.48L32.45,41A2,2,0,0,1,31.09,42ZM52.73,31.21,49.91,41.35a.88.88,0,0,1-.84.63H33.6c.11-.1.11-.31.21-.52l2.82-10.25Z" style="fill:#329fc2;stroke:#329fc2;stroke-miterlimit:10;stroke-width:0.75px"/><path d="M47.4,20.45a3.8,3.8,0,0,1,3.66,2.82l-.94-.73-.94,1.25L52,25.88l2.82-2.09-.94-1.25-1.25.83a5.39,5.39,0,0,0-5.23-4.49,5.28,5.28,0,0,0-5.33,5.33h1.57A3.68,3.68,0,0,1,47.4,20.45Z" style="fill:#329fc2;stroke:#329fc2;stroke-miterlimit:10;stroke-width:0.75px"/><path d="M38.1,40.41V38.85h9.3v1.56Z" style="fill:#329fc2;stroke:#329fc2;stroke-miterlimit:10;stroke-width:0.75px"/></svg>