<?xml version="1.0" encoding="utf-8"?>
<!-- Generator: Adobe Illustrator 24.2.1, SVG Export Plug-In . SVG Version: 6.00 Build 0)  -->
<svg version="1.1" id="Layer_1" xmlns="http://www.w3.org/2000/svg" xmlns:xlink="http://www.w3.org/1999/xlink" x="0px" y="0px"
	 viewBox="0 0 154 152" style="enable-background:new 0 0 154 152;" xml:space="preserve">
<style type="text/css">
	.st0{fill:#FFFFFF;}
	.st1{opacity:0.66;clip-path:url(#SVGID_2_);}
	.st2{fill:#59C230;}
	.st3{fill:#9BD981;}
	.st4{fill:#489F24;}
	.st5{fill:none;}
	.st6{fill:none;stroke:#007E4E;stroke-width:11;}
	.st7{enable-background:new    ;}
	.st8{fill:#333333;}
	.st9{fill:#007E4E;}
	.st10{font-family:'ArialMT';}
	.st11{font-size:24px;}
	.st12{fill:#003722;}
</style>
<g>
	<path id="Rectangle_18" class="st0" d="M65,8h32c31.5,0,57,25.5,57,57v30c0,31.5-25.5,57-57,57H65c-31.5,0-57-25.5-57-57V65
		C8,33.5,33.5,8,65,8z"/>
	<g>
		<defs>
			<path id="SVGID_1_" d="M57,0h34c31.5,0,57,25.5,57,57v32c0,31.5-25.5,57-57,57H57c-31.5,0-57-25.5-57-57V57C0,25.5,25.5,0,57,0z"
				/>
		</defs>
		<clipPath id="SVGID_2_">
			<use xlink:href="#SVGID_1_"  style="overflow:visible;"/>
		</clipPath>
		<g id="Mask_Group_7" transform="translate(3956 1320.876)" class="st1">
			<g id="money_1_" transform="translate(74.434 113.053)">
				<path id="Path_163" class="st2" d="M-3982-1306.4v-18.3l48.5-10.4l48.5,10.4v18.3l-48.5,9.2L-3982-1306.4z"/>
				<path id="Path_164" class="st2" d="M-3982-1289v-18.3l48.5-10.4l48.5,10.4v18.3l-48.5,9.2L-3982-1289z"/>
				<path id="Path_165" class="st3" d="M-3982-1343.6h96.9v21.6h-96.9V-1343.6z"/>
				<path id="Path_166" class="st3" d="M-3982-1315h96.9v15.4h-96.9V-1315z"/>
				<path id="Path_167" class="st3" d="M-3982-1292.6v13.6c0,4.6,1.9,8.4,4.3,8.4h88.2c2.4,0,4.3-3.7,4.3-8.4v-13.6H-3982z"/>
				<path id="Path_168" class="st4" d="M-3967.2-1323.8l-14.8,1.7v13.3l14.8,1.5V-1323.8z"/>
				<path id="Path_169" class="st4" d="M-3967.2-1306.4l-14.8,1.7v13.3l14.8,1.5V-1306.4z"/>
				<path id="Path_170" class="st2" d="M-3982-1343.6h14.8v21.6h-14.8V-1343.6z"/>
				<path id="Path_171" class="st2" d="M-3982-1315h14.8v15.4h-14.8V-1315z"/>
				<path id="Path_172" class="st2" d="M-3889.9-1374h-87.3c-2.6,0-4.8,1.1-4.8,2.4v29.6c0,1.3,2.1,2.4,4.8,2.4h87.3
					c2.7,0,4.8-1.1,4.8-2.4v-29.6C-3885.1-1372.9-3887.2-1374-3889.9-1374L-3889.9-1374z"/>
				<path id="Path_173" class="st4" d="M-3973.6-1342.1v-29.6c0-1.3,2.9-2.4,6.4-2.4h-8.4c-3.5,0-6.4,1.1-6.4,2.4v29.6
					c0,1.3,2.9,2.4,6.4,2.4h8.4C-3970.8-1339.7-3973.6-1340.8-3973.6-1342.1z"/>
				<path id="Path_174" class="st2" d="M-3967.2-1292.6h-14.8v13.6c0,4.6,2.6,8.4,5.8,8.4h9V-1292.6z"/>
			</g>
		</g>
	</g>
	<g id="Rectangle_11" transform="translate(3990 1382)">
		<path class="st5" d="M-3925-1374h32c31.5,0,57,25.5,57,57v30c0,31.5-25.5,57-57,57h-32c-31.5,0-57-25.5-57-57v-30
			C-3982-1348.5-3956.5-1374-3925-1374z"/>
		<path class="st6" d="M-3925-1368.5h32c28.4,0,51.5,23.1,51.5,51.5v30c0,28.4-23.1,51.5-51.5,51.5h-32c-28.4,0-51.5-23.1-51.5-51.5
			v-30C-3976.5-1345.4-3953.4-1368.5-3925-1368.5z"/>
	</g>
	<g class="st7">
		<path class="st8" d="M40.7,112v-11.4h-4.2v-1.5h10.2v1.5h-4.3V112H40.7z"/>
		<path class="st8" d="M48.4,112V99.1h5.7c1.1,0,2,0.1,2.6,0.3s1.1,0.6,1.4,1.2s0.5,1.2,0.5,1.9c0,0.9-0.3,1.7-0.9,2.3
			s-1.5,1-2.7,1.2c0.5,0.2,0.8,0.4,1,0.6c0.5,0.5,1,1,1.4,1.7l2.2,3.5h-2.1l-1.7-2.7c-0.5-0.8-0.9-1.4-1.2-1.8s-0.6-0.7-0.9-0.9
			s-0.5-0.3-0.8-0.3c-0.2,0-0.5-0.1-0.9-0.1h-2v5.7H48.4z M50.1,104.8h3.7c0.8,0,1.4-0.1,1.8-0.2s0.8-0.4,1-0.8s0.3-0.7,0.3-1.2
			c0-0.6-0.2-1.1-0.7-1.5s-1.1-0.6-2.1-0.6h-4.1V104.8z"/>
		<path class="st8" d="M60,112l4.9-12.9h1.8L72,112h-1.9l-1.5-3.9h-5.4l-1.4,3.9H60z M63.7,106.7H68l-1.3-3.6
			c-0.4-1.1-0.7-2-0.9-2.7c-0.2,0.8-0.4,1.6-0.7,2.5L63.7,106.7z"/>
		<path class="st8" d="M73.7,112V99.1h1.7V112H73.7z"/>
		<path class="st8" d="M78.4,112V99.1h1.7l6.8,10.1V99.1h1.6V112h-1.7L80,101.9V112H78.4z"/>
		<path class="st8" d="M91.7,112V99.1h1.7V112H91.7z"/>
		<path class="st8" d="M96.4,112V99.1h1.7l6.8,10.1V99.1h1.6V112h-1.7L98,101.9V112H96.4z"/>
		<path class="st8" d="M115.4,106.9v-1.5l5.5,0v4.8c-0.8,0.7-1.7,1.2-2.6,1.5c-0.9,0.3-1.8,0.5-2.7,0.5c-1.3,0-2.4-0.3-3.5-0.8
			c-1-0.5-1.8-1.3-2.3-2.4s-0.8-2.2-0.8-3.4c0-1.3,0.3-2.4,0.8-3.5c0.5-1.1,1.3-1.9,2.3-2.4s2.1-0.8,3.4-0.8c0.9,0,1.8,0.2,2.5,0.5
			c0.8,0.3,1.3,0.7,1.8,1.3s0.8,1.2,1,2.1l-1.5,0.4c-0.2-0.7-0.4-1.2-0.7-1.5s-0.7-0.7-1.2-0.9s-1.1-0.3-1.8-0.3
			c-0.8,0-1.5,0.1-2,0.4c-0.6,0.2-1,0.5-1.4,0.9s-0.6,0.8-0.8,1.3c-0.3,0.8-0.5,1.7-0.5,2.6c0,1.1,0.2,2.1,0.6,2.9s1,1.3,1.7,1.7
			s1.6,0.6,2.4,0.6c0.7,0,1.5-0.1,2.2-0.4s1.2-0.6,1.6-0.9v-2.4H115.4z"/>
	</g>
	<circle id="Ellipse_20" class="st9" cx="30" cy="23" r="23"/>
	<text transform="matrix(1 0 0 1 23 32)" class="st0 st10 st11">4</text>
	<g id="gym" transform="translate(4034.545 1448.248) rotate(-45)">
		<path id="Path_120" class="st12" d="M-1825.9-3777.7h20.5v10.1h-20.5V-3777.7z"/>
		<path id="Path_121" class="st12" d="M-1790.2-3780.5h-1.4v14.9h1.4c1.6,0,3-1.3,3-3v-8.9
			C-1787.2-3779.1-1788.5-3780.5-1790.2-3780.5z"/>
		<path id="Path_122" class="st12" d="M-1797.2-3786.8h-5.6v28.2h5.6c1.6,0,3-1.3,3-3v-22.2
			C-1794.2-3785.4-1795.5-3786.8-1797.2-3786.8z"/>
		<path id="Path_123" class="st12" d="M-1837.1-3783.8v22.2c0,1.6,1.3,3,3,3h5.6v-28.2h-5.6
			C-1835.8-3786.8-1837.1-3785.4-1837.1-3783.8z"/>
		<path id="Path_124" class="st12" d="M-1844.1-3777.5v8.9c0,1.6,1.3,3,3,3h1.4v-14.9h-1.4
			C-1842.8-3780.5-1844.1-3779.1-1844.1-3777.5z"/>
	</g>
</g>
</svg>
