<?xml version="1.0" encoding="utf-8"?>
<!-- Generator: Adobe Illustrator 24.2.1, SVG Export Plug-In . SVG Version: 6.00 Build 0)  -->
<svg version="1.1" id="Layer_1" xmlns="http://www.w3.org/2000/svg" xmlns:xlink="http://www.w3.org/1999/xlink" x="0px" y="0px"
	 viewBox="0 0 83.3 83.4" style="enable-background:new 0 0 83.3 83.4;" xml:space="preserve">
<style type="text/css">
	.st0{fill:#CDCDCD;}
	.st1{fill:#DDDDDD;}
	.st2{fill:#333333;}
	.st3{font-family:'ArialMT';}
	.st4{font-size:17px;}
	.st5{fill:#309FC2;}
</style>
<g>
	<g id="Group_56" transform="translate(951 633)">
		<path id="Path_92" class="st0" d="M-876.8-557.4c-12.8,10.4-52.6,10.4-65.1,0c-12.8-10.4-11.5-55,0-66.7s53.7-11.7,65.1,0
			S-864-567.8-876.8-557.4z"/>
		<path id="Path_93" class="st1" d="M-909.1-575.6c-11.5,9.1-24.2,13.8-36.2,14.1c-8.9-15.1-7-51.8,3.4-62.5
			c9.4-9.6,38.8-11.5,55.8-5.5C-882-612.4-890.6-590.5-909.1-575.6z"/>
	</g>
	<text transform="matrix(1 0 0 1 20.8653 65.214)" class="st2 st3 st4">Open</text>
	<g>
		<path class="st5" d="M49.2,27.8H39.1L36.9,26h-7.8v15.9c0,1.3,1,2.3,2.3,2.4h17.4l0,0c1,0,2-0.7,2.2-1.7L54.2,31h-5L49.2,27.8z
			 M31.6,42.8h-0.1l0,0c-0.5,0-0.9-0.4-0.9-0.9V27.5h5.9l2.2,1.7h9.1V31h-12l-2.9,10.9C32.6,42.4,32.1,42.7,31.6,42.8z M52.3,32.5
			l-2.7,9.7c-0.1,0.4-0.5,0.6-0.8,0.6l0,0H34c0.1-0.1,0.1-0.3,0.2-0.5l2.7-9.8L52.3,32.5L52.3,32.5z"/>
		<path class="st5" d="M47.2,22.2c1.6,0,3.1,1.1,3.5,2.7l-0.9-0.7l-0.9,1.2l2.7,2l2.7-2l-0.9-1.2L52.2,25c-0.4-2.4-2.5-4.3-5-4.3
			c-2.8,0-5.1,2.2-5.1,5.1h1.5C43.6,23.7,45.2,22.2,47.2,22.2z"/>
		<path class="st5" d="M38.3,41.3v-1.5h8.9v1.5H38.3z"/>
	</g>
</g>
</svg>
