<?xml version="1.0" encoding="utf-8"?>
<!-- Generator: Adobe Illustrator 24.2.1, SVG Export Plug-In . SVG Version: 6.00 Build 0)  -->
<svg version="1.1" id="Layer_1" xmlns="http://www.w3.org/2000/svg" xmlns:xlink="http://www.w3.org/1999/xlink" x="0px" y="0px"
	 viewBox="0 0 155 152" style="enable-background:new 0 0 155 152;" xml:space="preserve">
<style type="text/css">
	.st0{fill:#FFFFFF;}
	.st1{opacity:0.66;clip-path:url(#SVGID_2_);}
	.st2{fill:#59C230;}
	.st3{fill:#9BD981;}
	.st4{fill:#489F24;}
	.st5{fill:none;}
	.st6{fill:none;stroke:#007E4E;stroke-width:11;}
	.st7{enable-background:new    ;}
	.st8{fill:#333333;}
	.st9{fill:#007E4E;}
	.st10{font-family:'ArialMT';}
	.st11{font-size:24px;}
	.st12{fill:#003722;}
</style>
<g>
	<path id="Rectangle_18" class="st0" d="M66,8h32c31.5,0,57,25.5,57,57v30c0,31.5-25.5,57-57,57H66c-31.5,0-57-25.5-57-57V65
		C9,33.5,34.5,8,66,8z"/>
	<g>
		<defs>
			<path id="SVGID_1_" d="M57,0h34c31.5,0,57,25.5,57,57v32c0,31.5-25.5,57-57,57H57c-31.5,0-57-25.5-57-57V57C0,25.5,25.5,0,57,0z"
				/>
		</defs>
		<clipPath id="SVGID_2_">
			<use xlink:href="#SVGID_1_"  style="overflow:visible;"/>
		</clipPath>
		<g id="Mask_Group_6" transform="translate(3955 1320.876)" class="st1">
			<g id="money_1_" transform="translate(74.434 113.053)">
				<path id="Path_151" class="st2" d="M-3981-1306.4v-18.3l48.5-10.4l48.5,10.4v18.3l-48.5,9.2L-3981-1306.4z"/>
				<path id="Path_152" class="st2" d="M-3981-1289v-18.3l48.5-10.4l48.5,10.4v18.3l-48.5,9.2L-3981-1289z"/>
				<path id="Path_153" class="st3" d="M-3981-1343.6h96.9v21.6h-96.9V-1343.6z"/>
				<path id="Path_154" class="st3" d="M-3981-1315h96.9v15.4h-96.9V-1315z"/>
				<path id="Path_155" class="st3" d="M-3981-1292.6v13.6c0,4.6,1.9,8.4,4.3,8.4h88.2c2.4,0,4.3-3.7,4.3-8.4v-13.6H-3981z"/>
				<path id="Path_156" class="st4" d="M-3966.2-1323.8l-14.8,1.7v13.3l14.8,1.5V-1323.8z"/>
				<path id="Path_157" class="st4" d="M-3966.2-1306.4l-14.8,1.7v13.3l14.8,1.5V-1306.4z"/>
				<path id="Path_158" class="st2" d="M-3981-1343.6h14.8v21.6h-14.8V-1343.6z"/>
				<path id="Path_159" class="st2" d="M-3981-1315h14.8v15.4h-14.8V-1315z"/>
				<path id="Path_160" class="st2" d="M-3888.9-1374h-87.3c-2.6,0-4.8,1.1-4.8,2.4v29.6c0,1.3,2.1,2.4,4.8,2.4h87.3
					c2.7,0,4.8-1.1,4.8-2.4v-29.6C-3884.1-1372.9-3886.2-1374-3888.9-1374L-3888.9-1374z"/>
				<path id="Path_161" class="st4" d="M-3972.6-1342.1v-29.6c0-1.3,2.9-2.4,6.4-2.4h-8.4c-3.5,0-6.4,1.1-6.4,2.4v29.6
					c0,1.3,2.9,2.4,6.4,2.4h8.4C-3969.8-1339.7-3972.6-1340.8-3972.6-1342.1z"/>
				<path id="Path_162" class="st2" d="M-3966.2-1292.6h-14.8v13.6c0,4.6,2.6,8.4,5.8,8.4h9V-1292.6z"/>
			</g>
		</g>
	</g>
	<g id="Rectangle_11" transform="translate(3990 1382)">
		<path class="st5" d="M-3924-1374h32c31.5,0,57,25.5,57,57v30c0,31.5-25.5,57-57,57h-32c-31.5,0-57-25.5-57-57v-30
			C-3981-1348.5-3955.5-1374-3924-1374z"/>
		<path class="st6" d="M-3924-1368.5h32c28.4,0,51.5,23.1,51.5,51.5v30c0,28.4-23.1,51.5-51.5,51.5h-32c-28.4,0-51.5-23.1-51.5-51.5
			v-30C-3975.5-1345.4-3952.4-1368.5-3924-1368.5z"/>
	</g>
	<g class="st7">
		<path class="st8" d="M31,112l4.9-12.9h1.8L43,112h-1.9l-1.5-3.9h-5.4l-1.4,3.9H31z M34.7,106.7h4.4l-1.3-3.6
			c-0.4-1.1-0.7-2-0.9-2.7c-0.2,0.8-0.4,1.6-0.7,2.5L34.7,106.7z"/>
		<path class="st8" d="M44.4,112V99.1h1.7l6.8,10.1V99.1h1.6V112h-1.7L46,101.9V112H44.4z"/>
		<path class="st8" d="M57.4,112V99.1h1.7l6.8,10.1V99.1h1.6V112h-1.7L59,101.9V112H57.4z"/>
		<path class="st8" d="M69.9,105.7c0-2.1,0.6-3.8,1.7-5c1.1-1.2,2.6-1.8,4.4-1.8c1.2,0,2.3,0.3,3.2,0.9s1.7,1.4,2.2,2.4
			s0.8,2.2,0.8,3.5c0,1.3-0.3,2.5-0.8,3.5s-1.3,1.8-2.2,2.3c-1,0.5-2,0.8-3.1,0.8c-1.2,0-2.3-0.3-3.3-0.9s-1.7-1.4-2.2-2.4
			S69.9,106.9,69.9,105.7z M71.6,105.8c0,1.6,0.4,2.8,1.3,3.7c0.8,0.9,1.9,1.3,3.1,1.3c1.3,0,2.3-0.5,3.2-1.4s1.2-2.2,1.2-3.8
			c0-1-0.2-2-0.5-2.7c-0.4-0.8-0.9-1.4-1.6-1.8c-0.7-0.4-1.4-0.6-2.3-0.6c-1.2,0-2.2,0.4-3.1,1.2C72.1,102.4,71.6,103.8,71.6,105.8z
			"/>
		<path class="st8" d="M87.7,112v-11.4h-4.2v-1.5h10.2v1.5h-4.3V112H87.7z"/>
		<path class="st8" d="M92.6,112l4.9-12.9h1.8l5.3,12.9h-1.9l-1.5-3.9h-5.4l-1.4,3.9H92.6z M96.4,106.7h4.4l-1.3-3.6
			c-0.4-1.1-0.7-2-0.9-2.7c-0.2,0.8-0.4,1.6-0.7,2.5L96.4,106.7z"/>
		<path class="st8" d="M108,112v-11.4h-4.2v-1.5H114v1.5h-4.3V112H108z"/>
		<path class="st8" d="M115.8,112V99.1h9.3v1.5h-7.6v3.9h7.1v1.5h-7.1v4.4h7.9v1.5H115.8z"/>
	</g>
	<circle id="Ellipse_20" class="st9" cx="31" cy="23" r="23"/>
	<text transform="matrix(1 0 0 1 24 32)" class="st0 st10 st11">3</text>
	<g id="interface" transform="translate(4038.667 1414)">
		<g id="Group_67">
			<path id="Path_100" class="st12" d="M-3979.6-1365.5h1.4v5.7c0,0.8,0.6,1.4,1.4,1.4c0.8,0,1.4-0.6,1.4-1.4c0,0,0,0,0,0v-5.7h1.4
				c0.8,0,1.4-0.6,1.4-1.4c0,0,0,0,0,0v-1.4h5.7c0.8,0,1.4-0.6,1.4-1.4c0-0.8-0.6-1.4-1.4-1.4c0,0,0,0,0,0h-5.7v-1.4
				c0-0.8-0.6-1.4-1.4-1.4c0,0,0,0,0,0h-5.7c-0.8,0-1.4,0.6-1.4,1.4c0,0,0,0,0,0v5.7C-3981-1366.1-3980.4-1365.5-3979.6-1365.5
				C-3979.6-1365.5-3979.6-1365.5-3979.6-1365.5z M-3978.2-1371.2h2.8v2.8h-2.8V-1371.2z M-3934.1-1374h-5.7c-0.8,0-1.4,0.6-1.4,1.4
				c0,0,0,0,0,0v1.4h-5.7c-0.8,0-1.4,0.6-1.4,1.4c0,0.8,0.6,1.4,1.4,1.4c0,0,0,0,0,0h5.7v1.4c0,0.8,0.6,1.4,1.4,1.4c0,0,0,0,0,0h1.4
				v5.7c0,0.8,0.6,1.4,1.4,1.4s1.4-0.6,1.4-1.4l0,0v-5.7h1.4c0.8,0,1.4-0.6,1.4-1.4c0,0,0,0,0,0v-5.7
				C-3932.7-1373.4-3933.3-1374-3934.1-1374C-3934.1-1374-3934.1-1374-3934.1-1374z M-3935.5-1368.3h-2.8v-2.8h2.8V-1368.3z
				 M-3934.1-1334.2h-1.4v-5.7c0-0.8-0.6-1.4-1.4-1.4s-1.4,0.6-1.4,1.4v5.7h-1.4c-0.8,0-1.4,0.6-1.4,1.4c0,0,0,0,0,0v1.4h-5.7
				c-0.8,0-1.4,0.6-1.4,1.4c0,0.8,0.6,1.4,1.4,1.4h5.7v1.4c0,0.8,0.6,1.4,1.4,1.4c0,0,0,0,0,0h5.7c0.8,0,1.4-0.6,1.4-1.4
				c0,0,0,0,0,0v-5.7C-3932.7-1333.5-3933.3-1334.2-3934.1-1334.2C-3934.1-1334.2-3934.1-1334.2-3934.1-1334.2L-3934.1-1334.2z
				 M-3935.5-1328.5h-2.8v-2.8h2.8V-1328.5z M-3961.1-1368.3h8.5c0.8,0,1.4-0.6,1.4-1.4c0-0.8-0.6-1.4-1.4-1.4c0,0,0,0,0,0h-8.5
				c-0.8,0-1.4,0.6-1.4,1.4C-3962.5-1369-3961.9-1368.3-3961.1-1368.3C-3961.1-1368.3-3961.1-1368.3-3961.1-1368.3z M-3952.6-1331.3
				h-8.5c-0.8,0-1.4,0.6-1.4,1.4c0,0.8,0.6,1.4,1.4,1.4h8.5c0.8,0,1.4-0.6,1.4-1.4C-3951.2-1330.7-3951.8-1331.3-3952.6-1331.3z
				 M-3966.8-1331.3h-5.7v-1.4c0-0.8-0.6-1.4-1.4-1.4c0,0,0,0,0,0h-1.4v-5.7c0-0.8-0.6-1.4-1.4-1.4c-0.8,0-1.4,0.6-1.4,1.4
				c0,0,0,0,0,0v5.7h-1.4c-0.8,0-1.4,0.6-1.4,1.4c0,0,0,0,0,0v5.7c0,0.8,0.6,1.4,1.4,1.4c0,0,0,0,0,0h5.7c0.8,0,1.4-0.6,1.4-1.4
				c0,0,0,0,0,0v-1.4h5.7c0.8,0,1.4-0.6,1.4-1.4S-3966.1-1331.3-3966.8-1331.3L-3966.8-1331.3L-3966.8-1331.3z M-3975.3-1328.5h-2.8
				v-2.8h2.8V-1328.5z M-3976.8-1355.5c-0.8,0-1.4,0.6-1.4,1.4c0,0,0,0,0,0v8.5c0,0.8,0.6,1.4,1.4,1.4s1.4-0.6,1.4-1.4v-8.5
				C-3975.3-1354.9-3976-1355.5-3976.8-1355.5C-3976.8-1355.5-3976.8-1355.5-3976.8-1355.5z M-3936.9-1344.2c0.8,0,1.4-0.6,1.4-1.4
				c0,0,0,0,0,0v-8.5c0-0.8-0.6-1.4-1.4-1.4s-1.4,0.6-1.4,1.4v8.5C-3938.3-1344.8-3937.7-1344.2-3936.9-1344.2
				C-3936.9-1344.2-3936.9-1344.2-3936.9-1344.2z M-3952.6-1334.3c6.3,0,11.3-5.1,11.3-11.3c0-6.3-5.1-11.3-11.3-11.3c0,0,0,0,0,0
				v-7.1c0-0.8-0.6-1.4-1.4-1.4c0,0,0,0,0,0h-17c-0.8,0-1.4,0.6-1.4,1.4c0,0,0,0,0,0v17c0,0.8,0.6,1.4,1.4,1.4c0,0,0,0,0,0h7.1
				C-3963.9-1339.3-3958.8-1334.3-3952.6-1334.3z M-3969.6-1348.4v-14.2h14.2v6.1c-4,1-7.1,4.1-8.1,8.1H-3969.6z M-3955.4-1353.6
				v5.1h-5.1C-3959.7-1350.8-3957.8-1352.7-3955.4-1353.6z M-3954-1345.6c0.8,0,1.4-0.6,1.4-1.4l0,0v-7.1c4.7,0,8.5,3.8,8.5,8.5
				c0,4.7-3.8,8.5-8.5,8.5s-8.5-3.8-8.5-8.5L-3954-1345.6z"/>
		</g>
	</g>
</g>
</svg>
