<svg id="Layer_1" data-name="Layer 1" xmlns="http://www.w3.org/2000/svg" viewBox="0 0 330 60"><path d="M315.7,60H14.3C6.38,60,0,53,0,44.4V15.6C0,7,6.38,0,14.3,0H315.7C323.62,0,330,7,330,15.6V44.4C330,53,323.62,60,315.7,60Z" style="fill:#0b754c"/><path d="M109.4,34.79h-.1l-6.9-3a.35.35,0,0,1-.2-.26.27.27,0,0,1,.15-.25l3.88-1.69a.34.34,0,0,1,.41.15c.11.15,0,.31-.15.41l-3.22,1.43,6.08,2.66,6.08-2.66-3.22-1.43a.31.31,0,1,1,.26-.56l3.88,1.69a.27.27,0,0,1,.16.25.26.26,0,0,1-.21.26l-6.85,3a0,0,0,0,1,0,0Z" style="fill:#fff"/><path d="M109.4,37.14h-.1l-6.9-3a.33.33,0,0,1-.2-.26v-2.4a.31.31,0,1,1,.61,0v2.2l6.54,2.86,6.54-2.86v-2.2a.31.31,0,0,1,.62,0v2.4a.26.26,0,0,1-.21.26l-6.85,3Z" style="fill:#fff"/><path d="M109.4,37.14a.32.32,0,0,1-.3-.3V34.43a.31.31,0,0,1,.61,0v2.46A.32.32,0,0,1,109.4,37.14Z" style="fill:#fff"/><path d="M110.27,31.21h-1.79a.62.62,0,0,1-.61-.61V26.72h-1.79a.27.27,0,0,1-.25-.21.31.31,0,0,1,0-.31l3.27-3.27a.32.32,0,0,1,.41,0l3.27,3.27a.25.25,0,0,1,0,.31.34.34,0,0,1-.26.21h-1.79V30.6A.54.54,0,0,1,110.27,31.21Zm-3.42-5.06h1.38a.33.33,0,0,1,.3.31v4.19h1.79V26.46a.34.34,0,0,1,.31-.31H112l-2.56-2.55Z" style="fill:#fff"/><path d="M136.77,31.08l1.34-.11a2.94,2.94,0,0,0,.44,1.32,2.52,2.52,0,0,0,1.08.83,4.43,4.43,0,0,0,3.09.08,2.06,2.06,0,0,0,.93-.66,1.56,1.56,0,0,0,.3-.92,1.41,1.41,0,0,0-.29-.88,2.22,2.22,0,0,0-1-.64c-.29-.11-.93-.28-1.91-.52a9.73,9.73,0,0,1-2.07-.67,2.85,2.85,0,0,1-1.15-1,2.46,2.46,0,0,1-.38-1.34,2.79,2.79,0,0,1,.46-1.52A2.86,2.86,0,0,1,139,24a5.2,5.2,0,0,1,2-.37,5.33,5.33,0,0,1,2.11.39,3,3,0,0,1,1.4,1.13,3.28,3.28,0,0,1,.53,1.69l-1.37.1a2.18,2.18,0,0,0-.74-1.53,2.88,2.88,0,0,0-1.87-.52,3,3,0,0,0-1.88.47,1.41,1.41,0,0,0-.59,1.14,1.22,1.22,0,0,0,.42.95,5.77,5.77,0,0,0,2.14.77,13.65,13.65,0,0,1,2.38.68A3.31,3.31,0,0,1,144.87,30a2.7,2.7,0,0,1,.45,1.53,2.93,2.93,0,0,1-.49,1.62,3.3,3.3,0,0,1-1.41,1.18,4.91,4.91,0,0,1-2.07.42,6,6,0,0,1-2.44-.43A3.38,3.38,0,0,1,137.36,33,3.63,3.63,0,0,1,136.77,31.08Z" style="fill:#fff"/><path d="M152.19,34.53V33.39a2.85,2.85,0,0,1-2.47,1.32,3.18,3.18,0,0,1-1.28-.26,2.11,2.11,0,0,1-.89-.67,2.52,2.52,0,0,1-.41-1,7.08,7.08,0,0,1-.08-1.23V26.76h1.32v4.31a8.05,8.05,0,0,0,.08,1.39,1.36,1.36,0,0,0,.53.82,1.62,1.62,0,0,0,1,.3,2.22,2.22,0,0,0,1.12-.31,1.68,1.68,0,0,0,.73-.83,4,4,0,0,0,.22-1.52V26.76h1.32v7.77Z" style="fill:#fff"/><path d="M156.65,34.53h-1.22V23.8h1.31v3.83a2.62,2.62,0,0,1,2.14-1.05,3.27,3.27,0,0,1,1.35.29,2.76,2.76,0,0,1,1.06.81,4.1,4.1,0,0,1,.65,1.27,5.39,5.39,0,0,1,.23,1.58,4.45,4.45,0,0,1-1,3.09,3.08,3.08,0,0,1-2.37,1.09,2.46,2.46,0,0,1-2.16-1.15Zm0-3.94a4.1,4.1,0,0,0,.38,2,1.91,1.91,0,0,0,1.69,1,1.87,1.87,0,0,0,1.49-.76,3.39,3.39,0,0,0,.63-2.23,3.48,3.48,0,0,0-.6-2.25,1.85,1.85,0,0,0-1.46-.73,1.9,1.9,0,0,0-1.5.75A3.31,3.31,0,0,0,156.63,30.59Z" style="fill:#fff"/><path d="M163.78,34.53V26.76H165v1.09a2.68,2.68,0,0,1,1-.92,2.75,2.75,0,0,1,1.38-.35,2.56,2.56,0,0,1,1.42.36,1.9,1.9,0,0,1,.78,1,2.8,2.8,0,0,1,2.4-1.36,2.35,2.35,0,0,1,1.78.64,2.73,2.73,0,0,1,.63,2v5.34H173v-4.9a3.92,3.92,0,0,0-.12-1.14,1.15,1.15,0,0,0-.47-.56,1.46,1.46,0,0,0-.79-.21,1.81,1.81,0,0,0-1.36.55,2.39,2.39,0,0,0-.54,1.74v4.52H168.4V29.48a2.25,2.25,0,0,0-.32-1.32,1.24,1.24,0,0,0-1.06-.44,1.9,1.9,0,0,0-1,.3,1.66,1.66,0,0,0-.68.85,4.87,4.87,0,0,0-.22,1.63v4Z" style="fill:#fff"/><path d="M176.28,25.31V23.8h1.32v1.51Zm0,9.22V26.76h1.32v7.77Z" style="fill:#fff"/><path d="M182.48,33.35l.19,1.17a4.74,4.74,0,0,1-1,.12,2.31,2.31,0,0,1-1.12-.23,1.22,1.22,0,0,1-.55-.6,4.51,4.51,0,0,1-.17-1.55V27.78h-1v-1h1V24.83l1.32-.79v2.72h1.32v1h-1.32v4.55a2.1,2.1,0,0,0,.07.72.51.51,0,0,0,.22.26.94.94,0,0,0,.45.1A3.66,3.66,0,0,0,182.48,33.35Z" style="fill:#fff"/><path d="M187.94,34.53V26.76h1.18v1.09a2.73,2.73,0,0,1,2.36-1.27,2.52,2.52,0,0,1,1.41.36,1.9,1.9,0,0,1,.78,1,2.8,2.8,0,0,1,2.41-1.36,2.37,2.37,0,0,1,1.78.64,2.77,2.77,0,0,1,.62,2v5.34h-1.31v-4.9a3.54,3.54,0,0,0-.13-1.14,1.15,1.15,0,0,0-.47-.56,1.43,1.43,0,0,0-.79-.21,1.82,1.82,0,0,0-1.36.55,2.39,2.39,0,0,0-.54,1.74v4.52h-1.32V29.48a2.25,2.25,0,0,0-.32-1.32,1.24,1.24,0,0,0-1.06-.44,1.9,1.9,0,0,0-1,.3,1.66,1.66,0,0,0-.68.85,4.91,4.91,0,0,0-.21,1.63v4Z" style="fill:#fff"/><path d="M199.94,30.65a4,4,0,0,1,1.2-3.21,3.66,3.66,0,0,1,2.45-.86,3.49,3.49,0,0,1,2.62,1.05,4,4,0,0,1,1,2.91,5.16,5.16,0,0,1-.45,2.36,3.17,3.17,0,0,1-1.31,1.33,3.81,3.81,0,0,1-1.88.48A3.49,3.49,0,0,1,201,33.66,4.18,4.18,0,0,1,199.94,30.65Zm1.36,0a3.26,3.26,0,0,0,.65,2.23,2.16,2.16,0,0,0,3.27,0,3.37,3.37,0,0,0,.66-2.28,3.22,3.22,0,0,0-.66-2.19,2.18,2.18,0,0,0-3.27,0A3.28,3.28,0,0,0,201.3,30.65Z" style="fill:#fff"/><path d="M213.82,34.53v-1a2.42,2.42,0,0,1-2.17,1.16,3.06,3.06,0,0,1-1.71-.51,3.34,3.34,0,0,1-1.21-1.43,4.93,4.93,0,0,1-.43-2.12,5.51,5.51,0,0,1,.39-2.11,3.15,3.15,0,0,1,1.16-1.46,3.18,3.18,0,0,1,1.74-.5,2.57,2.57,0,0,1,1.25.3,2.39,2.39,0,0,1,.89.77V23.8h1.32V34.53Zm-4.17-3.88a3.35,3.35,0,0,0,.64,2.24,1.88,1.88,0,0,0,1.48.74,1.86,1.86,0,0,0,1.47-.71,3.28,3.28,0,0,0,.6-2.16,3.66,3.66,0,0,0-.61-2.34,1.9,1.9,0,0,0-1.52-.75,1.85,1.85,0,0,0-1.47.72A3.55,3.55,0,0,0,209.65,30.65Z" style="fill:#fff"/><path d="M222.44,32l1.37.17a3.38,3.38,0,0,1-1.2,1.85,4,4,0,0,1-4.93-.39,4.09,4.09,0,0,1-1-2.95,4.33,4.33,0,0,1,1-3.05,3.42,3.42,0,0,1,2.62-1.08,3.32,3.32,0,0,1,2.55,1.06,4.23,4.23,0,0,1,1,3c0,.08,0,.2,0,.35H218a2.94,2.94,0,0,0,.73,2,2.12,2.12,0,0,0,1.62.69,2,2,0,0,0,1.24-.39A2.48,2.48,0,0,0,222.44,32Zm-4.33-2.13h4.35a2.63,2.63,0,0,0-.5-1.47,2,2,0,0,0-1.63-.77,2.11,2.11,0,0,0-1.53.61A2.47,2.47,0,0,0,218.11,29.9Z" style="fill:#fff"/><path d="M225.43,34.53V23.8h1.32V34.53Z" style="fill:#fff"/></svg>