<?xml version="1.0" encoding="utf-8"?>
<!-- Generator: Adobe Illustrator 24.2.1, SVG Export Plug-In . SVG Version: 6.00 Build 0)  -->
<svg version="1.1" id="Layer_1" xmlns="http://www.w3.org/2000/svg" xmlns:xlink="http://www.w3.org/1999/xlink" x="0px" y="0px"
	 viewBox="0 0 155 153" style="enable-background:new 0 0 155 153;" xml:space="preserve">
<style type="text/css">
	.st0{fill:#FFFFFF;}
	.st1{opacity:0.66;clip-path:url(#SVGID_2_);}
	.st2{fill:#59C230;}
	.st3{fill:#9BD981;}
	.st4{fill:#489F24;}
	.st5{enable-background:new    ;}
	.st6{fill:#333333;}
	.st7{fill:#003722;}
	.st8{fill:none;}
	.st9{fill:#007E4E;}
	.st10{font-family:'ArialMT';}
	.st11{font-size:24px;}
</style>
<path id="Rectangle_18" class="st0" d="M66,9h32c31.5,0,57,25.5,57,57v30c0,31.5-25.5,57-57,57H66c-31.5,0-57-25.5-57-57V66
	C9,34.5,34.5,9,66,9z"/>
<g>
	<defs>
		<path id="SVGID_1_" d="M57,0h34c31.5,0,57,25.5,57,57v32c0,31.5-25.5,57-57,57H57c-31.5,0-57-25.5-57-57V57C0,25.5,25.5,0,57,0z"
			/>
	</defs>
	<clipPath id="SVGID_2_">
		<use xlink:href="#SVGID_1_"  style="overflow:visible;"/>
	</clipPath>
	<g id="Mask_Group_4" transform="translate(3955 1319.876)" class="st1">
		<g id="money_1_" transform="translate(74.434 113.053)">
			<path id="Path_125" class="st2" d="M-3981-1305.4v-18.3l48.5-10.4l48.5,10.4v18.3l-48.5,9.2L-3981-1305.4z"/>
			<path id="Path_126" class="st2" d="M-3981-1288v-18.3l48.5-10.4l48.5,10.4v18.3l-48.5,9.2L-3981-1288z"/>
			<path id="Path_127" class="st3" d="M-3981-1342.6h96.9v21.6h-96.9V-1342.6z"/>
			<path id="Path_128" class="st3" d="M-3981-1314h96.9v15.4h-96.9V-1314z"/>
			<path id="Path_129" class="st3" d="M-3981-1291.6v13.6c0,4.6,1.9,8.4,4.3,8.4h88.2c2.4,0,4.3-3.7,4.3-8.4v-13.6H-3981z"/>
			<path id="Path_130" class="st4" d="M-3966.2-1322.8l-14.8,1.7v13.3l14.8,1.5V-1322.8z"/>
			<path id="Path_131" class="st4" d="M-3966.2-1305.4l-14.8,1.7v13.3l14.8,1.5V-1305.4z"/>
			<path id="Path_132" class="st2" d="M-3981-1342.6h14.8v21.6h-14.8V-1342.6z"/>
			<path id="Path_133" class="st2" d="M-3981-1314h14.8v15.4h-14.8V-1314z"/>
			<path id="Path_134" class="st2" d="M-3888.9-1373h-87.3c-2.6,0-4.8,1.1-4.8,2.4v29.6c0,1.3,2.1,2.4,4.8,2.4h87.3
				c2.7,0,4.8-1.1,4.8-2.4v-29.6C-3884.1-1371.9-3886.2-1373-3888.9-1373L-3888.9-1373z"/>
			<path id="Path_135" class="st4" d="M-3972.6-1341.1v-29.6c0-1.3,2.9-2.4,6.4-2.4h-8.4c-3.5,0-6.4,1.1-6.4,2.4v29.6
				c0,1.3,2.9,2.4,6.4,2.4h8.4C-3969.8-1338.7-3972.6-1339.8-3972.6-1341.1z"/>
			<path id="Path_136" class="st2" d="M-3966.2-1291.6h-14.8v13.6c0,4.6,2.6,8.4,5.8,8.4h9V-1291.6z"/>
		</g>
	</g>
</g>
<g class="st5">
	<path class="st6" d="M55.3,108.5l1.7,0.4c-0.4,1.4-1,2.5-1.9,3.2s-2.1,1.1-3.4,1.1c-1.4,0-2.5-0.3-3.4-0.8c-0.9-0.6-1.5-1.4-2-2.5
		s-0.7-2.2-0.7-3.5c0-1.3,0.3-2.5,0.8-3.5c0.5-1,1.2-1.8,2.2-2.3c0.9-0.5,2-0.8,3.1-0.8c1.3,0,2.4,0.3,3.3,1s1.5,1.6,1.8,2.8
		l-1.7,0.4c-0.3-0.9-0.7-1.6-1.3-2s-1.3-0.6-2.1-0.6c-1,0-1.8,0.2-2.5,0.7s-1.1,1.1-1.4,1.9c-0.3,0.8-0.4,1.6-0.4,2.5
		c0,1.1,0.2,2.1,0.5,2.9c0.3,0.8,0.8,1.4,1.5,1.8s1.4,0.6,2.2,0.6c1,0,1.8-0.3,2.4-0.8S55.1,109.6,55.3,108.5z"/>
	<path class="st6" d="M58.6,106.7c0-2.1,0.6-3.8,1.7-5c1.1-1.2,2.6-1.8,4.4-1.8c1.2,0,2.3,0.3,3.2,0.9s1.7,1.4,2.2,2.4
		s0.8,2.2,0.8,3.5c0,1.3-0.3,2.5-0.8,3.5s-1.3,1.8-2.2,2.3c-1,0.5-2,0.8-3.1,0.8c-1.2,0-2.3-0.3-3.3-0.9s-1.7-1.4-2.2-2.4
		S58.6,107.9,58.6,106.7z M60.4,106.8c0,1.6,0.4,2.8,1.3,3.7c0.8,0.9,1.9,1.3,3.1,1.3c1.3,0,2.3-0.5,3.2-1.4s1.2-2.2,1.2-3.8
		c0-1-0.2-2-0.5-2.7c-0.4-0.8-0.9-1.4-1.6-1.8c-0.7-0.4-1.4-0.6-2.3-0.6c-1.2,0-2.2,0.4-3.1,1.2C60.8,103.4,60.4,104.8,60.4,106.8z"
		/>
	<path class="st6" d="M73.2,113v-12.9h4.4c1,0,1.8,0.1,2.3,0.2c0.7,0.2,1.4,0.5,1.9,0.9c0.7,0.6,1.2,1.3,1.5,2.2
		c0.3,0.9,0.5,1.9,0.5,3.1c0,1-0.1,1.8-0.3,2.6s-0.5,1.4-0.9,1.9c-0.4,0.5-0.7,0.9-1.2,1.2s-0.9,0.5-1.5,0.6s-1.3,0.2-2.1,0.2H73.2z
		 M74.9,111.5h2.8c0.8,0,1.5-0.1,2-0.2s0.9-0.4,1.2-0.7c0.4-0.4,0.7-0.9,0.9-1.6c0.2-0.7,0.3-1.5,0.3-2.5c0-1.3-0.2-2.4-0.7-3.1
		c-0.4-0.7-1-1.2-1.6-1.5c-0.5-0.2-1.2-0.3-2.2-0.3h-2.7V111.5z"/>
	<path class="st6" d="M86.4,113v-12.9h1.7V113H86.4z"/>
	<path class="st6" d="M91.1,113v-12.9h1.7l6.8,10.1v-10.1h1.6V113h-1.7l-6.8-10.1V113H91.1z"/>
	<path class="st6" d="M110.2,107.9v-1.5l5.5,0v4.8c-0.8,0.7-1.7,1.2-2.6,1.5c-0.9,0.3-1.8,0.5-2.7,0.5c-1.3,0-2.4-0.3-3.4-0.8
		c-1-0.5-1.8-1.3-2.3-2.4s-0.8-2.2-0.8-3.4c0-1.3,0.3-2.4,0.8-3.5c0.5-1.1,1.3-1.9,2.3-2.4s2.1-0.8,3.4-0.8c0.9,0,1.8,0.2,2.5,0.5
		c0.8,0.3,1.3,0.7,1.8,1.3s0.8,1.2,1,2.1l-1.5,0.4c-0.2-0.7-0.4-1.2-0.7-1.5s-0.7-0.7-1.2-0.9s-1.1-0.3-1.8-0.3
		c-0.8,0-1.5,0.1-2,0.4c-0.6,0.2-1,0.5-1.4,0.9s-0.6,0.8-0.8,1.3c-0.3,0.8-0.5,1.7-0.5,2.6c0,1.1,0.2,2.1,0.6,2.9s1,1.3,1.7,1.7
		s1.6,0.6,2.4,0.6c0.7,0,1.5-0.1,2.2-0.4s1.2-0.6,1.6-0.9v-2.4H110.2z"/>
</g>
<g id="coding-2" transform="translate(4038.996 1366.167)">
	<g id="Group_83" transform="translate(34.691 58.228)">
		<g id="Group_82" transform="translate(0 0)">
			<path id="Path_117" class="st7" d="M-3966.2-1360.2l-11.6-12.3c-0.7-0.8-1.9-0.8-2.7-0.1s-0.8,1.9-0.1,2.7c0,0,0,0,0,0l10.3,11
				l-10.3,11c-0.7,0.8-0.7,1.9,0.1,2.7c0.8,0.7,1.9,0.7,2.7-0.1l11.6-12.3C-3965.5-1358.3-3965.5-1359.4-3966.2-1360.2z"/>
		</g>
	</g>
	<g id="Group_85" transform="translate(0.001 58.228)">
		<g id="Group_84" transform="translate(0)">
			<path id="Path_118" class="st7" d="M-3966.2-1347.9l-10.3-11l10.3-11c0.7-0.8,0.7-1.9-0.1-2.7c-0.8-0.7-1.9-0.7-2.7,0.1l0,0
				l-11.6,12.3c-0.7,0.7-0.7,1.9,0,2.6l11.6,12.3c0.7,0.7,1.9,0.8,2.7,0C-3965.5-1346-3965.5-1347.2-3966.2-1347.9z"/>
		</g>
	</g>
	<g id="Group_87" transform="translate(20.377 52.478)">
		<g id="Group_86" transform="translate(0 0)">
			<path id="Path_119" class="st7" d="M-3973.3-1373c-1-0.2-2,0.5-2.1,1.6l-5.5,36c-0.2,1,0.5,2,1.6,2.1c0.1,0,0.2,0,0.3,0
				c0.9,0,1.7-0.7,1.9-1.6l5.5-36C-3971.6-1371.9-3972.3-1372.8-3973.3-1373C-3973.3-1373-3973.3-1373-3973.3-1373z"/>
		</g>
	</g>
</g>
<g id="Path_137" transform="translate(3990 1382)">
	<path class="st8" d="M-3924-1373h32c31.5,0,57,25.5,57,57v30c0,31.5-25.5,57-57,57h-32c-31.5,0-57-25.5-57-57v-30
		c0-16.4,7.1-32,19.4-42.8c1.1-1,2.4-2.1,3.8-3.1C-3948-1369.1-3936.2-1373-3924-1373z"/>
	<path class="st9" d="M-3924-1362c-9.8,0-19.5,3.2-27.2,8.9c-1.1,0.8-2.2,1.7-3.1,2.5c-10.1,9.1-15.7,21.3-15.7,34.6v30
		c0,25.4,20.6,46,46,46h32c25.4,0,46-20.6,46-46v-30c0-25.4-20.6-46-46-46H-3924 M-3924-1373h32c31.5,0,57,25.5,57,57v30
		c0,31.5-25.5,57-57,57h-32c-31.5,0-57-25.5-57-57v-30c0-16.9,7.3-32,19.4-42.8c1.1-1,2.4-2.1,3.8-3.1
		C-3948.5-1368.8-3936.7-1373-3924-1373z"/>
</g>
<circle id="Ellipse_20" class="st9" cx="31" cy="24" r="23"/>
<text transform="matrix(1 0 0 1 24 33)" class="st0 st10 st11">1</text>
</svg>
