<?xml version="1.0" encoding="utf-8"?>
<!-- Generator: Adobe Illustrator 24.2.1, SVG Export Plug-In . SVG Version: 6.00 Build 0)  -->
<svg version="1.1" id="Layer_1" xmlns="http://www.w3.org/2000/svg" xmlns:xlink="http://www.w3.org/1999/xlink" x="0px" y="0px"
	 viewBox="0 0 300 50" style="enable-background:new 0 0 300 50;" xml:space="preserve">
<style type="text/css">
	.st0{fill:#06754B;}
	.st1{fill:#FFFFFF;}
</style>
<path class="st0" d="M287,50H13C5.8,50,0,44.2,0,37V13C0,5.8,5.8,0,13,0h274c7.2,0,13,5.8,13,13v24C300,44.2,294.2,50,287,50z"/>
<path class="st1" d="M105.7,22.9c0.2,0.2,0.2,0.5,0,0.7l-3.7,3.5c-0.2,0.2-0.6,0.2-0.8,0l-1.8-1.7c-0.2-0.2-0.2-0.5,0-0.7
	c0.2-0.2,0.6-0.2,0.8,0l1.4,1.3l3.3-3.1C105.1,22.7,105.5,22.7,105.7,22.9z M109.7,25c0,3.7-3.2,6.7-7.1,6.7s-7.1-3-7.1-6.7
	s3.2-6.7,7.1-6.7C106.5,18.3,109.7,21.3,109.7,25z M108.5,25c0-3.1-2.7-5.7-6-5.7c-3.3,0-6,2.5-6,5.7c0,3.1,2.7,5.7,6,5.7
	C105.9,30.7,108.5,28.1,108.5,25z"/>
</svg>
