<?xml version="1.0" encoding="utf-8"?>
<!-- Generator: Adobe Illustrator 24.2.1, SVG Export Plug-In . SVG Version: 6.00 Build 0)  -->
<svg version="1.1" id="Layer_1" xmlns="http://www.w3.org/2000/svg" xmlns:xlink="http://www.w3.org/1999/xlink" x="0px" y="0px"
	 viewBox="0 0 300 50" style="enable-background:new 0 0 300 50;" xml:space="preserve">
<style type="text/css">
	.st0{fill:#06754B;}
	.st1{fill:#FFFFFF;}
	.st2{font-family:'ArialMT';}
	.st3{font-size:18px;}
</style>
<path class="st0" d="M288,50H12C5.4,50,0,44.6,0,38V12C0,5.4,5.4,0,12,0h276c6.6,0,12,5.4,12,12v26C300,44.6,294.6,50,288,50z"/>
<g>
	<text transform="matrix(1 0 0 1 122.9373 29.8012)" class="st1 st2 st3">Download</text>
	<g>
		<g>
			<g>
				<g>
					<path class="st1" d="M112.8,23.2l-2.1-4.5c-0.1-0.1-0.2-0.2-0.3-0.2h-1.8c-0.2,0-0.4,0.2-0.4,0.4s0.2,0.4,0.4,0.4h1.5l1.7,3.7
						h-2.1c-1,0-1.8,0.6-2.2,1.4c-0.3,0.6-0.9,1-1.6,1h-2.1c-0.7,0-1.3-0.4-1.6-1c-0.4-0.9-1.3-1.4-2.2-1.4H98l2-3.7h1.2
						c0.2,0,0.4-0.2,0.4-0.4c0-0.2-0.2-0.4-0.4-0.4h-1.4c-0.1,0-0.3,0.1-0.3,0.2l-2.4,4.5c0,0-0.1,0.1-0.1,0.1v4.6
						c0,1,0.9,1.9,1.9,1.9H111c1,0,1.9-0.8,1.9-1.9v-4.6C112.9,23.3,112.9,23.2,112.8,23.2z M112.2,27.9c0,0.6-0.5,1.1-1.2,1.1H98.9
						c-0.6,0-1.1-0.5-1.2-1.1v-4.2h2.4c0.7,0,1.3,0.4,1.6,1c0.4,0.9,1.3,1.4,2.2,1.4h2.1c1,0,1.8-0.6,2.2-1.4c0.3-0.6,0.9-1,1.6-1
						h2.4V27.9L112.2,27.9z"/>
					<path class="st1" d="M104.7,23.2c0.1,0.1,0.4,0.2,0.5,0c0,0,0,0,0,0l2.5-2.5c0.1-0.2,0.1-0.4-0.1-0.5c-0.1-0.1-0.3-0.1-0.4,0
						l-1.9,1.9v-7c0-0.2-0.2-0.4-0.4-0.4s-0.4,0.2-0.4,0.4v7l-1.9-1.9c-0.2-0.1-0.4-0.1-0.5,0.1c-0.1,0.1-0.1,0.3,0,0.4L104.7,23.2z
						"/>
				</g>
			</g>
		</g>
	</g>
</g>
</svg>
