<?xml version="1.0" encoding="utf-8"?>
<!-- Generator: Adobe Illustrator 24.2.1, SVG Export Plug-In . SVG Version: 6.00 Build 0)  -->
<svg version="1.1" id="Layer_1" xmlns="http://www.w3.org/2000/svg" xmlns:xlink="http://www.w3.org/1999/xlink" x="0px" y="0px"
	 viewBox="0 0 83.3 83.4" style="enable-background:new 0 0 83.3 83.4;" xml:space="preserve">
<style type="text/css">
	.st0{fill:#CDCDCD;}
	.st1{fill:#DDDDDD;}
	.st2{fill:#333333;}
	.st3{font-family:'ArialMT';}
	.st4{font-size:17px;}
	.st5{fill:#309FC2;}
</style>
<g id="Group_57" transform="translate(951 633)">
	<path id="Path_94" class="st0" d="M-876.8-557.4c-12.8,10.4-52.6,10.4-65.1,0c-12.8-10.4-11.5-55,0-66.7
		c11.5-11.7,53.7-11.7,65.1,0S-864-567.8-876.8-557.4z"/>
	<path id="Path_95" class="st1" d="M-909.1-575.6c-11.5,9.1-24.2,13.8-36.2,14.1c-8.9-15.1-7-51.8,3.4-62.5
		c9.4-9.6,38.8-11.5,55.8-5.5C-882-612.4-890.6-590.5-909.1-575.6z"/>
</g>
<text transform="matrix(1 0 0 1 22.2849 65.214)" class="st2 st3 st4">Save</text>
<g>
	<g>
		<g>
			<path class="st5" d="M53,24.4l-4.9-4.9c-0.2-0.2-0.4-0.3-0.7-0.3h-7.3c-0.5,0-1,0.4-1,1c0,0.5,0.4,1,1,1h3.4V27h-7.3v-6.8
				c0-0.5-0.4-1-1-1h-2.4c-1.6,0-2.9,1.3-2.9,2.9v17.5c0,1.6,1.3,2.9,2.9,2.9h2.4H48h2.4c1.6,0,2.9-1.3,2.9-2.9V25
				C53.3,24.8,53.2,24.5,53,24.4z M47,40.6H36.3v-5.3H47V40.6z M51.4,39.6c0,0.5-0.4,1-1,1H49v-6.3c0-0.5-0.4-1-1-1H35.3
				c-0.5,0-1,0.4-1,1v6.3h-1.5c-0.5,0-1-0.4-1-1V22.1c0-0.5,0.4-1,1-1h1.5V28c0,0.5,0.4,1,1,1h9.2c0.5,0,1-0.4,1-1v-6.8h1.5l4.3,4.3
				V39.6z"/>
		</g>
	</g>
	<g>
		<g>
			<path class="st5" d="M38.3,22.6c-0.5,0-1,0.4-1,1v1c0,0.5,0.4,1,1,1s1-0.4,1-1v-1C39.2,23.1,38.8,22.6,38.3,22.6z"/>
		</g>
	</g>
</g>
</svg>
