<?xml version="1.0" encoding="utf-8"?>
<!-- Generator: Adobe Illustrator 24.2.1, SVG Export Plug-In . SVG Version: 6.00 Build 0)  -->
<svg version="1.1" id="Layer_1" xmlns="http://www.w3.org/2000/svg" xmlns:xlink="http://www.w3.org/1999/xlink" x="0px" y="0px"
	 viewBox="0 0 83.3 83.4" style="enable-background:new 0 0 83.3 83.4;" xml:space="preserve">
<style type="text/css">
	.st0{fill:#CDCDCD;}
	.st1{fill:#DDDDDD;}
	.st2{fill:#333333;}
	.st3{font-family:'ArialMT';}
	.st4{font-size:17px;}
	.st5{fill:#007E4E;}
</style>
<g id="Group_58" transform="translate(951 633)">
	<g id="Group_40" transform="translate(362.319 -154)">
		<path id="Path_96" class="st0" d="M-1239.1-403.4c-12.8,10.4-52.6,10.4-65.1,0c-12.8-10.4-11.5-55,0-66.7s53.7-11.7,65.1,0
			S-1226.3-413.8-1239.1-403.4z"/>
	</g>
	<path id="Path_97" class="st1" d="M-909.1-575.6c-11.5,9.1-24.2,13.8-36.2,14.1c-8.9-15.1-7-51.8,3.4-62.5
		c9.4-9.6,38.8-11.5,55.8-5.5C-882-612.4-890.6-590.5-909.1-575.6z"/>
</g>
<text transform="matrix(1 0 0 1 17.0926 65.214)" class="st2 st3 st4">Export</text>
<g>
	<path class="st5" d="M41.7,37.9c-0.1,0-0.2,0-0.2,0L28,32c-0.2-0.1-0.4-0.3-0.4-0.5c0-0.2,0.1-0.4,0.3-0.5l7.6-3.3
		c0.3-0.1,0.6,0,0.8,0.3s0,0.6-0.3,0.8l-6.3,2.8l11.9,5.2l11.9-5.2l-6.3-2.8c-0.3-0.1-0.4-0.5-0.3-0.8c0.1-0.3,0.5-0.4,0.8-0.3
		l7.6,3.3c0.2,0.1,0.3,0.3,0.3,0.5c0,0.2-0.1,0.4-0.4,0.5l-13.4,5.8C41.8,37.9,41.7,37.9,41.7,37.9L41.7,37.9z"/>
	<path class="st5" d="M41.7,42.5c-0.1,0-0.2,0-0.2,0L28,36.7c-0.2-0.1-0.4-0.3-0.4-0.5v-4.7c0-0.3,0.3-0.6,0.6-0.6s0.6,0.3,0.6,0.6
		v4.3l12.8,5.6l12.8-5.6v-4.3c0-0.3,0.3-0.6,0.6-0.6s0.6,0.3,0.6,0.6v4.7c0,0.2-0.1,0.4-0.4,0.5l-13.4,5.8
		C41.8,42.5,41.7,42.5,41.7,42.5L41.7,42.5z"/>
	<path class="st5" d="M41.7,42.5c-0.3,0-0.6-0.3-0.6-0.6v-4.7c0-0.3,0.3-0.6,0.6-0.6s0.6,0.3,0.6,0.6V42
		C42.2,42.3,42,42.5,41.7,42.5z"/>
	<path class="st5" d="M43.4,30.9h-3.5c-0.6,0-1.2-0.5-1.2-1.2v-7.6h-3.5c-0.2,0-0.4-0.1-0.5-0.4c-0.1-0.2,0-0.5,0.1-0.6l6.4-6.4
		c0.2-0.2,0.6-0.2,0.8,0l6.4,6.4c0.2,0.2,0.2,0.4,0.1,0.6c-0.1,0.2-0.3,0.4-0.5,0.4h-3.5v7.6C44.6,30.4,44,30.9,43.4,30.9z M36.7,21
		h2.7c0.3,0,0.6,0.3,0.6,0.6v8.2h3.5v-8.2c0-0.3,0.3-0.6,0.6-0.6h2.7l-5-5L36.7,21z"/>
</g>
</svg>
