<?xml version="1.0" encoding="utf-8"?>
<!-- Generator: Adobe Illustrator 24.2.1, SVG Export Plug-In . SVG Version: 6.00 Build 0)  -->
<svg version="1.1" id="Layer_1" xmlns="http://www.w3.org/2000/svg" xmlns:xlink="http://www.w3.org/1999/xlink" x="0px" y="0px"
	 viewBox="0 0 154 153" style="enable-background:new 0 0 154 153;" xml:space="preserve">
<style type="text/css">
	.st0{fill:#FFFFFF;}
	.st1{opacity:0.66;clip-path:url(#SVGID_2_);}
	.st2{fill:#59C230;}
	.st3{fill:#9BD981;}
	.st4{fill:#489F24;}
	.st5{fill:none;}
	.st6{fill:none;stroke:#007E4E;stroke-width:11;}
	.st7{enable-background:new    ;}
	.st8{fill:#333333;}
	.st9{fill:#007E4E;}
	.st10{font-family:'ArialMT';}
	.st11{font-size:24px;}
	.st12{fill:#003722;}
</style>
<g>
	<path id="Path_138" class="st0" d="M65,9h32c31.5,0,57,25.5,57,57v30c0,31.5-25.5,57-57,57H65c-31.5,0-57-25.5-57-57V66
		C8,34.5,33.5,9,65,9z"/>
	<g>
		<defs>
			<path id="SVGID_1_" d="M57,0h34c31.5,0,57,25.5,57,57v32c0,31.5-25.5,57-57,57H57c-31.5,0-57-25.5-57-57V57C0,25.5,25.5,0,57,0z"
				/>
		</defs>
		<clipPath id="SVGID_2_">
			<use xlink:href="#SVGID_1_"  style="overflow:visible;"/>
		</clipPath>
		<g id="Mask_Group_5" transform="translate(3956 1319.876)" class="st1">
			<g id="money_1_" transform="translate(74.434 113.053)">
				<path id="Path_139" class="st2" d="M-3982-1305.4v-18.3l48.5-10.4l48.5,10.4v18.3l-48.5,9.2L-3982-1305.4z"/>
				<path id="Path_140" class="st2" d="M-3982-1288v-18.3l48.5-10.4l48.5,10.4v18.3l-48.5,9.2L-3982-1288z"/>
				<path id="Path_141" class="st3" d="M-3982-1342.6h96.9v21.6h-96.9V-1342.6z"/>
				<path id="Path_142" class="st3" d="M-3982-1314h96.9v15.4h-96.9V-1314z"/>
				<path id="Path_143" class="st3" d="M-3982-1291.6v13.6c0,4.6,1.9,8.4,4.3,8.4h88.2c2.4,0,4.3-3.7,4.3-8.4v-13.6H-3982z"/>
				<path id="Path_144" class="st4" d="M-3967.2-1322.8l-14.8,1.7v13.3l14.8,1.5V-1322.8z"/>
				<path id="Path_145" class="st4" d="M-3967.2-1305.4l-14.8,1.7v13.3l14.8,1.5V-1305.4z"/>
				<path id="Path_146" class="st2" d="M-3982-1342.6h14.8v21.6h-14.8V-1342.6z"/>
				<path id="Path_147" class="st2" d="M-3982-1314h14.8v15.4h-14.8V-1314z"/>
				<path id="Path_148" class="st2" d="M-3889.9-1373h-87.3c-2.6,0-4.8,1.1-4.8,2.4v29.6c0,1.3,2.1,2.4,4.8,2.4h87.3
					c2.7,0,4.8-1.1,4.8-2.4v-29.6C-3885.1-1371.9-3887.2-1373-3889.9-1373L-3889.9-1373z"/>
				<path id="Path_149" class="st4" d="M-3973.6-1341.1v-29.6c0-1.3,2.9-2.4,6.4-2.4h-8.4c-3.5,0-6.4,1.1-6.4,2.4v29.6
					c0,1.3,2.9,2.4,6.4,2.4h8.4C-3970.8-1338.7-3973.6-1339.8-3973.6-1341.1z"/>
				<path id="Path_150" class="st2" d="M-3967.2-1291.6h-14.8v13.6c0,4.6,2.6,8.4,5.8,8.4h9V-1291.6z"/>
			</g>
		</g>
	</g>
	<g id="Rectangle_11" transform="translate(3990 1382)">
		<path class="st5" d="M-3925-1373h32c31.5,0,57,25.5,57,57v30c0,31.5-25.5,57-57,57h-32c-31.5,0-57-25.5-57-57v-30
			C-3982-1347.5-3956.5-1373-3925-1373z"/>
		<path class="st6" d="M-3925-1367.5h32c28.4,0,51.5,23.1,51.5,51.5v30c0,28.4-23.1,51.5-51.5,51.5h-32c-28.4,0-51.5-23.1-51.5-51.5
			v-30C-3976.5-1344.4-3953.4-1367.5-3925-1367.5z"/>
	</g>
	<g class="st7">
		<path class="st8" d="M47.5,108.5l1.7,0.4c-0.4,1.4-1,2.5-1.9,3.2s-2.1,1.1-3.4,1.1c-1.4,0-2.5-0.3-3.4-0.8c-0.9-0.6-1.5-1.4-2-2.5
			s-0.7-2.2-0.7-3.5c0-1.3,0.3-2.5,0.8-3.5c0.5-1,1.2-1.8,2.2-2.3c0.9-0.5,2-0.8,3.1-0.8c1.3,0,2.4,0.3,3.3,1s1.5,1.6,1.8,2.8
			l-1.7,0.4c-0.3-0.9-0.7-1.6-1.3-2s-1.3-0.6-2.1-0.6c-1,0-1.8,0.2-2.5,0.7s-1.1,1.1-1.4,1.9c-0.3,0.8-0.4,1.6-0.4,2.5
			c0,1.1,0.2,2.1,0.5,2.9c0.3,0.8,0.8,1.4,1.5,1.8s1.4,0.6,2.2,0.6c1,0,1.8-0.3,2.4-0.8S47.3,109.6,47.5,108.5z"/>
		<path class="st8" d="M49.9,113l4.9-12.9h1.8L62,113H60l-1.5-3.9h-5.4l-1.4,3.9H49.9z M53.6,107.7H58l-1.3-3.6
			c-0.4-1.1-0.7-2-0.9-2.7c-0.2,0.8-0.4,1.6-0.7,2.5L53.6,107.7z"/>
		<path class="st8" d="M63.3,113v-12.9h4.9c0.9,0,1.5,0,2,0.1c0.6,0.1,1.2,0.3,1.6,0.6c0.4,0.3,0.8,0.7,1,1.2s0.4,1.1,0.4,1.8
			c0,1.1-0.3,2-1,2.8c-0.7,0.8-2,1.1-3.8,1.1H65v5.2H63.3z M65,106.2h3.3c1.1,0,1.9-0.2,2.3-0.6s0.7-1,0.7-1.7c0-0.5-0.1-1-0.4-1.4
			c-0.3-0.4-0.6-0.6-1.1-0.8c-0.3-0.1-0.8-0.1-1.6-0.1H65V106.2z"/>
		<path class="st8" d="M78.6,113v-11.4h-4.2v-1.5h10.2v1.5h-4.3V113H78.6z"/>
		<path class="st8" d="M94.8,100.1h1.7v7.4c0,1.3-0.1,2.3-0.4,3.1s-0.8,1.4-1.6,1.9s-1.8,0.7-3,0.7c-1.2,0-2.2-0.2-3-0.6
			s-1.3-1-1.6-1.8c-0.3-0.8-0.5-1.9-0.5-3.2v-7.4H88v7.4c0,1.1,0.1,1.9,0.3,2.5s0.6,0.9,1.1,1.2s1.1,0.4,1.9,0.4
			c1.3,0,2.1-0.3,2.7-0.9s0.8-1.7,0.8-3.3V100.1z"/>
		<path class="st8" d="M99.3,113v-12.9h5.7c1.1,0,2,0.1,2.6,0.3s1.1,0.6,1.4,1.2s0.5,1.2,0.5,1.9c0,0.9-0.3,1.7-0.9,2.3
			s-1.5,1-2.7,1.2c0.5,0.2,0.8,0.4,1,0.6c0.5,0.5,1,1,1.4,1.7l2.2,3.5h-2.1l-1.7-2.7c-0.5-0.8-0.9-1.4-1.2-1.8s-0.6-0.7-0.9-0.9
			s-0.5-0.3-0.8-0.3c-0.2,0-0.5-0.1-0.9-0.1h-2v5.7H99.3z M101,105.8h3.7c0.8,0,1.4-0.1,1.8-0.2s0.8-0.4,1-0.8s0.3-0.7,0.3-1.2
			c0-0.6-0.2-1.1-0.7-1.5s-1.1-0.6-2.1-0.6H101V105.8z"/>
		<path class="st8" d="M112.4,113v-12.9h9.3v1.5h-7.6v3.9h7.1v1.5h-7.1v4.4h7.9v1.5H112.4z"/>
	</g>
	<circle id="Ellipse_20" class="st9" cx="30" cy="24" r="23"/>
	<text transform="matrix(1 0 0 1 23 33)" class="st0 st10 st11">2</text>
	<g id="photograph" transform="translate(4040.083 1370.067)">
		<g id="Group_37" transform="translate(23.708 63.225)">
			<g id="Group_36">
				<path id="Path_90" class="st12" d="M-3975.5-1373c-1.1,0-2.1,0.3-3,0.9c0.7,0.3,1.1,1,1.1,1.7c0.1,1.1-0.8,2.1-1.9,2.2
					c-0.1,0-0.2,0-0.2,0c-0.7-0.1-1.4-0.5-1.7-1.1c-0.4,0.9-0.7,1.8-0.7,2.8c0,3.6,2.9,6.5,6.5,6.5s6.5-2.9,6.5-6.5
					C-3969-1370.1-3971.9-1373-3975.5-1373z"/>
			</g>
		</g>
		<g id="Group_39" transform="translate(-3.084 45.933)">
			<g id="Group_38">
				<path id="Path_91" class="st12" d="M-3933-1367.8h-2.6l-2.3-4.4c0-0.5-0.5-0.8-1-0.8h-13.9c-0.5,0-1,0.3-1,0.8l-2.3,4.4h-12.9
					v-1.3c0-0.7-0.5-1.2-1.1-1.3c0,0-0.1,0-0.1,0h-5.2c-0.7,0-1.2,0.5-1.3,1.1c0,0,0,0.1,0,0.1v1.3h-2.6c-1.3-0.1-2.5,0.9-2.6,2.3
					c0,0.1,0,0.2,0,0.3v30.9c-0.1,1.3,0.9,2.5,2.3,2.6c0.1,0,0.2,0,0.3,0h46.4c1.3,0.1,2.5-0.9,2.6-2.3c0-0.1,0-0.2,0-0.3v-30.9
					c0.1-1.3-0.9-2.5-2.3-2.6C-3932.8-1367.8-3932.9-1367.8-3933-1367.8z M-3974.3-1357.5c-1.4,0-2.6-1.2-2.6-2.6
					c-0.1-1.3,0.9-2.5,2.3-2.6c0.1,0,0.2,0,0.3,0c1.4,0,2.6,1.2,2.6,2.6C-3971.7-1358.7-3972.8-1357.5-3974.3-1357.5L-3974.3-1357.5
					z M-3948.5-1336.9c-7.1,0-12.9-5.8-12.9-12.9s5.8-12.9,12.9-12.9s12.9,5.8,12.9,12.9c0.1,7.1-5.6,12.8-12.6,12.9
					C-3948.3-1336.9-3948.4-1336.9-3948.5-1336.9z"/>
			</g>
		</g>
	</g>
</g>
</svg>
