<svg xmlns="http://www.w3.org/2000/svg" xmlns:xlink="http://www.w3.org/1999/xlink" width="125" height="48" viewBox="0 0 125 48">
  <defs>
    <filter id="Rectangle_34" x="0" y="0" width="125" height="48" filterUnits="userSpaceOnUse">
      <feOffset input="SourceAlpha"/>
      <feGaussianBlur stdDeviation="3" result="blur"/>
      <feFlood flood-opacity="0.161"/>
      <feComposite operator="in" in2="blur"/>
      <feComposite in="SourceGraphic"/>
    </filter>
  </defs>
  <g id="Group_95" data-name="Group 95" transform="translate(-54 -166)">
    <g transform="matrix(1, 0, 0, 1, 54, 166)" filter="url(#Rectangle_34)">
      <rect id="Rectangle_34-2" data-name="Rectangle 34" width="107" height="30" rx="15" transform="translate(9 9)" fill="#fff"/>
    </g>
    <text id="Select_Mode" data-name="Select Mode" transform="translate(74 194)" fill="#06754b" font-size="11" font-family="ArialRoundedMTBold, Arial Rounded MT"><tspan x="0" y="0">Select Mode</tspan></text>
    <g id="play" transform="translate(157.437 187.686) rotate(90)">
      <g id="Group_20" data-name="Group 20" transform="translate(0 0)">
        <path id="Path_84" data-name="Path 84" d="M5.55,3.248,1.118.214A1.082,1.082,0,0,0,.536,0C.2,0,0,.266,0,.711V7.267c0,.445.2.71.535.71a1.073,1.073,0,0,0,.58-.215L5.548,4.729a.91.91,0,0,0,.443-.741A.906.906,0,0,0,5.55,3.248Z" transform="translate(0 0)" fill="#333"/>
      </g>
    </g>
  </g>
</svg>
