<svg xmlns="http://www.w3.org/2000/svg" width="83.318" height="83.429" viewBox="0 0 83.318 83.429">
  <g id="Group_108" data-name="Group 108" transform="translate(-1659 -651.786)">
    <g id="Group_58" data-name="Group 58" transform="translate(951 633)">
      <g id="Group_40" data-name="Group 40" transform="translate(362.319 -154)">
        <path id="Path_96" data-name="Path 96" d="M74.527,76.164c-12.766,10.421-52.628,10.421-65.133,0-12.766-10.421-11.463-54.972,0-66.7s53.67-11.724,65.133,0S87.293,65.743,74.527,76.164Z" transform="translate(345.38 172.234)" fill="#cdcdcd"/>
      </g>
      <path id="Path_97" data-name="Path 97" d="M42.391,57.376C30.928,66.495,18.162,71.184,6.177,71.445-2.681,56.334-.857,19.6,9.564,8.917,18.943-.723,48.383-2.546,65.318,3.446,69.487,20.641,60.889,42.526,42.391,57.376Z" transform="translate(707.529 18.785)" fill="#ddd"/>
    </g>
    <text id="Eject" transform="translate(1679 717)" fill="#333" font-size="17" font-family="ArialRoundedMTBold, Arial Rounded MT"><tspan x="0" y="0">Eject</tspan></text>
    <path id="Path_221" data-name="Path 221" d="M11.253-22.775h4.969v8.49H24.7v4.767H16.222V-.825H11.253V-9.518H2.763v-4.767h8.49Z" transform="translate(1698.268 699.86) rotate(-45)" fill="#ae0f0e"/>
  </g>
</svg>
