<svg xmlns="http://www.w3.org/2000/svg" width="83.252" height="83.363" viewBox="0 0 83.252 83.363">
  <g id="Group_81" data-name="Group 81" transform="translate(-1010.081 -446.092)">
    <g id="Group_79" data-name="Group 79" transform="translate(1010.081 446.092)">
      <g id="Group_40" data-name="Group 40" transform="translate(0 0.124)">
        <path id="Path_96" data-name="Path 96" d="M74.468,76.1c-12.756,10.413-52.586,10.413-65.082,0-12.756-10.413-11.454-54.929,0-66.644s53.627-11.715,65.082,0S87.224,65.692,74.468,76.1Z" transform="translate(-0.301 -0.675)" fill="#06754b"/>
      </g>
      <path id="Path_97" data-name="Path 97" d="M42.358,57.331C30.9,66.442,18.148,71.128,6.173,71.388c-8.851-15.1-7.029-51.8,3.384-62.478C18.929-.722,48.345-2.544,65.267,3.443,69.432,20.625,60.841,42.492,42.358,57.331Z" transform="translate(-0.471 0)" fill="#007e4e"/>
    </g>
  </g>
</svg>
