<svg xmlns="http://www.w3.org/2000/svg" width="23" height="23" viewBox="0 0 23 23">
  <g id="Group_114" data-name="Group 114" transform="translate(-1659 -70)">
    <circle id="Ellipse_13" data-name="Ellipse 13" cx="11.5" cy="11.5" r="11.5" transform="translate(1659 70)" fill="#fff"/>
    <g id="_018-cancel" data-name="018-cancel" transform="translate(1664.75 75.75)">
      <path id="Close" d="M6.676,5.964,11.466,1.2a.577.577,0,0,0,0-.822.591.591,0,0,0-.83,0L5.85,5.138,1.019.307a.588.588,0,0,0-.83.833L5.016,5.967.172,10.785a.578.578,0,0,0,0,.822.591.591,0,0,0,.83,0l4.84-4.813,4.811,4.812a.588.588,0,0,0,.83-.833Z" transform="translate(0 -0.135)"/>
    </g>
  </g>
</svg>
