<svg xmlns="http://www.w3.org/2000/svg" width="32.594" height="32.636" viewBox="0 0 32.594 32.636">
  <g id="Group_113" data-name="Group 113" transform="translate(-83.764 -806)">
    <path id="Path_190" data-name="Path 190" d="M29.338,30.205c-4.994,4.077-20.587,4.077-25.479,0-4.994-4.077-4.484-21.5,0-26.091s21-4.586,25.479,0S34.332,26.129,29.338,30.205Z" transform="translate(83.463 805.373)" fill="#06754b"/>
    <path id="Path_191" data-name="Path 191" d="M16.893,22.445a23.863,23.863,0,0,1-14.167,5.5C-.739,22.037-.025,7.667,4.051,3.488,7.72-.282,19.237-1,25.862,1.348,27.493,8.075,24.129,16.636,16.893,22.445Z" transform="translate(83.27 806)" fill="#007e4e"/>
    <g id="photograph" transform="translate(91.745 815.577)">
      <g id="Group_37" data-name="Group 37" transform="translate(8.492 5.095)">
        <g id="Group_36" data-name="Group 36">
          <path id="Path_90" data-name="Path 90" d="M258.548,204.8a2.322,2.322,0,0,0-1.189.34.672.672,0,0,1,.425.679.8.8,0,0,1-.849.849.866.866,0,0,1-.679-.425,2.35,2.35,0,0,0-.255,1.1,2.548,2.548,0,0,0,5.1,0A2.555,2.555,0,0,0,258.548,204.8Z" transform="translate(-256 -204.8)" fill="#fff"/>
        </g>
      </g>
      <g id="Group_39" data-name="Group 39" transform="translate(0 0)">
        <g id="Group_38" data-name="Group 38">
          <path id="Path_91" data-name="Path 91" d="M16.135,52.9h-.849l-.764-1.444c0-.17-.17-.255-.34-.255H9.6c-.17,0-.34.085-.34.255L8.492,52.9H4.246v-.425a.4.4,0,0,0-.425-.425h-1.7a.4.4,0,0,0-.425.425V52.9H.849A.8.8,0,0,0,0,53.748v10.19a.8.8,0,0,0,.849.849H16.135a.8.8,0,0,0,.849-.849V53.748A.8.8,0,0,0,16.135,52.9ZM2.548,56.3a.851.851,0,0,1-.849-.849.8.8,0,0,1,.849-.849.849.849,0,1,1,0,1.7Zm8.492,6.794a4.246,4.246,0,1,1,4.246-4.246A4.2,4.2,0,0,1,11.04,63.089Z" transform="translate(0 -51.2)" fill="#fff"/>
        </g>
      </g>
    </g>
  </g>
</svg>
