<svg id="Layer_1" data-name="Layer 1" xmlns="http://www.w3.org/2000/svg" viewBox="0 0 83.32 83.43"><g id="Group_55" data-name="Group 55"><path id="Path_82" data-name="Path 82" d="M74.23,75.61C61.46,86,21.6,86,9.09,75.61c-12.76-10.42-11.46-55,0-66.7s53.67-11.72,65.14,0S87,65.19,74.23,75.61Z" style="fill:#cececd"/><path id="Path_83" data-name="Path 83" d="M41.92,57.37C30.46,66.49,17.69,71.18,5.71,71.44c-8.86-15.11-7-51.84,3.38-62.52C18.47-.72,47.91-2.55,64.85,3.44,69,20.64,60.42,42.52,41.92,57.37Z" style="fill:#ddd"/></g><path id="Path_220" data-name="Path 220" d="M39.18,20.25h5v8.49h8.48v4.77H44.15V42.2h-5V33.51H30.69V28.74h8.49Z" style="fill:#329fc2"/><g style="isolation:isolate"><path d="M26,65.23V53.06H27.6L34,62.61V53.06h1.55V65.23H33.89l-6.4-9.56v9.56Z" style="fill:#333"/><path d="M44.09,62.39l1.54.19a3.75,3.75,0,0,1-1.35,2.1,4.58,4.58,0,0,1-5.59-.44,4.65,4.65,0,0,1-1.14-3.34,4.9,4.9,0,0,1,1.15-3.46,3.86,3.86,0,0,1,3-1.23,3.79,3.79,0,0,1,2.89,1.21,4.77,4.77,0,0,1,1.12,3.39c0,.08,0,.22,0,.39H39.1a3.4,3.4,0,0,0,.82,2.23,2.46,2.46,0,0,0,1.84.77,2.29,2.29,0,0,0,1.41-.43A3,3,0,0,0,44.09,62.39ZM39.18,60H44.1a2.92,2.92,0,0,0-.56-1.67,2.28,2.28,0,0,0-1.85-.87,2.37,2.37,0,0,0-1.73.69A2.74,2.74,0,0,0,39.18,60Z" style="fill:#333"/><path d="M49.13,65.23l-2.69-8.82H48l1.4,5.09.53,1.9c0-.1.17-.7.45-1.82l1.41-5.17H53.3l1.32,5.12.44,1.68.51-1.7,1.51-5.1h1.45l-2.76,8.82H54.22L52.82,60l-.34-1.5-1.79,6.78Z" style="fill:#333"/></g></svg>