<?xml version="1.0" encoding="utf-8"?>
<!-- Generator: Adobe Illustrator 24.2.1, SVG Export Plug-In . SVG Version: 6.00 Build 0)  -->
<svg version="1.1" id="Layer_1" xmlns="http://www.w3.org/2000/svg" xmlns:xlink="http://www.w3.org/1999/xlink" x="0px" y="0px"
	 viewBox="0 0 300 50" style="enable-background:new 0 0 300 50;" xml:space="preserve">
<style type="text/css">
	.st0{fill:#06754B;}
	.st1{fill:#FFFFFF;}
</style>
<path class="st0" d="M287,50H13C5.8,50,0,44.2,0,37V13C0,5.8,5.8,0,13,0h274c7.2,0,13,5.8,13,13v24C300,44.2,294.2,50,287,50z"/>
<g>
	<g>
		<path class="st1" d="M104.7,23.4C104.7,23.4,104.7,23.4,104.7,23.4c0.2,0,0.3-0.2,0.3-0.4c-0.1-0.5-0.3-1-0.6-1.5
			c-0.1-0.1-0.3-0.2-0.4-0.1c-0.1,0.1-0.2,0.3-0.1,0.4c0.2,0.4,0.4,0.9,0.5,1.3C104.4,23.3,104.5,23.4,104.7,23.4L104.7,23.4z"/>
		<path class="st1" d="M99.3,26.8c0.2,0,0.3-0.1,0.3-0.3v-4.1c0-0.2-0.1-0.3-0.3-0.3h-1.7c-0.2,0-0.3,0.1-0.3,0.3v4.1
			c0,0.2,0.1,0.3,0.3,0.3c0.2,0,0.3-0.1,0.3-0.3v-1.7H99v1.7C99,26.7,99.2,26.8,99.3,26.8L99.3,26.8z M97.9,24.2v-1.4H99v1.4H97.9z"
			/>
		<path class="st1" d="M100.8,22.5v4.1c0,0.2,0.1,0.3,0.3,0.3s0.3-0.1,0.3-0.3v-4.1c0-0.2-0.1-0.3-0.3-0.3S100.8,22.3,100.8,22.5z"
			/>
		<path class="st1" d="M95,23.5c-0.4,0-0.7,0.2-0.8,0.6h-4.7c-0.2,0-0.3,0.1-0.3,0.3c0,0.2,0.1,0.3,0.3,0.3h4.7
			c0.1,0.3,0.5,0.6,0.8,0.6c0.5,0,0.9-0.4,0.9-0.9S95.5,23.5,95,23.5z M95,24.7c-0.2,0-0.3-0.1-0.3-0.3c0-0.2,0.1-0.3,0.3-0.3
			c0.2,0,0.3,0.1,0.3,0.3C95.3,24.6,95.2,24.7,95,24.7z"/>
		<path class="st1" d="M102.8,24.4c0,0.5,0.4,0.9,0.9,0.9c0.4,0,0.7-0.2,0.8-0.6h4.7c0.2,0,0.3-0.1,0.3-0.3c0-0.2-0.1-0.3-0.3-0.3
			h-4.7c-0.1-0.3-0.5-0.6-0.8-0.6C103.2,23.5,102.8,23.9,102.8,24.4L102.8,24.4z M104,24.4c0,0.2-0.1,0.3-0.3,0.3
			c-0.2,0-0.3-0.1-0.3-0.3c0-0.2,0.1-0.3,0.3-0.3C103.8,24.1,104,24.2,104,24.4z"/>
		<path class="st1" d="M108.6,30.3c-0.4,0-0.7,0.2-0.8,0.6h-4.2l-1.5-1.3c0.3-0.2,0.6-0.4,0.9-0.6c1-0.8,1.7-1.9,2-3.2
			c0-0.2-0.1-0.3-0.2-0.4c-0.2,0-0.3,0.1-0.4,0.2c-0.3,1.1-0.9,2.1-1.8,2.9c-0.9,0.7-2.1,1.1-3.3,1.1s-2.3-0.4-3.3-1.1
			c-0.9-0.7-1.6-1.7-1.8-2.9c0-0.2-0.2-0.3-0.4-0.2c-0.2,0-0.3,0.2-0.2,0.4c0.3,1.2,1,2.4,2,3.2c0.3,0.2,0.6,0.4,0.9,0.6l-1.5,1.3
			h-4.2c-0.1-0.3-0.5-0.6-0.8-0.6c-0.5,0-0.9,0.4-0.9,0.9c0,0.5,0.4,0.9,0.9,0.9c0.4,0,0.7-0.2,0.8-0.6h4.3c0.1,0,0.1,0,0.2-0.1
			l1.8-1.5c0.4,0.1,0.8,0.3,1.2,0.3L98.4,31c0,0.2,0.1,0.3,0.3,0.3c0,0,0,0,0,0c0.2,0,0.3-0.1,0.3-0.3l0.1-0.8c0.1,0,0.2,0,0.3,0
			c0.1,0,0.2,0,0.4,0l0.2,2.9h-1.1l0-0.7c0-0.2-0.1-0.3-0.3-0.3c-0.2,0-0.3,0.1-0.3,0.3l-0.1,1.5c0,0.3,0.1,0.7,0.3,0.9
			c0.2,0.2,0.5,0.4,0.9,0.4c0.3,0,0.6-0.1,0.9-0.4c0.2-0.2,0.3-0.6,0.3-0.9l-0.2-3.8c0.4-0.1,0.8-0.2,1.1-0.3l1.8,1.5
			c0.1,0,0.1,0.1,0.2,0.1h4.3c0.1,0.3,0.5,0.6,0.8,0.6c0.5,0,0.9-0.4,0.9-0.9S109.1,30.3,108.6,30.3L108.6,30.3z M90,31.5
			c-0.2,0-0.3-0.1-0.3-0.3s0.1-0.3,0.3-0.3c0.2,0,0.3,0.1,0.3,0.3S90.2,31.5,90,31.5z M99.8,34.4c-0.1,0.1-0.3,0.2-0.4,0.2
			c-0.2,0-0.3-0.1-0.4-0.2c-0.1-0.1-0.2-0.3-0.2-0.4l0-0.2h1.2l0,0.2C99.9,34.1,99.9,34.3,99.8,34.4L99.8,34.4z M108.6,31.5
			c-0.2,0-0.3-0.1-0.3-0.3s0.1-0.3,0.3-0.3c0.2,0,0.3,0.1,0.3,0.3S108.8,31.5,108.6,31.5z"/>
		<path class="st1" d="M90,18.5c0.4,0,0.7-0.2,0.8-0.6h4.2l1.5,1.3c-1.4,0.8-2.5,2.1-2.9,3.7c0,0.2,0.1,0.3,0.2,0.4c0,0,0,0,0.1,0
			c0.1,0,0.3-0.1,0.3-0.2c0.6-2.3,2.7-4,5.1-4c1.4,0,2.8,0.6,3.7,1.6c0.1,0.1,0.3,0.1,0.4,0c0.1-0.1,0.1-0.3,0-0.4
			c-0.4-0.5-0.9-0.8-1.5-1.1l1.5-1.3h4.2c0.1,0.3,0.5,0.6,0.8,0.6c0.5,0,0.9-0.4,0.9-0.9s-0.4-0.9-0.9-0.9c-0.4,0-0.7,0.2-0.8,0.6
			h-4.3c-0.1,0-0.1,0-0.2,0.1l-1.8,1.5c-0.6-0.2-1.2-0.3-1.8-0.4v-2c0.3-0.1,0.6-0.5,0.6-0.8c0-0.5-0.4-0.9-0.9-0.9
			c-0.5,0-0.9,0.4-0.9,0.9c0,0.4,0.2,0.7,0.6,0.8v2c-0.6,0-1.2,0.2-1.8,0.4l-1.8-1.5c-0.1,0-0.1-0.1-0.2-0.1h-4.3
			c-0.1-0.3-0.5-0.6-0.8-0.6c-0.5,0-0.9,0.4-0.9,0.9S89.6,18.5,90,18.5L90,18.5z M108.6,17.3c0.2,0,0.3,0.1,0.3,0.3
			c0,0.2-0.1,0.3-0.3,0.3c-0.2,0-0.3-0.1-0.3-0.3C108.3,17.5,108.4,17.3,108.6,17.3z M99.3,15.4c0.2,0,0.3,0.1,0.3,0.3
			S99.5,16,99.3,16c-0.2,0-0.3-0.1-0.3-0.3S99.2,15.4,99.3,15.4z M90,17.3c0.2,0,0.3,0.1,0.3,0.3c0,0.2-0.1,0.3-0.3,0.3
			c-0.2,0-0.3-0.1-0.3-0.3C89.7,17.5,89.9,17.3,90,17.3z"/>
	</g>
</g>
</svg>
