<?xml version="1.0" encoding="utf-8"?>
<!-- Generator: Adobe Illustrator 24.2.1, SVG Export Plug-In . SVG Version: 6.00 Build 0)  -->
<svg version="1.1" id="Layer_1" xmlns="http://www.w3.org/2000/svg" xmlns:xlink="http://www.w3.org/1999/xlink" x="0px" y="0px"
	 viewBox="0 0 300 50" style="enable-background:new 0 0 300 50;" xml:space="preserve">
<style type="text/css">
	.st0{fill:#06754B;}
	.st1{fill:#FFFFFF;}
	.st2{font-family:'ArialMT';}
	.st3{font-size:21px;}
</style>
<path class="st0" d="M290,50H10C4.5,50,0,45.5,0,40V10C0,4.5,4.5,0,10,0h280c5.5,0,10,4.5,10,10v30C300,45.5,295.5,50,290,50z"/>
<g>
	<g>
		<path class="st1" d="M122.1,29.4h0.4v0.4h-0.4V29.4z"/>
		<path class="st1" d="M122.1,29.4h0.4v0.4h-0.4V29.4z"/>
		<path class="st1" d="M122.1,30.2h0.4v0.4h-0.4V30.2z"/>
		<path class="st1" d="M122.1,28.7h0.4V29h-0.4V28.7z"/>
		<path class="st1" d="M122.1,29.4h0.4v0.4h-0.4V29.4z"/>
		<path class="st1" d="M122.1,29.4h0.4v0.4h-0.4V29.4z"/>
		<path class="st1" d="M122.1,30.2h0.4v0.4h-0.4V30.2z"/>
		<path class="st1" d="M122.1,28.7h0.4V29h-0.4V28.7z"/>
		<path class="st1" d="M117.9,22.9c-0.1,0-0.1,0-0.2,0.1l-1,1h-0.4c-0.1-0.2-0.3-0.4-0.6-0.4c-0.3,0-0.6,0.3-0.6,0.6
			c0,0.3,0.3,0.6,0.6,0.6c0.3,0,0.5-0.2,0.6-0.4h0.5c0.1,0,0.1,0,0.2-0.1l1-1h3.3v1.1l-1.8,0.8c-0.1,0-0.1,0.1-0.1,0.2v1.7
			c0,0.1,0.1,0.2,0.1,0.2l1.9,0.8c0,0,0.1,0,0.1,0c0,0,0.1,0,0.1,0l1.9-0.8c0.1,0,0.1-0.1,0.1-0.2v-1.7c0-0.1-0.1-0.2-0.1-0.2
			l-1.8-0.8v-1.1h0.6v0.2c0,0.6,0.5,1.1,1.1,1.1c0.1,0,0.2-0.1,0.2-0.2v-1.1h1.4l1,1c0.1,0.1,0.1,0.1,0.2,0.1h0.5
			c0.1,0.2,0.3,0.4,0.6,0.4c0.3,0,0.6-0.3,0.6-0.6c0-0.3-0.3-0.6-0.6-0.6c-0.3,0-0.5,0.2-0.6,0.4h-0.4l-1-1
			c-0.1-0.1-0.1-0.1-0.2-0.1h-0.6c0.1-0.1,0.2-0.3,0.2-0.4h2c0.1,0.2,0.3,0.4,0.6,0.4c0.3,0,0.6-0.3,0.6-0.6s-0.3-0.6-0.6-0.6
			c-0.3,0-0.5,0.2-0.6,0.4h-2c0-0.1-0.1-0.3-0.2-0.4l1.6-1.6c0.1-0.1,0.1-0.1,0.1-0.2v-0.6h1.5c0.1,0,0.2-0.1,0.2-0.2v-2.1
			c0-0.1,0-0.1-0.1-0.2l-1.3-1.3c-0.1-0.1-0.1-0.1-0.2-0.1h-2.1c-0.1,0-0.2,0.1-0.2,0.2v3.4c0,0.1,0.1,0.2,0.2,0.2h1.5v0.5l-1.5,1.5
			c-0.1-0.1-0.2-0.1-0.4-0.2c0-0.2-0.1-0.5-0.4-0.8c-0.2-0.2-0.5-0.3-0.7-0.3c-0.1,0-0.2,0-0.4,0.1c-0.2-0.2-0.4-0.4-0.7-0.5v-0.4
			h1.5c0.1,0,0.2-0.1,0.2-0.2v-2.1c0-0.1,0-0.1-0.1-0.2l-1.3-1.3c-0.1-0.1-0.1-0.1-0.2-0.1h-2.1c-0.1,0-0.2,0.1-0.2,0.2v3.4
			c0,0.1,0.1,0.2,0.2,0.2h1.5v0.4c-0.3,0.1-0.5,0.2-0.7,0.5c-0.1-0.1-0.2-0.1-0.4-0.1c-0.3,0-0.5,0.1-0.7,0.3
			c-0.3,0.3-0.4,0.5-0.4,0.8c-0.1,0-0.3,0.1-0.4,0.2l-1.5-1.5v-0.5h1.5c0.1,0,0.2-0.1,0.2-0.2v-2.1c0-0.1,0-0.1-0.1-0.2l-1.3-1.3
			c-0.1-0.1-0.1-0.1-0.2-0.1h-2.1c-0.1,0-0.2,0.1-0.2,0.2v3.4c0,0.1,0.1,0.2,0.2,0.2h1.5V20c0,0.1,0,0.1,0.1,0.2l1.6,1.6
			c-0.1,0.1-0.1,0.2-0.2,0.4h-2c-0.1-0.2-0.3-0.4-0.6-0.4c-0.3,0-0.6,0.3-0.6,0.6c0,0.3,0.3,0.6,0.6,0.6c0.3,0,0.5-0.2,0.6-0.4h2
			c0,0.2,0.1,0.3,0.2,0.4L117.9,22.9L117.9,22.9z M115.8,24.4c-0.1,0-0.2-0.1-0.2-0.2s0.1-0.2,0.2-0.2c0.1,0,0.2,0.1,0.2,0.2
			S115.9,24.4,115.8,24.4z M119.8,25.8l1.5,0.6v1.2l-1.5-0.6V25.8z M121.7,27.7v-1.2l1.5-0.6V27L121.7,27.7z M122.9,25.5l-1.4,0.6
			l-1.4-0.6l1.2-0.5v0.5h0.4V25L122.9,25.5z M127.2,24c0.1,0,0.2,0.1,0.2,0.2s-0.1,0.2-0.2,0.2c-0.1,0-0.2-0.1-0.2-0.2
			S127.1,24,127.2,24z M126.5,16.3l0.5,0.5h-0.5V16.3z M124.4,16h1.7v1c0,0.1,0.1,0.2,0.2,0.2h1.1v1.7h-3L124.4,16L124.4,16z
			 M122.1,16.3l0.5,0.5h-0.5V16.3z M120,16h1.7v1c0,0.1,0.1,0.2,0.2,0.2h1.1v1.7h-3V16z M117.7,16.3l0.5,0.5h-0.5V16.3z M115.6,16
			h1.7v1c0,0.1,0.1,0.2,0.2,0.2h1.1v1.7h-3V16z M127.2,22.1c0.1,0,0.2,0.1,0.2,0.2s-0.1,0.2-0.2,0.2c-0.1,0-0.2-0.1-0.2-0.2
			C127,22.2,127.1,22.1,127.2,22.1z M119.4,21.7L119.4,21.7c0.1,0,0.2,0,0.2-0.1c0.1-0.1,0.1-0.1,0.1-0.2c-0.1-0.2-0.1-0.3,0.2-0.6
			c0.1-0.1,0.3-0.2,0.4-0.2c0.1,0,0.2,0.1,0.3,0.1c0.1,0,0.1,0.1,0.2,0c0.1,0,0.1-0.1,0.1-0.1c0.1-0.3,0.3-0.4,0.6-0.4
			c0.3,0,0.5,0.2,0.6,0.4c0,0.1,0.1,0.1,0.1,0.1c0.1,0,0.1,0,0.2,0c0.1-0.1,0.2-0.1,0.3-0.1s0.3,0.1,0.4,0.2
			c0.3,0.3,0.3,0.5,0.2,0.6c0,0.1,0,0.1,0.1,0.2s0.1,0.1,0.2,0.1h0c0.2,0,0.3,0.1,0.5,0.2s0.2,0.3,0.2,0.5c0,0.3-0.3,0.6-0.7,0.6
			h-0.2c-0.1,0-0.2,0.1-0.2,0.2v1c-0.2-0.1-0.4-0.3-0.4-0.6v-0.4c0-0.1-0.1-0.2-0.2-0.2v-0.3l0.4-0.4c0.1-0.1,0.1-0.1,0.1-0.2v-0.6
			h-0.4V22l-0.4,0.4c-0.1,0.1-0.1,0.1-0.1,0.2V23h-0.4v-1.9h-0.4V23h-0.4v-0.4c0-0.1,0-0.1-0.1-0.2l-0.4-0.4v-0.5h-0.4v0.6
			c0,0.1,0,0.1,0.1,0.2l0.4,0.4V23h-1c-0.3,0-0.6-0.3-0.7-0.6c0-0.2,0.1-0.4,0.2-0.5C119,21.8,119.2,21.7,119.4,21.7L119.4,21.7z
			 M115.8,22.5c-0.1,0-0.2-0.1-0.2-0.2s0.1-0.2,0.2-0.2c0.1,0,0.2,0.1,0.2,0.2C116,22.5,115.9,22.5,115.8,22.5z"/>
	</g>
	<text transform="matrix(1 0 0 1 137.7918 30.6014)" class="st1 st2 st3">Train</text>
</g>
</svg>
