<svg id="Layer_1" data-name="Layer 1" xmlns="http://www.w3.org/2000/svg" viewBox="0 0 330 60"><path d="M315.7,60H14.3C6.38,60,0,53,0,44.4V15.6C0,7,6.38,0,14.3,0H315.7C323.62,0,330,7,330,15.6V44.4C330,53,323.62,60,315.7,60Z" style="fill:#0b754c"/><path d="M141.07,27.9a.48.48,0,0,1,0,.7l-3.7,3.5a.61.61,0,0,1-.8,0l-1.8-1.7a.48.48,0,0,1,0-.7.61.61,0,0,1,.8,0L137,31l3.3-3.1A.61.61,0,0,1,141.07,27.9Zm4,2.1a7.11,7.11,0,0,1-14.2,0,7.11,7.11,0,0,1,14.2,0Zm-1.2,0a5.9,5.9,0,0,0-6-5.7,5.83,5.83,0,0,0-6,5.7,5.9,5.9,0,0,0,6,5.7A5.83,5.83,0,0,0,143.87,30Z" style="fill:#fff"/><path d="M175.51,35.7V26.23H172V25h8.51v1.27h-3.55V35.7Z" style="fill:#fff"/><path d="M185.43,33.2l1.36.16a3.3,3.3,0,0,1-1.19,1.86,3.58,3.58,0,0,1-2.23.66,3.5,3.5,0,0,1-2.7-1.06,4.08,4.08,0,0,1-1-2.94,4.27,4.27,0,0,1,1-3.05,3.41,3.41,0,0,1,2.62-1.08,3.32,3.32,0,0,1,2.55,1.06,4.21,4.21,0,0,1,1,3c0,.07,0,.19,0,.35H181a3,3,0,0,0,.72,2,2.15,2.15,0,0,0,1.63.68,2.05,2.05,0,0,0,1.24-.38A2.53,2.53,0,0,0,185.43,33.2Zm-4.33-2.14h4.35a2.69,2.69,0,0,0-.5-1.47,2,2,0,0,0-1.64-.76,2.07,2.07,0,0,0-1.52.61A2.4,2.4,0,0,0,181.1,31.06Z" style="fill:#fff"/><path d="M187.92,33.38l1.31-.21a1.75,1.75,0,0,0,.61,1.2,2.11,2.11,0,0,0,1.4.42,2.07,2.07,0,0,0,1.35-.37,1.1,1.1,0,0,0,.44-.87.8.8,0,0,0-.39-.7,5.49,5.49,0,0,0-1.35-.45,11.59,11.59,0,0,1-2-.63,1.93,1.93,0,0,1-.85-.74,2,2,0,0,1-.29-1,2,2,0,0,1,.24-1,2.07,2.07,0,0,1,.65-.73,2.75,2.75,0,0,1,.84-.39,4.14,4.14,0,0,1,1.14-.15,4.37,4.37,0,0,1,1.6.26,2.16,2.16,0,0,1,1,.71,2.79,2.79,0,0,1,.46,1.21l-1.29.17a1.39,1.39,0,0,0-.51-.93,1.83,1.83,0,0,0-1.19-.34,2.16,2.16,0,0,0-1.3.3.9.9,0,0,0-.38.7.7.7,0,0,0,.16.46,1.1,1.1,0,0,0,.5.36q.19.08,1.17.33a18.58,18.58,0,0,1,1.95.61,2,2,0,0,1,.87.7,1.92,1.92,0,0,1,.31,1.12,2.29,2.29,0,0,1-.38,1.25,2.64,2.64,0,0,1-1.11.9,4.1,4.1,0,0,1-1.64.32,3.65,3.65,0,0,1-2.31-.63A3,3,0,0,1,187.92,33.38Z" style="fill:#fff"/><path d="M198.83,34.52l.19,1.17a5.53,5.53,0,0,1-1,.11,2.14,2.14,0,0,1-1.11-.23,1.23,1.23,0,0,1-.56-.59,4.7,4.7,0,0,1-.16-1.56V29h-1v-1h1V26l1.31-.79v2.72h1.33v1H197.5v4.54a2.22,2.22,0,0,0,.07.73.58.58,0,0,0,.23.26.89.89,0,0,0,.45.09A3.47,3.47,0,0,0,198.83,34.52Z" style="fill:#fff"/></svg>