<svg id="Layer_1" data-name="Layer 1" xmlns="http://www.w3.org/2000/svg" viewBox="0 0 182 182.3"><path id="Path_82" data-name="Path 82" d="M162.2,165.2c-27.9,22.8-115,22.8-142.3,0C-8,142.4-5.1,45.1,19.9,19.5s117.3-25.6,142.3,0S190.1,142.4,162.2,165.2Z" style="fill:#0b754c"/><path id="Path_83" data-name="Path 83" d="M91.6,125.4c-25,19.9-52.9,30.2-79.1,30.7C-6.9,123.1-2.9,42.8,19.9,19.5c20.5-21.1,84.8-25,121.8-12C150.8,45.1,132,92.9,91.6,125.4Z" style="fill:#007f4f"/><path d="M120.7,45.1h-53a3.16,3.16,0,0,0-3.2,3.2v1.1a3.16,3.16,0,0,0-3.2,3.2v1.1a3.16,3.16,0,0,0-3.2,3.2V95a3.16,3.16,0,0,0,3.2,3.2h53.1a3.16,3.16,0,0,0,3.2-3.2V93.9a3.16,3.16,0,0,0,3.2-3.2V89.6a3.16,3.16,0,0,0,3.2-3.2V48.3A3.31,3.31,0,0,0,120.7,45.1ZM115.4,95a1.11,1.11,0,0,1-1.1,1.1h-53A1.11,1.11,0,0,1,60.2,95V67.6L77.4,92.4a1.1,1.1,0,0,0,1.5.3l.3-.3L97.4,66.1l18,26.1Zm0-6.6L98.3,63.6a1,1,0,0,0-1.5-.2l-.2.2L78.3,90l-18-26.1V56.8a1.11,1.11,0,0,1,1.1-1.1h53.1a1.11,1.11,0,0,1,1.1,1.1V88.4Zm3.2,2.4a1.11,1.11,0,0,1-1.1,1.1v-35a3.16,3.16,0,0,0-3.2-3.2h-51V52.6a1.11,1.11,0,0,1,1.1-1.1h53.1a1.11,1.11,0,0,1,1.1,1.1Zm3.2-4.3a1.11,1.11,0,0,1-1.1,1.1v-35a3.16,3.16,0,0,0-3.2-3.2h-51V48.3a1.11,1.11,0,0,1,1.1-1.1h53.1a1.11,1.11,0,0,1,1.1,1.1Z" style="fill:#fff"/><path d="M66.6,57.9a4.2,4.2,0,1,0,4.2,4.2A4.23,4.23,0,0,0,66.6,57.9Zm0,6.3a2.1,2.1,0,1,1,0-4.2,2.18,2.18,0,0,1,2.1,2.1A2.05,2.05,0,0,1,66.6,64.2Z" style="fill:#fff"/><g style="isolation:isolate"><path d="M40.83,118.43h1.7v7.44a8.88,8.88,0,0,1-.44,3.09,3.78,3.78,0,0,1-1.58,1.86,5.61,5.61,0,0,1-3,.71,6.17,6.17,0,0,1-3-.62,3.61,3.61,0,0,1-1.64-1.81,8.53,8.53,0,0,1-.49-3.23v-7.44h1.7v7.44a7.17,7.17,0,0,0,.32,2.47,2.34,2.34,0,0,0,1.07,1.23,3.76,3.76,0,0,0,1.86.43,3.56,3.56,0,0,0,2.68-.86,4.9,4.9,0,0,0,.8-3.27Z" style="fill:#fff;stroke:#fff;stroke-miterlimit:10;stroke-width:0.25px"/><path d="M45.17,134.89V122h1.44v1.21a3.47,3.47,0,0,1,1.15-1.06,3.16,3.16,0,0,1,1.56-.36,3.66,3.66,0,0,1,3.49,2.35,6.79,6.79,0,0,1-.05,5,4,4,0,0,1-3.56,2.37,3,3,0,0,1-1.42-.34,3.17,3.17,0,0,1-1-.84v4.54Zm1.43-8.19a4,4,0,0,0,.73,2.66,2.24,2.24,0,0,0,1.77.87,2.27,2.27,0,0,0,1.8-.9,4.21,4.21,0,0,0,.75-2.76,4.11,4.11,0,0,0-.73-2.67,2.21,2.21,0,0,0-1.75-.89,2.27,2.27,0,0,0-1.79.94A4.23,4.23,0,0,0,46.6,126.7Z" style="fill:#fff;stroke:#fff;stroke-miterlimit:10;stroke-width:0.25px"/><path d="M55.14,131.32V118.43h1.59v12.89Z" style="fill:#fff;stroke:#fff;stroke-miterlimit:10;stroke-width:0.25px"/><path d="M58.59,126.65A4.81,4.81,0,0,1,60,122.81a4.35,4.35,0,0,1,2.94-1A4.17,4.17,0,0,1,66.11,123a4.77,4.77,0,0,1,1.22,3.49,6.17,6.17,0,0,1-.54,2.83,3.79,3.79,0,0,1-1.57,1.6,4.49,4.49,0,0,1-2.25.58,4.18,4.18,0,0,1-3.17-1.26A5,5,0,0,1,58.59,126.65Zm1.62,0a4,4,0,0,0,.79,2.68,2.6,2.6,0,0,0,3.93,0,4.08,4.08,0,0,0,.78-2.73,3.85,3.85,0,0,0-.79-2.63A2.6,2.6,0,0,0,61,124,4,4,0,0,0,60.21,126.65Z" style="fill:#fff;stroke:#fff;stroke-miterlimit:10;stroke-width:0.25px"/><path d="M75.28,130.16a6.06,6.06,0,0,1-1.69,1.06,5,5,0,0,1-1.75.31,3.35,3.35,0,0,1-2.36-.76,2.48,2.48,0,0,1-.83-1.92,2.59,2.59,0,0,1,1.13-2.16,4,4,0,0,1,1.14-.52,10.79,10.79,0,0,1,1.41-.23,15.29,15.29,0,0,0,2.82-.55c0-.22,0-.35,0-.41a1.72,1.72,0,0,0-.45-1.36,2.65,2.65,0,0,0-1.8-.54,2.79,2.79,0,0,0-1.65.39,2.35,2.35,0,0,0-.79,1.39l-1.55-.22a4,4,0,0,1,.7-1.6,3,3,0,0,1,1.4-.94,6.19,6.19,0,0,1,2.11-.33,5.59,5.59,0,0,1,2,.28,2.65,2.65,0,0,1,1.1.71,2.57,2.57,0,0,1,.49,1.08,9.1,9.1,0,0,1,.08,1.45v2.11a21.83,21.83,0,0,0,.1,2.79,3.64,3.64,0,0,0,.4,1.13H75.6A3.35,3.35,0,0,1,75.28,130.16Zm-.13-3.53a12.34,12.34,0,0,1-2.59.6,6.26,6.26,0,0,0-1.38.31,1.38,1.38,0,0,0-.62.52,1.3,1.3,0,0,0-.22.75,1.34,1.34,0,0,0,.48,1.05,2,2,0,0,0,1.4.43,3.36,3.36,0,0,0,1.63-.4,2.45,2.45,0,0,0,1-1.1,3.77,3.77,0,0,0,.26-1.58Z" style="fill:#fff;stroke:#fff;stroke-miterlimit:10;stroke-width:0.25px"/><path d="M85.26,131.32v-1.18a2.94,2.94,0,0,1-2.62,1.39,3.68,3.68,0,0,1-2-.62,4.1,4.1,0,0,1-1.45-1.72,6,6,0,0,1-.51-2.53,6.68,6.68,0,0,1,.46-2.54,3.64,3.64,0,0,1,1.4-1.74,3.7,3.7,0,0,1,2.08-.61,3.14,3.14,0,0,1,2.58,1.28v-4.62h1.57v12.89Zm-5-4.66a4.08,4.08,0,0,0,.76,2.68,2.25,2.25,0,0,0,3.55,0,3.94,3.94,0,0,0,.72-2.59,4.31,4.31,0,0,0-.74-2.81,2.27,2.27,0,0,0-1.82-.9,2.2,2.2,0,0,0-1.76.86A4.28,4.28,0,0,0,80.25,126.66Z" style="fill:#fff;stroke:#fff;stroke-miterlimit:10;stroke-width:0.25px"/><path d="M94.22,120.25v-1.82H95.8v1.82Zm0,11.07V122H95.8v9.34Z" style="fill:#fff;stroke:#fff;stroke-miterlimit:10;stroke-width:0.25px"/><path d="M98.21,131.32V122h1.42v1.31a3.28,3.28,0,0,1,2.83-1.52,3.06,3.06,0,0,1,1.7.43,2.32,2.32,0,0,1,.93,1.2,3.37,3.37,0,0,1,2.88-1.63,2.86,2.86,0,0,1,2.14.77,3.27,3.27,0,0,1,.75,2.37v6.41h-1.58v-5.88a4.43,4.43,0,0,0-.15-1.37,1.3,1.3,0,0,0-.56-.67,1.73,1.73,0,0,0-.95-.26,2.19,2.19,0,0,0-1.63.66,2.83,2.83,0,0,0-.65,2.09v5.43h-1.58v-6.07a2.65,2.65,0,0,0-.39-1.58,1.48,1.48,0,0,0-1.27-.53,2.34,2.34,0,0,0-1.23.35,2,2,0,0,0-.82,1,5.75,5.75,0,0,0-.26,2v4.85Z" style="fill:#fff;stroke:#fff;stroke-miterlimit:10;stroke-width:0.25px"/><path d="M119.3,130.16a6.1,6.1,0,0,1-1.7,1.06,5,5,0,0,1-1.74.31,3.38,3.38,0,0,1-2.37-.76,2.47,2.47,0,0,1-.82-1.92,2.55,2.55,0,0,1,.31-1.25,2.58,2.58,0,0,1,.82-.91,3.72,3.72,0,0,1,1.14-.52,10.58,10.58,0,0,1,1.4-.23,14.93,14.93,0,0,0,2.82-.55c0-.22,0-.35,0-.41a1.72,1.72,0,0,0-.45-1.36,2.62,2.62,0,0,0-1.8-.54,2.83,2.83,0,0,0-1.65.39,2.4,2.4,0,0,0-.78,1.39l-1.55-.22a3.86,3.86,0,0,1,.69-1.6,3.07,3.07,0,0,1,1.4-.94,6.25,6.25,0,0,1,2.12-.33,5.53,5.53,0,0,1,1.94.28,2.59,2.59,0,0,1,1.1.71,2.34,2.34,0,0,1,.49,1.08,8,8,0,0,1,.08,1.45v2.11a24,24,0,0,0,.1,2.79,3.64,3.64,0,0,0,.4,1.13h-1.65A3.35,3.35,0,0,1,119.3,130.16Zm-.14-3.53a12.06,12.06,0,0,1-2.58.6,6.26,6.26,0,0,0-1.38.31,1.33,1.33,0,0,0-.62.52,1.3,1.3,0,0,0-.22.75,1.33,1.33,0,0,0,.47,1.05,2,2,0,0,0,1.41.43,3.3,3.3,0,0,0,1.62-.4,2.42,2.42,0,0,0,1-1.1,3.79,3.79,0,0,0,.25-1.58Z" style="fill:#fff;stroke:#fff;stroke-miterlimit:10;stroke-width:0.25px"/><path d="M122.92,132.09l1.54.23a1.48,1.48,0,0,0,.54,1,2.59,2.59,0,0,0,1.61.44,2.74,2.74,0,0,0,1.69-.44,2.13,2.13,0,0,0,.81-1.23,10.58,10.58,0,0,0,.12-2,3.26,3.26,0,0,1-2.59,1.23,3.55,3.55,0,0,1-3-1.39,5.38,5.38,0,0,1-1-3.33,6.22,6.22,0,0,1,.48-2.47,3.71,3.71,0,0,1,3.56-2.36,3.37,3.37,0,0,1,2.73,1.34V122h1.46v8.07a7.58,7.58,0,0,1-.45,3.09,3.35,3.35,0,0,1-1.4,1.44,4.94,4.94,0,0,1-2.37.52,4.45,4.45,0,0,1-2.7-.75A2.53,2.53,0,0,1,122.92,132.09Zm1.31-5.61a4.07,4.07,0,0,0,.73,2.68,2.4,2.4,0,0,0,3.66,0,3.94,3.94,0,0,0,.74-2.64,3.86,3.86,0,0,0-.76-2.58,2.36,2.36,0,0,0-1.83-.87,2.29,2.29,0,0,0-1.8.86A3.81,3.81,0,0,0,124.23,126.48Z" style="fill:#fff;stroke:#fff;stroke-miterlimit:10;stroke-width:0.25px"/><path d="M139.62,128.31l1.63.2a4,4,0,0,1-1.43,2.22,4.3,4.3,0,0,1-2.67.8,4.24,4.24,0,0,1-3.25-1.27,4.92,4.92,0,0,1-1.2-3.53,5.17,5.17,0,0,1,1.21-3.66,4.1,4.1,0,0,1,3.15-1.3,4,4,0,0,1,3.06,1.27,5.08,5.08,0,0,1,1.18,3.59c0,.09,0,.23,0,.42h-7a3.62,3.62,0,0,0,.87,2.36,2.62,2.62,0,0,0,2,.82,2.47,2.47,0,0,0,1.49-.46A3.06,3.06,0,0,0,139.62,128.31Zm-5.2-2.56h5.21A3.27,3.27,0,0,0,139,124a2.46,2.46,0,0,0-2-.91,2.52,2.52,0,0,0-1.84.73A2.91,2.91,0,0,0,134.42,125.75Z" style="fill:#fff;stroke:#fff;stroke-miterlimit:10;stroke-width:0.25px"/><path d="M142.6,128.53l1.57-.25a2.18,2.18,0,0,0,.73,1.44,2.53,2.53,0,0,0,1.69.51,2.44,2.44,0,0,0,1.61-.45,1.32,1.32,0,0,0,.53-1,1,1,0,0,0-.47-.84,6.78,6.78,0,0,0-1.61-.54,15.07,15.07,0,0,1-2.42-.76,2.4,2.4,0,0,1-1-.89,2.35,2.35,0,0,1-.34-1.25,2.43,2.43,0,0,1,.28-1.16,2.53,2.53,0,0,1,.78-.88,3.41,3.41,0,0,1,1-.46,4.61,4.61,0,0,1,1.36-.19,5.38,5.38,0,0,1,1.93.32,2.57,2.57,0,0,1,1.23.85,3.44,3.44,0,0,1,.54,1.45l-1.54.21a1.69,1.69,0,0,0-.61-1.12,2.25,2.25,0,0,0-1.43-.41,2.6,2.6,0,0,0-1.56.36,1,1,0,0,0-.46.84.88.88,0,0,0,.19.56,1.37,1.37,0,0,0,.61.42c.15.06.62.19,1.39.4a20.15,20.15,0,0,1,2.35.74,2.39,2.39,0,0,1,1,.83,2.31,2.31,0,0,1,.38,1.35,2.63,2.63,0,0,1-.47,1.49,2.88,2.88,0,0,1-1.33,1.08,4.74,4.74,0,0,1-2,.39,4.41,4.41,0,0,1-2.77-.76A3.5,3.5,0,0,1,142.6,128.53Z" style="fill:#fff;stroke:#fff;stroke-miterlimit:10;stroke-width:0.25px"/></g><circle cx="120.3" cy="92.2" r="17.3" style="fill:#fff"/><path d="M128.8,94.4v5.5a.86.86,0,0,1-.8.8H112.6a.86.86,0,0,1-.8-.8V94.4h-1.6v5.5a2.43,2.43,0,0,0,2.4,2.4H128a2.43,2.43,0,0,0,2.4-2.4V94.4Z" style="fill:#0b754c"/><polygon points="120.3 82.2 115.5 87 116.6 88.1 119.6 85.2 119.6 97.4 121.1 97.4 121.1 85.2 124.1 88.1 125.2 87 120.3 82.2" style="fill:#0b754c"/></svg>