<svg xmlns="http://www.w3.org/2000/svg" xmlns:xlink="http://www.w3.org/1999/xlink" width="155" height="152" viewBox="0 0 155 152">
  <defs>
    <clipPath id="clip-path">
      <rect id="Rectangle_103" data-name="Rectangle 103" width="148" height="146" rx="57" transform="translate(26 53.124)" fill="#fff" stroke="#007e4e" stroke-width="11"/>
    </clipPath>
  </defs>
  <g id="Group_111" data-name="Group 111" transform="translate(-3981 -1374)" style="mix-blend-mode: luminosity;isolation: isolate">
    <rect id="Rectangle_18" data-name="Rectangle 18" width="146" height="144" rx="57" transform="translate(3990 1382)" fill="#fff"/>
    <g id="Mask_Group_6" data-name="Mask Group 6" transform="translate(3955 1320.876)" opacity="0.66" clip-path="url(#clip-path)">
      <g id="money_1_" data-name="money (1)" transform="translate(74.434 113.053)">
        <path id="Path_151" data-name="Path 151" d="M0,396.649V378.308L48.461,367.93l48.461,10.377v18.342l-48.461,9.17Zm0,0" transform="translate(0 -329.008)" fill="#59c230"/>
        <path id="Path_152" data-name="Path 152" d="M0,396.649V378.308L48.461,367.93l48.461,10.377v18.342l-48.461,9.17Zm0,0" transform="translate(0 -311.643)" fill="#59c230"/>
        <path id="Path_153" data-name="Path 153" d="M0,319.879H96.922v21.588H0Zm0,0" transform="translate(0 -289.447)" fill="#9bd981"/>
        <path id="Path_154" data-name="Path 154" d="M0,319.879H96.922v15.436H0Zm0,0" transform="translate(0 -260.891)" fill="#9bd981"/>
        <path id="Path_155" data-name="Path 155" d="M0,455.852v13.595c0,4.62,1.943,8.364,4.34,8.364H92.583c2.4,0,4.34-3.744,4.34-8.364V455.852Zm0,0" transform="translate(0 -374.498)" fill="#9bd981"/>
        <path id="Path_156" data-name="Path 156" d="M14.761,392.441,0,394.159V407.45l14.761,1.518Zm0,0" transform="translate(0 -342.21)" fill="#489f24"/>
        <path id="Path_157" data-name="Path 157" d="M14.761,392.441,0,394.159V407.45l14.761,1.518Zm0,0" transform="translate(0 -324.845)" fill="#489f24"/>
        <path id="Path_158" data-name="Path 158" d="M0,319.879H14.761v21.588H0Zm0,0" transform="translate(0 -289.447)" fill="#59c230"/>
        <path id="Path_159" data-name="Path 159" d="M0,319.879H14.761v15.436H0Zm0,0" transform="translate(0 -260.891)" fill="#59c230"/>
        <path id="Path_160" data-name="Path 160" d="M92.119,0H4.8C2.151,0,0,1.058,0,2.363V31.928c0,1.3,2.15,2.363,4.8,2.363H92.12c2.652,0,4.8-1.058,4.8-2.363V2.363c0-1.3-2.151-2.363-4.8-2.363Zm0,0" transform="translate(0)" fill="#59c230"/>
        <path id="Path_161" data-name="Path 161" d="M8.359,31.928V2.363c0-1.3,2.866-2.363,6.4-2.363H6.4C2.866,0,0,1.058,0,2.363V31.928c0,1.3,2.866,2.363,6.4,2.363h8.359C11.225,34.291,8.359,33.233,8.359,31.928Zm0,0" transform="translate(0 0)" fill="#489f24"/>
        <path id="Path_162" data-name="Path 162" d="M14.761,455.852H0v13.595c0,4.62,2.589,8.364,5.784,8.364h8.977Zm0,0" transform="translate(0 -374.498)" fill="#59c230"/>
      </g>
    </g>
    <g id="Rectangle_11" data-name="Rectangle 11" transform="translate(3990 1382)" fill="none" stroke="#007e4e" stroke-width="11">
      <rect width="146" height="144" rx="57" stroke="none"/>
      <rect x="5.5" y="5.5" width="135" height="133" rx="51.5" fill="none"/>
    </g>
    <text id="annotate" transform="translate(4063 1486)" fill="#333" font-size="18" font-family="ArialRoundedMTBold, Arial Rounded MT"><tspan x="-51.003" y="0">ANNOTATE</tspan></text>
    <circle id="Ellipse_20" data-name="Ellipse 20" cx="23" cy="23" r="23" transform="translate(3989 1374)" fill="#007e4e"/>
    <text id="_3" data-name="3" transform="translate(4005 1406)" fill="#fff" font-size="24" font-family="ArialRoundedMTBold, Arial Rounded MT"><tspan x="0" y="0">3</tspan></text>
    <g id="interface" transform="translate(4038.667 1414)">
      <g id="Group_67" data-name="Group 67">
        <path id="Path_100" data-name="Path 100" d="M1.416,8.5H2.832V14.16a1.416,1.416,0,1,0,2.832,0V8.5H7.08A1.415,1.415,0,0,0,8.5,7.08V5.664H14.16a1.416,1.416,0,1,0,0-2.832H8.5V1.416A1.415,1.415,0,0,0,7.08,0H1.416A1.415,1.415,0,0,0,0,1.416V7.08A1.415,1.415,0,0,0,1.416,8.5ZM2.832,2.832H5.664V5.664H2.832ZM46.917,0H41.253a1.415,1.415,0,0,0-1.416,1.416V2.832H34.173a1.416,1.416,0,1,0,0,2.832h5.664V7.08A1.415,1.415,0,0,0,41.253,8.5h1.416V14.16a1.416,1.416,0,1,0,2.832,0V8.5h1.416A1.415,1.415,0,0,0,48.333,7.08V1.416A1.415,1.415,0,0,0,46.917,0ZM45.5,5.664H42.669V2.832H45.5Zm1.416,34.173H45.5V34.173a1.416,1.416,0,1,0-2.832,0v5.664H41.253a1.415,1.415,0,0,0-1.416,1.416v1.416H34.173a1.416,1.416,0,1,0,0,2.832h5.664v1.416a1.415,1.415,0,0,0,1.416,1.416h5.664a1.415,1.415,0,0,0,1.416-1.416V41.253A1.415,1.415,0,0,0,46.917,39.837ZM45.5,45.5H42.669V42.669H45.5ZM19.919,5.664h8.5a1.416,1.416,0,1,0,0-2.832h-8.5a1.416,1.416,0,1,0,0,2.832Zm8.5,37.005h-8.5a1.416,1.416,0,1,0,0,2.832h8.5a1.416,1.416,0,1,0,0-2.832Zm-14.255,0H8.5V41.253A1.415,1.415,0,0,0,7.08,39.837H5.664V34.173a1.416,1.416,0,1,0-2.832,0v5.664H1.416A1.415,1.415,0,0,0,0,41.253v5.664a1.415,1.415,0,0,0,1.416,1.416H7.08A1.415,1.415,0,0,0,8.5,46.917V45.5H14.16a1.416,1.416,0,1,0,0-2.832ZM5.664,45.5H2.832V42.669H5.664Zm-1.416-27a1.415,1.415,0,0,0-1.416,1.416v8.5a1.416,1.416,0,1,0,2.832,0v-8.5A1.415,1.415,0,0,0,4.248,18.5ZM44.085,29.831A1.415,1.415,0,0,0,45.5,28.415v-8.5a1.416,1.416,0,1,0-2.832,0v8.5A1.415,1.415,0,0,0,44.085,29.831ZM28.415,39.743a11.328,11.328,0,1,0,0-22.656v-7.08A1.415,1.415,0,0,0,27,8.591H10.007a1.415,1.415,0,0,0-1.416,1.416V27a1.415,1.415,0,0,0,1.416,1.416h7.08A11.34,11.34,0,0,0,28.415,39.743ZM11.423,25.583V11.423h14.16v6.066a11.311,11.311,0,0,0-8.094,8.094Zm14.16-5.142v5.142H20.441A8.484,8.484,0,0,1,25.583,20.441ZM27,28.415A1.415,1.415,0,0,0,28.415,27v-7.08a8.5,8.5,0,1,1-8.5,8.5Z" fill="#003722"/>
      </g>
    </g>
  </g>
</svg>
