<svg xmlns="http://www.w3.org/2000/svg" width="19.445" height="23.334" viewBox="0 0 19.445 23.334">
  <g id="internet" transform="translate(-9.333 -10.333)">
    <path id="Path_75" data-name="Path 75" d="M10.458,15.292h2.431v6.32a1.944,1.944,0,1,0,3.889,0v-6.32h2.431A1.46,1.46,0,0,0,20.239,12.8L15.864,8.428a1.455,1.455,0,0,0-2.061,0L9.428,12.8A1.46,1.46,0,0,0,10.458,15.292Z" transform="translate(4.222 2.333)" fill="#309fc2"/>
    <path id="Path_76" data-name="Path 76" d="M22.556,23.778H10.889A3.893,3.893,0,0,1,7,19.889V17.944a1.944,1.944,0,1,1,3.889,0v1.944H22.556V17.944a1.944,1.944,0,1,1,3.889,0v1.944A3.893,3.893,0,0,1,22.556,23.778Z" transform="translate(2.333 9.889)" fill="#309fc2"/>
  </g>
</svg>
