<svg id="interface" xmlns="http://www.w3.org/2000/svg" width="80" height="80" viewBox="0 0 80 80">
  <g id="Group_67" data-name="Group 67">
    <path id="Path_100" data-name="Path 100" d="M2.344,14.063H4.688v9.375a2.344,2.344,0,0,0,4.688,0V14.063h2.344a2.342,2.342,0,0,0,2.344-2.344V9.375h9.375a2.344,2.344,0,0,0,0-4.687H14.063V2.344A2.342,2.342,0,0,0,11.719,0H2.344A2.342,2.342,0,0,0,0,2.344v9.375A2.342,2.342,0,0,0,2.344,14.063ZM4.688,4.688H9.375V9.375H4.688ZM77.656,0H68.281a2.342,2.342,0,0,0-2.344,2.344V4.688H56.563a2.344,2.344,0,0,0,0,4.688h9.375v2.344a2.342,2.342,0,0,0,2.344,2.344h2.344v9.375a2.344,2.344,0,0,0,4.688,0V14.063h2.344A2.342,2.342,0,0,0,80,11.719V2.344A2.342,2.342,0,0,0,77.656,0ZM75.313,9.375H70.625V4.688h4.688Zm2.344,56.563H75.313V56.563a2.344,2.344,0,0,0-4.687,0v9.375H68.281a2.342,2.342,0,0,0-2.344,2.344v2.344H56.563a2.344,2.344,0,0,0,0,4.688h9.375v2.344A2.342,2.342,0,0,0,68.281,80h9.375A2.342,2.342,0,0,0,80,77.656V68.281A2.342,2.342,0,0,0,77.656,65.938Zm-2.344,9.375H70.625V70.625h4.688ZM32.969,9.375H47.031a2.344,2.344,0,0,0,0-4.687H32.969a2.344,2.344,0,0,0,0,4.688Zm14.063,61.25H32.969a2.344,2.344,0,0,0,0,4.688H47.031a2.344,2.344,0,0,0,0-4.687Zm-23.594,0H14.063V68.281a2.342,2.342,0,0,0-2.344-2.344H9.375V56.563a2.344,2.344,0,0,0-4.687,0v9.375H2.344A2.342,2.342,0,0,0,0,68.281v9.375A2.342,2.342,0,0,0,2.344,80h9.375a2.342,2.342,0,0,0,2.344-2.344V75.313h9.375a2.344,2.344,0,0,0,0-4.687ZM9.375,75.313H4.688V70.625H9.375ZM7.031,30.625a2.342,2.342,0,0,0-2.344,2.344V47.031a2.344,2.344,0,0,0,4.688,0V32.969A2.342,2.342,0,0,0,7.031,30.625Zm65.938,18.75a2.342,2.342,0,0,0,2.344-2.344V32.969a2.344,2.344,0,0,0-4.687,0V47.031A2.342,2.342,0,0,0,72.969,49.375ZM47.031,65.781a18.75,18.75,0,0,0,0-37.5V16.563a2.342,2.342,0,0,0-2.344-2.344H16.563a2.342,2.342,0,0,0-2.344,2.344V44.688a2.342,2.342,0,0,0,2.344,2.344H28.281A18.77,18.77,0,0,0,47.031,65.781ZM18.906,42.344V18.906H42.344v10.04a18.721,18.721,0,0,0-13.4,13.4Zm23.438-8.511v8.511H33.833A14.042,14.042,0,0,1,42.344,33.833Zm2.344,13.2a2.342,2.342,0,0,0,2.344-2.344V32.969A14.063,14.063,0,1,1,32.969,47.031Z" fill="#333"/>
  </g>
</svg>
