<svg xmlns="http://www.w3.org/2000/svg" width="19.445" height="23.334" viewBox="0 0 19.445 23.334">
  <g id="internet" transform="translate(-9.333 -10.333)">
    <path id="Path_75" data-name="Path 75" d="M1.459,7.292H3.889v6.32a1.944,1.944,0,1,0,3.889,0V7.292h2.431A1.46,1.46,0,0,0,11.239,4.8L6.864.428A1.455,1.455,0,0,0,4.8.428L.428,4.8A1.46,1.46,0,0,0,1.459,7.292Z" transform="translate(24.89 25.889) rotate(180)" fill="#309fc2"/>
    <path id="Path_76" data-name="Path 76" d="M22.556,23.778H10.889A3.893,3.893,0,0,1,7,19.889V17.945a1.944,1.944,0,1,1,3.889,0v1.944H22.556V17.945a1.945,1.945,0,1,1,3.889,0v1.944A3.893,3.893,0,0,1,22.556,23.778Z" transform="translate(2.333 9.889)" fill="#309fc2"/>
  </g>
</svg>
