<svg id="interface" xmlns="http://www.w3.org/2000/svg" width="26" height="26" viewBox="0 0 26 26">
  <g id="Group_67" data-name="Group 67">
    <path id="Path_100" data-name="Path 100" d="M.762,4.57h.762V7.617a.762.762,0,0,0,1.523,0V4.57h.762a.761.761,0,0,0,.762-.762V3.047H7.617a.762.762,0,0,0,0-1.523H4.57V.762A.761.761,0,0,0,3.809,0H.762A.761.761,0,0,0,0,.762V3.809A.761.761,0,0,0,.762,4.57Zm.762-3.047H3.047V3.047H1.523ZM25.238,0H22.191a.761.761,0,0,0-.762.762v.762H18.383a.762.762,0,0,0,0,1.523H21.43v.762a.761.761,0,0,0,.762.762h.762V7.617a.762.762,0,0,0,1.523,0V4.57h.762A.761.761,0,0,0,26,3.809V.762A.761.761,0,0,0,25.238,0Zm-.762,3.047H22.953V1.523h1.523Zm.762,18.383h-.762V18.383a.762.762,0,0,0-1.523,0V21.43h-.762a.761.761,0,0,0-.762.762v.762H18.383a.762.762,0,0,0,0,1.523H21.43v.762a.761.761,0,0,0,.762.762h3.047A.761.761,0,0,0,26,25.238V22.191A.761.761,0,0,0,25.238,21.43Zm-.762,3.047H22.953V22.953h1.523ZM10.715,3.047h4.57a.762.762,0,0,0,0-1.523h-4.57a.762.762,0,0,0,0,1.523Zm4.57,19.906h-4.57a.762.762,0,0,0,0,1.523h4.57a.762.762,0,0,0,0-1.523Zm-7.668,0H4.57v-.762a.761.761,0,0,0-.762-.762H3.047V18.383a.762.762,0,0,0-1.523,0V21.43H.762A.761.761,0,0,0,0,22.191v3.047A.761.761,0,0,0,.762,26H3.809a.761.761,0,0,0,.762-.762v-.762H7.617a.762.762,0,0,0,0-1.523Zm-4.57,1.523H1.523V22.953H3.047ZM2.285,9.953a.761.761,0,0,0-.762.762v4.57a.762.762,0,0,0,1.523,0v-4.57A.761.761,0,0,0,2.285,9.953Zm21.43,6.094a.761.761,0,0,0,.762-.762v-4.57a.762.762,0,0,0-1.523,0v4.57A.761.761,0,0,0,23.715,16.047Zm-8.43,5.332a6.094,6.094,0,0,0,0-12.187V5.383a.761.761,0,0,0-.762-.762H5.383a.761.761,0,0,0-.762.762v9.141a.761.761,0,0,0,.762.762H9.191A6.1,6.1,0,0,0,15.285,21.379ZM6.145,13.762V6.145h7.617V9.408a6.084,6.084,0,0,0-4.354,4.354ZM13.762,11v2.766H11A4.564,4.564,0,0,1,13.762,11Zm.762,4.29a.761.761,0,0,0,.762-.762V10.715a4.57,4.57,0,1,1-4.57,4.57Z" fill="#333"/>
  </g>
</svg>
