<svg xmlns="http://www.w3.org/2000/svg" width="36.375" height="55.429" viewBox="0 0 36.375 55.429">
  <g id="light-bulb" transform="translate(0 0)">
    <path id="Path_64" data-name="Path 64" d="M25.115,41.68H11.258a1.624,1.624,0,0,1-1.589-1.288c-.263-1.241-.525-2.764-.78-4.236-.152-.881-.308-1.786-.463-2.621a18.191,18.191,0,1,1,19.519,0c-.155.834-.311,1.738-.463,2.619-.254,1.473-.517,3-.78,4.236a1.624,1.624,0,0,1-1.589,1.288Zm0,0" transform="translate(0 0)" fill="#ffd222"/>
    <path id="Path_65" data-name="Path 65" d="M168,0V41.68h6.927a1.624,1.624,0,0,0,1.589-1.288c.263-1.241.526-2.763.78-4.236.152-.88.308-1.785.463-2.619A18.189,18.189,0,0,0,168,0Zm0,0" transform="translate(-149.813)" fill="#ecbd00"/>
    <path id="Path_66" data-name="Path 66" d="M96.622,372a8.67,8.67,0,0,1-8.661-8.661v-6.712A1.624,1.624,0,0,1,89.585,355h14.078a1.624,1.624,0,0,1,1.624,1.624v6.712A8.673,8.673,0,0,1,96.622,372Zm0,0" transform="translate(-78.439 -316.568)" fill="#f5f0eb"/>
    <path id="Path_67" data-name="Path 67" d="M119.253,101.727a1.624,1.624,0,0,1-1.265-2.64l4.263-5.312h-4.626a1.624,1.624,0,0,1-1.273-2.632l5.963-7.529a1.624,1.624,0,1,1,2.546,2.017l-3.878,4.9h4.653a1.624,1.624,0,0,1,1.267,2.64l-6.381,7.952A1.622,1.622,0,0,1,119.253,101.727Zm0,0" transform="translate(-103.443 -74.013)" fill="#fff16c"/>
    <path id="Path_68" data-name="Path 68" d="M79.392,418.248H58.6a1.624,1.624,0,0,1,0-3.248H79.392a1.624,1.624,0,0,1,0,3.248Zm0,0" transform="translate(-50.812 -370.073)" fill="#ebe1dc"/>
    <path id="Path_69" data-name="Path 69" d="M79.392,358.248H58.6a1.624,1.624,0,1,1,0-3.248H79.392a1.624,1.624,0,1,1,0,3.248Zm0,0" transform="translate(-50.812 -316.568)" fill="#ebe1dc"/>
    <path id="Path_70" data-name="Path 70" d="M168,89.71l3.23-4.079a1.624,1.624,0,1,0-2.546-2.016l-.685.864Zm0,0" transform="translate(-149.813 -74.013)" fill="#f2de00"/>
    <path id="Path_71" data-name="Path 71" d="M173.469,153.465a1.624,1.624,0,0,0-1.464-.921H168v3.248h.62l-.62.773v5.189l5.272-6.57A1.623,1.623,0,0,0,173.469,153.465Zm0,0" transform="translate(-149.812 -136.029)" fill="#f2de00"/>
    <path id="Path_72" data-name="Path 72" d="M175.037,355H168v17a8.673,8.673,0,0,0,8.661-8.661v-6.712A1.624,1.624,0,0,0,175.037,355Zm0,0" transform="translate(-149.813 -316.568)" fill="#ebe1dc"/>
    <g id="Group_11" data-name="Group 11" transform="translate(18.187 38.432)">
      <path id="Path_73" data-name="Path 73" d="M178.393,355H168v3.248h10.393a1.624,1.624,0,1,0,0-3.248Zm0,0" transform="translate(-168 -355)" fill="#dcd2cd"/>
      <path id="Path_74" data-name="Path 74" d="M178.393,415H168v3.248h10.393a1.624,1.624,0,1,0,0-3.248Zm0,0" transform="translate(-168 -408.504)" fill="#dcd2cd"/>
    </g>
  </g>
</svg>
