<svg xmlns="http://www.w3.org/2000/svg" width="21.52" height="25.824" viewBox="0 0 21.52 25.824">
  <g id="pause" transform="translate(-42.667)">
    <g id="Group_22" data-name="Group 22" transform="translate(42.667)">
      <g id="Group_21" data-name="Group 21">
        <path id="Path_85" data-name="Path 85" d="M49.661,0h-5.38a1.616,1.616,0,0,0-1.614,1.614v22.6a1.616,1.616,0,0,0,1.614,1.614h5.38a1.616,1.616,0,0,0,1.614-1.614V1.614A1.616,1.616,0,0,0,49.661,0Z" transform="translate(-42.667)" fill="#fff"/>
      </g>
    </g>
    <g id="Group_24" data-name="Group 24" transform="translate(55.579)">
      <g id="Group_23" data-name="Group 23">
        <path id="Path_86" data-name="Path 86" d="M305.661,0h-5.38a1.616,1.616,0,0,0-1.614,1.614v22.6a1.616,1.616,0,0,0,1.614,1.614h5.38a1.616,1.616,0,0,0,1.614-1.614V1.614A1.616,1.616,0,0,0,305.661,0Z" transform="translate(-298.667)" fill="#fff"/>
      </g>
    </g>
  </g>
</svg>
