<svg xmlns="http://www.w3.org/2000/svg" width="1807.987" height="884.553" viewBox="0 0 1807.987 884.553">
  <path id="Subtraction_4" data-name="Subtraction 4" d="M119-3761.947h0v-884.21l.393-.168.406-.174H1926.987l-.092.343c-3.666,13.609-7.726,27.266-12.068,40.588-4.3,13.182-8.992,26.413-13.956,39.326a805.2,805.2,0,0,1-33.309,74.948c-12.066,23.793-25.546,47.392-40.064,70.142-14.189,22.233-29.761,44.269-46.285,65.494-16.136,20.728-33.623,41.253-51.975,61.006-17.9,19.27-37.125,38.339-57.133,56.677-19.5,17.872-40.277,35.537-61.758,52.507-20.917,16.524-43.073,32.841-65.853,48.5-22.161,15.231-45.516,30.252-69.414,44.646-23.222,13.986-47.6,27.766-72.444,40.955-24.111,12.8-49.325,25.388-74.942,37.422-24.819,11.659-50.694,23.115-76.908,34.049-25.357,10.577-51.715,20.951-78.342,30.835-25.714,9.545-52.375,18.892-79.245,27.781-25.9,8.567-52.682,16.94-79.614,24.885-25.894,7.64-52.626,15.092-79.452,22.149-50.361,13.249-102.945,25.607-156.291,36.729-48.5,10.112-98.72,19.43-149.26,27.7-85.127,13.923-172.74,25.159-260.4,33.4-34.445,3.236-68.975,6.011-102.632,8.247-26.919,1.789-53.356,3.24-78.577,4.313C144.529-3762.063,120.023-3761.951,119-3761.947Z" transform="translate(-119 4646.5)" fill="#333" opacity="0.12"/>
</svg>
