<svg xmlns="http://www.w3.org/2000/svg" width="149.328" height="107.756" viewBox="0 0 149.328 107.756">
  <g id="usb_1_" data-name="usb (1)" transform="translate(0 -71.269)">
    <path id="Path_194" data-name="Path 194" d="M143.474,71.907l-92.288,53.56v23.624L93.3,173.4l92.287-53.56V96.22Z" transform="translate(-36.257 -0.452)" fill="#3e3d43"/>
    <g id="Group_98" data-name="Group 98" transform="translate(17.94 95.582)">
      <path id="Path_195" data-name="Path 195" d="M61.511,291.072v-16.4l35.854,20.7v16.4Z" transform="translate(-61.511 -239.661)" fill="#2e2e30"/>
      <path id="Path_196" data-name="Path 196" d="M195.171,208.191l92.288-53.56v23.625l-92.288,53.56Z" transform="translate(-156.188 -154.631)" fill="#2e2e30"/>
    </g>
    <path id="Path_197" data-name="Path 197" d="M216.624,238.184l79.774-46.3v9.156l-79.774,46.3Z" transform="translate(-153.444 -85.438)" fill="#1d1d1f"/>
    <path id="Path_198" data-name="Path 198" d="M50.784,124.829l92.288-53.56,42.111,24.313L92.9,149.142Z" transform="translate(-35.973 0)" fill="#57565c"/>
    <g id="Group_99" data-name="Group 99" transform="translate(48.086 92.239)">
      <path id="Path_199" data-name="Path 199" d="M226.132,144.567a12.857,12.857,0,0,0-11.666,0c-2.581,1.5-3.074,3.75-1.489,5.543l-13.12,7.624H181.326a3.678,3.678,0,0,0-1.806.434l-4.9,2.846-2.057-1.187-7.691,4.47,7.742,4.469,7.691-4.47-2.057-1.187L182.4,160.7h12.358l-20.284,11.788-3.993-2.306L166.4,179.1l15.391-2.391L178.1,174.58l30.184-17.541.039,6.81-8.309,4.829a10.056,10.056,0,0,0-6.9.83c-2.5,1.454-2.489,3.811.029,5.265a10.017,10.017,0,0,0,9.09,0c1.861-1.081,2.328-2.662,1.41-4l9.055-5.262a1.273,1.273,0,0,0,.744-1.048l-.06-10.386,3.221-1.872a13,13,0,0,0,9.564-.881c3.21-1.866,3.193-4.891-.038-6.757" transform="translate(-164.874 -143.167)" fill="#3e3d43"/>
    </g>
    <path id="Path_200" data-name="Path 200" d="M26.573,291.767,0,307.21v12.4l27.017,15.6,26.777-15.561v-12.17Zm-.492,41.855.029-.017v.017Z" transform="translate(0 -156.189)" fill="#898890"/>
    <g id="Group_100" data-name="Group 100" transform="translate(0 135.578)">
      <path id="Path_201" data-name="Path 201" d="M3.087,312.378l26.777-15.561-.029,10.266L3.087,322.644Z" transform="translate(-2.187 -295.344)" fill="#77767e"/>
      <path id="Path_202" data-name="Path 202" d="M85.494,376.557,112.271,361l-.011,3.871L85.494,380.428Z" transform="translate(-60.559 -340.805)" fill="#2e2e30"/>
      <path id="Path_203" data-name="Path 203" d="M7.1,331.294l26.777-15.561,22.865,13.2L29.962,344.5Z" transform="translate(-5.027 -308.743)" fill="#57565c"/>
      <path id="Path_204" data-name="Path 204" d="M0,344.717l27.017,15.6v12.4L0,357.122Zm26.111,26.412V360.863L.9,346.308v10.266l25.182,14.555" transform="translate(0 -329.274)" fill="#acabb1"/>
      <path id="Path_205" data-name="Path 205" d="M29.962,382.289v3.871L7.1,372.959v-3.871Z" transform="translate(-5.027 -346.537)" fill="#3e3d43"/>
      <path id="Path_206" data-name="Path 206" d="M92.632,360.974l26.777-15.326-.035,12.17L92.632,373.38Z" transform="translate(-65.615 -329.933)" fill="#898890"/>
      <path id="Path_207" data-name="Path 207" d="M0,307.21l26.573-15.443,27.221,15.715L27.017,322.808Z" transform="translate(0 -291.767)" fill="#c6c5cb"/>
    </g>
    <path id="Path_208" data-name="Path 208" d="M50.093,331.024a.158.158,0,0,1,0,.3l-4.562,2.651a.568.568,0,0,1-.516,0l-6-3.466a.158.158,0,0,1,0-.3l4.562-2.651a.569.569,0,0,1,.516,0l6,3.466m12.171,7.027-6-3.466a.568.568,0,0,0-.516,0l-4.562,2.651a.158.158,0,0,0,0,.3l6,3.466a.568.568,0,0,0,.516,0l4.562-2.651a.158.158,0,0,0,0-.3" transform="translate(-27.559 -181.497)" fill="#77767e"/>
    <g id="Group_101" data-name="Group 101" transform="translate(14.618 147.887)">
      <path id="Path_209" data-name="Path 209" d="M52.96,338.559a.568.568,0,0,0,.516,0l4.562-2.651a.158.158,0,0,0,0-.3l-2.84-1.64-5.076,2.95Z" transform="translate(-50.12 -333.969)" fill="#57565c"/>
      <path id="Path_210" data-name="Path 210" d="M87.263,358.067l4.562-2.651a.158.158,0,0,0,0-.3l-6-3.466a.568.568,0,0,0-.516,0L80.742,354.3a.158.158,0,0,0,0,.3l6,3.466A.568.568,0,0,0,87.263,358.067Z" transform="translate(-71.736 -346.45)" fill="#57565c"/>
    </g>
    <path id="Path_211" data-name="Path 211" d="M235.9,327.65c.006,2.016.717,3.435,1.865,4.1L242.5,334.5l-.013-.008c1.164.684,2.779.592,4.563-.437a14.046,14.046,0,0,0,6.374-11.04c-.006-2.022-.722-3.443-1.876-4.108l.011.006-4.737-2.753c-1.163-.676-2.773-.581-4.55.446A14.046,14.046,0,0,0,235.9,327.65Z" transform="translate(-167.098 -173.165)" fill="#898890"/>
    <path id="Path_212" data-name="Path 212" d="M267.042,318.918l-4.737-2.753c-1.163-.676-2.773-.581-4.55.446l4.737,2.753C264.269,318.337,265.879,318.242,267.042,318.918Z" transform="translate(-182.579 -173.165)" fill="#c6c5cb"/>
    <path id="Path_213" data-name="Path 213" d="M237.765,333.882l4.737,2.753c-1.148-.667-1.86-2.085-1.865-4.1a14.047,14.047,0,0,1,6.374-11.04l-4.737-2.753a14.048,14.048,0,0,0-6.374,11.04C235.906,331.8,236.617,333.215,237.765,333.882Z" transform="translate(-167.098 -175.296)" fill="#acabb1"/>
    <path id="Path_214" data-name="Path 214" d="M258.516,326.048a14.047,14.047,0,0,0-6.374,11.04c.012,4.059,2.884,5.695,6.416,3.656a14.046,14.046,0,0,0,6.374-11.04C264.92,325.646,262.047,324.009,258.516,326.048Z" transform="translate(-178.603 -179.85)" fill="#898890"/>
    <path id="Path_215" data-name="Path 215" d="M264.6,336.743a8.549,8.549,0,0,0-3.879,6.719c.007,2.47,1.755,3.466,3.9,2.225a8.549,8.549,0,0,0,3.879-6.719C268.5,336.5,266.751,335.5,264.6,336.743Z" transform="translate(-184.682 -187.669)" fill="#77767e"/>
  </g>
</svg>
