<?xml version="1.0" encoding="utf-8"?>
<!-- Generator: Adobe Illustrator 24.2.1, SVG Export Plug-In . SVG Version: 6.00 Build 0)  -->
<svg version="1.1" id="Layer_1" xmlns="http://www.w3.org/2000/svg" xmlns:xlink="http://www.w3.org/1999/xlink" x="0px" y="0px"
	 viewBox="0 0 126.8 127" style="enable-background:new 0 0 126.8 127;" xml:space="preserve">
<style type="text/css">
	.st0{fill:#06754B;}
	.st1{fill:#007E4E;}
	.st2{enable-background:new    ;}
	.st3{fill:#FFFFFF;}
</style>
<g id="Group_79" transform="translate(1010.081 446.092)">
	<g id="Group_40" transform="translate(0 0.189)">
		<path id="Path_96" class="st0" d="M-897.1-331.2c-19.4,15.9-80.1,15.9-99.1,0c-19.4-15.9-17.5-83.7,0-101.5
			c17.5-17.8,81.7-17.8,99.1,0C-879.6-414.9-877.7-347-897.1-331.2z"/>
	</g>
	<path id="Path_97" class="st1" d="M-946.3-358.8c-17.5,13.9-36.9,21-55.1,21.4c-13.5-23-10.7-78.9,5.2-95.2
		c14.3-14.7,59.1-17.4,84.9-8.3C-905-414.7-918.1-381.4-946.3-358.8z"/>
</g>
<g class="st2">
	<path class="st3" d="M41.4,98V82.3h7c1.4,0,2.5,0.1,3.2,0.4c0.7,0.3,1.3,0.8,1.8,1.5c0.4,0.7,0.7,1.5,0.7,2.4
		c0,1.1-0.4,2.1-1.1,2.8c-0.7,0.8-1.8,1.3-3.4,1.5c0.6,0.3,1,0.5,1.3,0.8c0.6,0.6,1.2,1.3,1.7,2.1l2.7,4.3h-2.6l-2.1-3.3
		c-0.6-0.9-1.1-1.7-1.5-2.2c-0.4-0.5-0.7-0.9-1.1-1.1s-0.6-0.3-1-0.4c-0.2,0-0.6-0.1-1.2-0.1h-2.4v7H41.4z M43.5,89.2H48
		c1,0,1.7-0.1,2.2-0.3c0.5-0.2,0.9-0.5,1.2-0.9c0.3-0.4,0.4-0.9,0.4-1.4c0-0.7-0.3-1.4-0.8-1.8c-0.5-0.5-1.4-0.7-2.6-0.7h-5V89.2z"
		/>
	<path class="st3" d="M67.6,82.3h2.1v9.1c0,1.6-0.2,2.8-0.5,3.8s-1,1.7-1.9,2.3c-0.9,0.6-2.2,0.9-3.7,0.9c-1.5,0-2.7-0.3-3.6-0.8
		c-0.9-0.5-1.6-1.2-2-2.2c-0.4-1-0.6-2.3-0.6-3.9v-9.1h2.1v9.1c0,1.4,0.1,2.4,0.4,3c0.3,0.6,0.7,1.1,1.3,1.5
		c0.6,0.4,1.4,0.5,2.3,0.5c1.5,0,2.6-0.3,3.3-1s1-2,1-4V82.3z"/>
	<path class="st3" d="M73.2,98V82.3h2.1l8.3,12.4V82.3h2V98h-2.1l-8.3-12.4V98H73.2z"/>
</g>
<g id="play" transform="translate(1060.26 474.925)">
	<g id="Group_20" transform="translate(0)">
		<path id="Path_84" class="st3" d="M-980.4-428.7l-23.7-16.2c-0.9-0.7-2-1.1-3.1-1.1c-1.8,0-2.9,1.4-2.9,3.8v35.1
			c0,2.4,1.1,3.8,2.9,3.8c1.1-0.1,2.2-0.5,3.1-1.1l23.7-16.2c1.4-0.8,2.3-2.3,2.4-4C-978.1-426.4-979-427.9-980.4-428.7z"/>
	</g>
</g>
</svg>
