<?xml version="1.0" encoding="utf-8"?>
<!-- Generator: Adobe Illustrator 24.2.1, SVG Export Plug-In . SVG Version: 6.00 Build 0)  -->
<svg version="1.1" id="Layer_1" xmlns="http://www.w3.org/2000/svg" xmlns:xlink="http://www.w3.org/1999/xlink" x="0px" y="0px"
	 viewBox="0 0 126.8 127" style="enable-background:new 0 0 126.8 127;" xml:space="preserve">
<style type="text/css">
	.st0{fill:#06754B;}
	.st1{fill:#007E4E;}
	.st2{enable-background:new    ;}
	.st3{fill:#FFFFFF;}
</style>
<g id="Group_79" transform="translate(1010.081 446.092)">
	<g id="Group_40" transform="translate(0 0.189)">
		<path id="Path_96" class="st0" d="M-897.1-331.2c-19.4,15.9-80.1,15.9-99.1,0c-19.4-15.9-17.5-83.7,0-101.5s81.7-17.8,99.1,0
			C-879.6-414.9-877.7-347-897.1-331.2z"/>
	</g>
	<path id="Path_97" class="st1" d="M-946.3-358.8c-17.5,13.9-36.9,21-55.1,21.4c-13.5-23-10.7-78.9,5.2-95.2
		c14.3-14.7,59.1-17.4,84.9-8.3C-905-414.7-918.1-381.4-946.3-358.8z"/>
</g>
<g class="st2">
	<path class="st3" d="M34.9,92.9l2-0.2c0.1,0.8,0.3,1.4,0.6,1.9c0.3,0.5,0.9,0.9,1.6,1.2c0.7,0.3,1.5,0.5,2.4,0.5
		c0.8,0,1.5-0.1,2.1-0.4c0.6-0.2,1.1-0.6,1.4-1c0.3-0.4,0.4-0.9,0.4-1.3c0-0.5-0.1-0.9-0.4-1.3c-0.3-0.4-0.8-0.7-1.4-0.9
		c-0.4-0.2-1.4-0.4-2.8-0.8c-1.4-0.3-2.5-0.7-3-1c-0.8-0.4-1.3-0.9-1.7-1.5c-0.4-0.6-0.6-1.2-0.6-2c0-0.8,0.2-1.5,0.7-2.2
		c0.5-0.7,1.1-1.2,2-1.6C39,82.2,39.9,82,41,82c1.2,0,2.2,0.2,3.1,0.6c0.9,0.4,1.6,0.9,2.1,1.7c0.5,0.7,0.7,1.6,0.8,2.5l-2,0.2
		c-0.1-1-0.5-1.7-1.1-2.3c-0.6-0.5-1.5-0.8-2.7-0.8c-1.3,0-2.2,0.2-2.8,0.7c-0.6,0.5-0.9,1-0.9,1.7c0,0.6,0.2,1,0.6,1.4
		c0.4,0.4,1.4,0.7,3.1,1.1c1.7,0.4,2.9,0.7,3.5,1c0.9,0.4,1.6,1,2,1.6c0.4,0.6,0.7,1.4,0.7,2.2c0,0.8-0.2,1.6-0.7,2.4
		c-0.5,0.7-1.2,1.3-2.1,1.7c-0.9,0.4-1.9,0.6-3,0.6c-1.4,0-2.6-0.2-3.6-0.6c-1-0.4-1.7-1-2.3-1.9C35.2,94.9,34.9,94,34.9,92.9z"/>
	<path class="st3" d="M54.2,98V84.1h-5.2v-1.9h12.5v1.9h-5.2V98H54.2z"/>
	<path class="st3" d="M62.6,90.3c0-2.6,0.7-4.7,2.1-6.1c1.4-1.5,3.2-2.2,5.4-2.2c1.5,0,2.8,0.3,3.9,1c1.2,0.7,2.1,1.7,2.7,2.9
		c0.6,1.2,0.9,2.7,0.9,4.2c0,1.6-0.3,3-1,4.3s-1.6,2.2-2.7,2.9c-1.2,0.6-2.5,1-3.8,1c-1.5,0-2.8-0.4-4-1.1c-1.2-0.7-2.1-1.7-2.7-2.9
		C62.9,93,62.6,91.7,62.6,90.3z M64.8,90.4c0,1.9,0.5,3.4,1.5,4.5c1,1.1,2.3,1.6,3.8,1.6c1.6,0,2.9-0.6,3.9-1.7s1.5-2.7,1.5-4.7
		c0-1.3-0.2-2.4-0.7-3.4c-0.4-1-1.1-1.7-1.9-2.2c-0.8-0.5-1.8-0.8-2.8-0.8c-1.5,0-2.7,0.5-3.8,1.5C65.3,86.3,64.8,88,64.8,90.4z"/>
	<path class="st3" d="M80.4,98V82.3h5.9c1,0,1.8,0,2.4,0.2c0.8,0.1,1.4,0.4,1.9,0.7c0.5,0.4,0.9,0.9,1.3,1.5s0.5,1.4,0.5,2.1
		c0,1.3-0.4,2.5-1.3,3.4c-0.9,0.9-2.4,1.4-4.6,1.4h-4V98H80.4z M82.5,89.7h4.1c1.3,0,2.3-0.3,2.9-0.8c0.6-0.5,0.8-1.2,0.8-2.1
		c0-0.7-0.2-1.2-0.5-1.7c-0.3-0.5-0.8-0.8-1.3-0.9c-0.4-0.1-1-0.1-1.9-0.1h-4V89.7z"/>
</g>
<g id="pause" transform="translate(-42.667)">
	<g id="Group_22" transform="translate(42.667)">
		<g id="Group_21">
			<path id="Path_85" class="st3" d="M57.1,28.5h-9c-1.5,0-2.7,1.2-2.7,2.7v37.7c0,1.5,1.2,2.7,2.7,2.7h9c1.5,0,2.7-1.2,2.7-2.7
				V31.2C59.8,29.7,58.6,28.5,57.1,28.5z"/>
		</g>
	</g>
	<g id="Group_24" transform="translate(55.579)">
		<g id="Group_23">
			<path id="Path_86" class="st3" d="M65.7,28.5h-9c-1.5,0-2.7,1.2-2.7,2.7v37.7c0,1.5,1.2,2.7,2.7,2.7h9c1.5,0,2.7-1.2,2.7-2.7
				V31.2C68.4,29.7,67.2,28.5,65.7,28.5z"/>
		</g>
	</g>
</g>
</svg>
